{"glyphs":{"0":{"ha":951,"x_min":60,"x_max":892,"o":"m 475 -14 q 168 117 276 -14 q 60 514 60 248 q 168 911 60 780 q 475 1042 276 1042 q 783 911 675 1042 q 892 514 892 780 q 783 117 892 248 q 475 -14 675 -14 m 476 203 q 561 232 528 203 q 613 329 595 260 q 631 513 631 397 q 613 699 631 630 q 561 796 595 767 q 476 825 528 825 q 390 796 424 825 q 338 699 356 767 q 320 515 320 631 q 338 329 320 397 q 389 232 356 260 q 476 203 423 203 z "},"1":{"ha":603,"x_min":19,"x_max":512,"o":"m 340 1032 l 512 1032 l 512 0 l 246 0 l 246 720 l 19 565 l 19 813 l 340 1032 z "},"2":{"ha":767,"x_min":17,"x_max":733,"o":"m 733 219 l 733 0 l 31 0 l 31 142 l 311 483 q 398 611 372 558 q 424 709 424 663 q 382 799 424 770 q 247 828 341 828 q 126 818 187 828 q 17 789 65 807 l 17 1003 q 139 1031 65 1019 q 276 1042 213 1042 q 584 967 483 1042 q 686 736 686 893 q 653 578 686 656 q 542 408 620 500 l 381 219 l 733 219 z "},"3":{"ha":774,"x_min":28,"x_max":735,"o":"m 532 531 q 682 448 630 510 q 735 288 735 387 q 626 65 735 144 q 303 -14 517 -14 q 28 21 161 -14 l 28 217 q 158 192 88 201 q 291 183 228 183 q 439 213 392 183 q 485 305 485 244 q 440 396 485 366 q 290 426 394 426 l 129 426 l 129 624 l 264 624 q 404 653 361 624 q 447 736 447 681 q 406 818 447 791 q 278 845 366 845 q 157 835 219 845 q 44 807 95 825 l 44 1003 q 168 1031 94 1020 q 308 1042 241 1042 q 602 969 503 1042 q 701 760 701 897 q 656 615 701 676 q 532 531 611 555 z "},"4":{"ha":907,"x_min":23,"x_max":886,"o":"m 886 403 l 886 199 l 758 199 l 758 0 l 520 0 l 520 199 l 23 199 l 23 344 l 367 1028 l 621 1028 l 312 403 l 520 403 l 545 681 l 758 681 l 758 403 l 886 403 z "},"5":{"ha":783,"x_min":47,"x_max":752,"o":"m 336 632 q 576 583 484 622 q 710 478 667 544 q 752 314 752 412 q 643 70 752 153 q 322 -14 535 -14 q 47 24 179 -14 l 47 221 q 177 194 106 204 q 310 185 247 185 q 456 215 410 185 q 501 306 501 246 q 477 376 501 349 q 390 418 453 402 q 208 441 326 434 l 76 448 l 113 1028 l 710 1028 l 710 825 l 349 825 l 336 632 z "},"6":{"ha":893,"x_min":66,"x_max":858,"o":"m 525 628 q 697 594 622 628 q 815 490 772 560 q 858 315 858 420 q 813 140 858 214 q 683 26 767 66 q 483 -14 599 -14 q 262 39 356 -14 q 117 201 169 91 q 66 481 66 312 q 200 900 66 758 q 585 1042 334 1042 q 803 1010 718 1042 l 803 809 q 599 841 709 841 q 398 775 465 841 q 325 576 331 710 q 418 614 365 601 q 525 628 470 628 m 484 176 q 582 209 546 176 q 618 307 618 242 q 580 407 618 374 q 472 440 541 440 q 325 398 390 440 q 349 265 329 314 q 402 196 369 216 q 484 176 436 176 z "},"7":{"ha":731,"x_min":8,"x_max":691,"o":"m 8 1028 l 691 1028 l 691 885 l 376 0 l 103 0 l 409 809 l 8 809 l 8 1028 z "},"8":{"ha":951,"x_min":51,"x_max":897,"o":"m 718 548 q 857 439 816 501 q 897 288 897 376 q 850 132 897 200 q 709 25 803 64 q 478 -14 615 -14 q 238 20 333 -14 q 97 115 142 54 q 51 256 51 176 q 98 398 51 335 q 233 497 144 460 q 115 607 151 544 q 78 750 78 669 q 125 903 78 837 q 264 1005 172 969 q 492 1042 357 1042 q 695 1010 610 1042 q 825 920 781 979 q 870 781 870 862 q 718 548 870 627 m 488 861 q 368 833 408 861 q 328 760 328 805 q 345 701 328 725 q 408 656 362 678 q 546 609 454 635 q 619 675 597 640 q 642 754 642 710 q 603 833 642 806 q 488 861 564 861 m 478 167 q 609 194 567 167 q 651 273 651 222 q 632 334 651 309 q 564 380 613 359 q 425 424 516 401 l 399 431 q 324 367 349 406 q 299 287 299 329 q 343 198 299 228 q 478 167 388 167 z "},"9":{"ha":893,"x_min":35,"x_max":827,"o":"m 410 1042 q 631 989 538 1042 q 776 826 724 937 q 827 547 827 716 q 693 128 827 269 q 308 -14 559 -14 q 90 18 175 -14 l 90 219 q 294 187 184 187 q 495 252 428 187 q 568 451 563 318 q 475 414 528 427 q 368 400 423 400 q 196 434 271 400 q 78 538 122 467 q 35 713 35 608 q 81 888 35 814 q 210 1002 126 962 q 410 1042 294 1042 m 275 721 q 314 621 275 653 q 422 588 352 588 q 568 630 503 588 q 544 763 564 714 q 491 832 524 812 q 409 852 457 852 q 311 819 347 852 q 275 721 275 786 z "},"\u0000":{"ha":0,"x_min":0,"x_max":0,"o":""},"\r":{"ha":353,"x_min":0,"x_max":0,"o":""}," ":{"ha":353,"x_min":0,"x_max":0,"o":""},"A":{"ha":1040,"x_min":6,"x_max":1034,"o":"m 773 0 l 699 253 l 338 253 l 265 0 l 6 0 l 325 1028 l 715 1028 l 1034 0 l 773 0 m 399 463 l 638 463 l 518 870 l 399 463 z "},"Á":{"ha":1040,"x_min":6,"x_max":1034,"o":"m 773 0 l 699 253 l 338 253 l 265 0 l 6 0 l 325 1028 l 715 1028 l 1034 0 l 773 0 m 399 463 l 638 463 l 518 870 l 399 463 m 401 1104 l 526 1319 l 800 1319 l 635 1104 l 401 1104 z "},"Ă":{"ha":1040,"x_min":6,"x_max":1034,"o":"m 773 0 l 699 253 l 338 253 l 265 0 l 6 0 l 325 1028 l 715 1028 l 1034 0 l 773 0 m 399 463 l 638 463 l 518 870 l 399 463 m 519 1106 q 321 1162 392 1106 q 238 1317 250 1218 l 394 1317 q 433 1251 403 1273 q 519 1229 463 1229 q 605 1251 575 1229 q 644 1317 635 1273 l 801 1317 q 717 1162 788 1218 q 519 1106 647 1106 z "},"Ắ":{"ha":1040,"x_min":6,"x_max":1034,"o":"m 773 0 l 699 253 l 338 253 l 265 0 l 6 0 l 325 1028 l 715 1028 l 1034 0 l 773 0 m 399 463 l 638 463 l 518 870 l 399 463 m 450 1272 l 524 1437 l 697 1437 l 588 1272 l 450 1272 m 519 1106 q 333 1155 399 1106 q 253 1290 266 1203 l 389 1290 q 427 1230 399 1249 q 519 1210 456 1210 q 589 1219 563 1210 q 631 1245 616 1228 q 656 1290 646 1263 l 785 1290 q 706 1155 772 1203 q 519 1106 639 1106 z "},"Ặ":{"ha":1040,"x_min":6,"x_max":1034,"o":"m 773 0 l 699 253 l 338 253 l 265 0 l 6 0 l 325 1028 l 715 1028 l 1034 0 l 773 0 m 399 463 l 638 463 l 518 870 l 399 463 m 520 -308 q 403 -278 442 -308 q 363 -194 363 -248 q 403 -110 363 -140 q 520 -80 442 -80 q 637 -110 597 -80 q 676 -194 676 -140 q 637 -278 676 -248 q 520 -308 597 -308 m 519 1106 q 321 1162 392 1106 q 238 1317 250 1218 l 394 1317 q 433 1251 403 1273 q 519 1229 463 1229 q 605 1251 575 1229 q 644 1317 635 1273 l 801 1317 q 717 1162 788 1218 q 519 1106 647 1106 z "},"Ằ":{"ha":1040,"x_min":6,"x_max":1034,"o":"m 773 0 l 699 253 l 338 253 l 265 0 l 6 0 l 325 1028 l 715 1028 l 1034 0 l 773 0 m 399 463 l 638 463 l 518 870 l 399 463 m 450 1272 l 341 1437 l 515 1437 l 588 1272 l 450 1272 m 519 1106 q 333 1155 399 1106 q 253 1290 266 1203 l 383 1290 q 407 1245 392 1263 q 449 1219 422 1228 q 519 1210 476 1210 q 611 1230 583 1210 q 649 1290 640 1249 l 785 1290 q 706 1155 772 1203 q 519 1106 639 1106 z "},"Ẳ":{"ha":1040,"x_min":6,"x_max":1034,"o":"m 773 0 l 699 253 l 338 253 l 265 0 l 6 0 l 325 1028 l 715 1028 l 1034 0 l 773 0 m 399 463 l 638 463 l 518 870 l 399 463 m 456 1272 q 477 1315 458 1299 q 532 1344 497 1330 q 562 1359 553 1353 q 571 1372 571 1365 q 553 1388 571 1383 q 497 1392 535 1392 q 363 1379 427 1392 l 363 1459 q 437 1470 394 1466 q 517 1474 481 1474 q 659 1453 613 1474 q 706 1388 706 1431 q 688 1347 706 1363 q 635 1315 669 1331 q 597 1294 610 1303 q 583 1272 585 1285 l 456 1272 m 519 1106 q 333 1155 399 1106 q 253 1290 266 1203 l 389 1290 q 427 1230 399 1249 q 519 1210 455 1210 q 589 1219 563 1210 q 631 1245 616 1228 q 656 1290 646 1263 l 785 1290 q 706 1155 772 1203 q 519 1106 639 1106 z "},"Ẵ":{"ha":1040,"x_min":6,"x_max":1034,"o":"m 773 0 l 699 253 l 338 253 l 265 0 l 6 0 l 325 1028 l 715 1028 l 1034 0 l 773 0 m 399 463 l 638 463 l 518 870 l 399 463 m 628 1323 q 572 1328 598 1323 q 505 1345 545 1334 q 451 1359 473 1354 q 408 1364 429 1364 q 334 1353 369 1364 q 253 1317 300 1343 l 253 1425 q 329 1460 294 1451 q 410 1469 365 1469 q 468 1464 440 1469 q 533 1447 496 1458 q 587 1433 565 1438 q 630 1428 609 1428 q 704 1438 669 1428 q 785 1474 738 1448 l 785 1366 q 710 1332 745 1340 q 628 1323 675 1323 m 519 1106 q 333 1155 399 1106 q 253 1290 266 1203 l 389 1290 q 427 1230 399 1249 q 519 1210 455 1210 q 611 1230 583 1210 q 649 1290 640 1249 l 785 1290 q 706 1155 772 1203 q 519 1106 639 1106 z "},"Â":{"ha":1040,"x_min":6,"x_max":1034,"o":"m 773 0 l 699 253 l 338 253 l 265 0 l 6 0 l 325 1028 l 715 1028 l 1034 0 l 773 0 m 399 463 l 638 463 l 518 870 l 399 463 m 809 1104 l 615 1104 l 519 1226 l 423 1104 l 229 1104 l 410 1319 l 629 1319 l 809 1104 z "},"Ấ":{"ha":1040,"x_min":6,"x_max":1034,"o":"m 773 0 l 699 253 l 338 253 l 265 0 l 6 0 l 325 1028 l 715 1028 l 1034 0 l 773 0 m 399 463 l 638 463 l 518 870 l 399 463 m 773 1433 l 946 1433 l 837 1266 l 699 1266 l 773 1433 m 410 1293 l 629 1293 l 809 1104 l 615 1104 l 519 1212 l 423 1104 l 229 1104 l 410 1293 z "},"Ậ":{"ha":1040,"x_min":6,"x_max":1034,"o":"m 773 0 l 699 253 l 338 253 l 265 0 l 6 0 l 325 1028 l 715 1028 l 1034 0 l 773 0 m 399 463 l 638 463 l 518 870 l 399 463 m 520 -308 q 403 -278 442 -308 q 363 -194 363 -248 q 403 -110 363 -140 q 520 -80 442 -80 q 637 -110 597 -80 q 676 -194 676 -140 q 637 -278 676 -248 q 520 -308 597 -308 m 809 1104 l 615 1104 l 519 1226 l 423 1104 l 229 1104 l 410 1319 l 629 1319 l 809 1104 z "},"Ầ":{"ha":1040,"x_min":6,"x_max":1034,"o":"m 773 0 l 699 253 l 338 253 l 265 0 l 6 0 l 325 1028 l 715 1028 l 1034 0 l 773 0 m 399 463 l 638 463 l 518 870 l 399 463 m 863 1266 l 724 1266 l 616 1433 l 789 1433 l 863 1266 m 410 1293 l 629 1293 l 809 1104 l 615 1104 l 519 1212 l 423 1104 l 229 1104 l 410 1293 z "},"Ẩ":{"ha":1040,"x_min":6,"x_max":1034,"o":"m 773 0 l 699 253 l 338 253 l 265 0 l 6 0 l 325 1028 l 715 1028 l 1034 0 l 773 0 m 399 463 l 638 463 l 518 870 l 399 463 m 760 1469 q 902 1448 856 1469 q 948 1383 948 1426 q 930 1342 948 1358 q 878 1310 913 1327 q 840 1289 853 1298 q 825 1266 827 1279 l 698 1266 q 720 1309 700 1294 q 775 1339 740 1324 q 805 1353 796 1348 q 814 1367 814 1359 q 739 1388 814 1388 q 606 1374 673 1388 l 606 1453 q 679 1465 636 1460 q 760 1469 722 1469 m 410 1293 l 629 1293 l 809 1104 l 615 1104 l 519 1212 l 423 1104 l 229 1104 l 410 1293 z "},"Ẫ":{"ha":1040,"x_min":6,"x_max":1034,"o":"m 773 0 l 699 253 l 338 253 l 265 0 l 6 0 l 325 1028 l 715 1028 l 1034 0 l 773 0 m 399 463 l 638 463 l 518 870 l 399 463 m 646 1428 q 725 1438 689 1428 q 809 1474 761 1448 l 809 1366 q 731 1332 768 1340 q 643 1323 694 1323 q 577 1328 608 1323 q 503 1345 545 1334 q 442 1359 467 1355 q 392 1364 417 1364 q 314 1353 349 1364 q 229 1317 278 1343 l 229 1425 q 308 1460 270 1451 q 395 1469 345 1469 q 461 1464 430 1469 q 535 1447 492 1458 q 596 1432 572 1437 q 646 1428 621 1428 m 410 1293 l 629 1293 l 809 1104 l 615 1104 l 519 1212 l 423 1104 l 229 1104 l 410 1293 z "},"Ȁ":{"ha":1040,"x_min":6,"x_max":1034,"o":"m 773 0 l 699 253 l 338 253 l 265 0 l 6 0 l 325 1028 l 715 1028 l 1034 0 l 773 0 m 399 463 l 638 463 l 518 870 l 399 463 m 274 1104 l 165 1319 l 369 1319 l 465 1104 l 274 1104 m 573 1104 l 463 1319 l 667 1319 l 764 1104 l 573 1104 z "},"Ä":{"ha":1040,"x_min":6,"x_max":1034,"o":"m 773 0 l 699 253 l 338 253 l 265 0 l 6 0 l 325 1028 l 715 1028 l 1034 0 l 773 0 m 399 463 l 638 463 l 518 870 l 399 463 m 335 1102 q 233 1132 267 1102 q 199 1215 199 1161 q 233 1300 199 1270 q 335 1329 267 1329 q 437 1300 402 1329 q 472 1215 472 1270 q 437 1132 472 1161 q 335 1102 402 1102 m 703 1102 q 601 1132 636 1102 q 567 1215 567 1161 q 601 1300 567 1270 q 703 1329 636 1329 q 805 1300 771 1329 q 840 1215 840 1270 q 805 1132 840 1161 q 703 1102 771 1102 z "},"Ạ":{"ha":1040,"x_min":6,"x_max":1034,"o":"m 773 0 l 699 253 l 338 253 l 265 0 l 6 0 l 325 1028 l 715 1028 l 1034 0 l 773 0 m 399 463 l 638 463 l 518 870 l 399 463 m 520 -308 q 403 -278 442 -308 q 363 -194 363 -248 q 403 -110 363 -140 q 520 -80 442 -80 q 637 -110 597 -80 q 676 -194 676 -140 q 637 -278 676 -248 q 520 -308 597 -308 z "},"À":{"ha":1040,"x_min":6,"x_max":1034,"o":"m 773 0 l 699 253 l 338 253 l 265 0 l 6 0 l 325 1028 l 715 1028 l 1034 0 l 773 0 m 399 463 l 638 463 l 518 870 l 399 463 m 401 1104 l 237 1319 l 510 1319 l 637 1104 l 401 1104 z "},"Ả":{"ha":1040,"x_min":6,"x_max":1034,"o":"m 773 0 l 699 253 l 338 253 l 265 0 l 6 0 l 325 1028 l 715 1028 l 1034 0 l 773 0 m 399 463 l 638 463 l 518 870 l 399 463 m 456 1104 q 478 1153 458 1135 q 533 1188 498 1171 q 561 1203 552 1197 q 571 1218 571 1210 q 553 1236 571 1231 q 497 1242 535 1242 q 363 1226 428 1242 l 363 1319 q 436 1332 393 1327 q 517 1336 479 1336 q 659 1312 613 1336 q 706 1238 706 1288 q 688 1191 706 1208 q 635 1154 669 1174 q 597 1129 610 1140 q 583 1104 585 1119 l 456 1104 z "},"Ȃ":{"ha":1040,"x_min":6,"x_max":1034,"o":"m 773 0 l 699 253 l 338 253 l 265 0 l 6 0 l 325 1028 l 715 1028 l 1034 0 l 773 0 m 399 463 l 638 463 l 518 870 l 399 463 m 238 1107 q 321 1262 250 1206 q 519 1318 392 1318 q 717 1262 647 1318 q 801 1107 788 1206 l 644 1107 q 605 1173 635 1151 q 519 1194 575 1194 q 433 1173 463 1194 q 394 1107 403 1151 l 238 1107 z "},"Ā":{"ha":1040,"x_min":6,"x_max":1034,"o":"m 773 0 l 699 253 l 338 253 l 265 0 l 6 0 l 325 1028 l 715 1028 l 1034 0 l 773 0 m 399 463 l 638 463 l 518 870 l 399 463 m 248 1135 l 248 1290 l 790 1290 l 790 1135 l 248 1135 z "},"Ą":{"ha":1040,"x_min":6,"x_max":1060,"o":"m 965 -213 q 1060 -194 1007 -213 l 1060 -292 q 928 -314 999 -314 q 774 -274 826 -314 q 722 -163 722 -234 q 748 -74 722 -114 q 833 0 774 -33 l 773 0 l 699 253 l 338 253 l 265 0 l 6 0 l 325 1028 l 715 1028 l 1034 0 q 905 -68 942 -33 q 869 -145 869 -103 q 965 -213 869 -213 m 399 463 l 638 463 l 518 870 l 399 463 z "},"Å":{"ha":1040,"x_min":6,"x_max":1034,"o":"m 773 0 l 699 253 l 338 253 l 265 0 l 6 0 l 325 1028 l 715 1028 l 1034 0 l 773 0 m 399 463 l 638 463 l 518 870 l 399 463 m 520 1077 q 441 1096 476 1077 q 386 1149 406 1115 q 366 1226 366 1183 q 386 1303 366 1269 q 441 1357 406 1338 q 520 1376 476 1376 q 599 1357 564 1376 q 654 1303 634 1338 q 674 1226 674 1269 q 654 1149 674 1183 q 599 1096 634 1115 q 520 1077 564 1077 m 520 1165 q 563 1181 547 1165 q 579 1226 579 1198 q 563 1271 579 1254 q 520 1288 547 1288 q 477 1271 494 1288 q 460 1226 460 1254 q 477 1181 460 1198 q 520 1165 493 1165 z "},"Ǻ":{"ha":1040,"x_min":6,"x_max":1034,"o":"m 773 0 l 699 253 l 338 253 l 265 0 l 6 0 l 325 1028 l 715 1028 l 1034 0 l 773 0 m 399 463 l 638 463 l 518 870 l 399 463 m 656 1299 q 674 1226 674 1266 q 654 1149 674 1183 q 599 1096 634 1115 q 520 1077 564 1077 q 441 1096 476 1077 q 386 1149 406 1115 q 366 1226 366 1183 q 386 1303 366 1269 q 441 1357 406 1338 q 520 1376 476 1376 q 544 1374 529 1376 l 614 1461 l 799 1461 l 656 1299 m 520 1165 q 563 1181 547 1165 q 579 1226 579 1198 q 563 1271 579 1254 q 520 1288 547 1288 q 477 1271 494 1288 q 460 1226 460 1254 q 477 1181 460 1198 q 520 1165 493 1165 z "},"Ã":{"ha":1040,"x_min":6,"x_max":1034,"o":"m 773 0 l 699 253 l 338 253 l 265 0 l 6 0 l 325 1028 l 715 1028 l 1034 0 l 773 0 m 399 463 l 638 463 l 518 870 l 399 463 m 643 1112 q 578 1119 608 1112 q 507 1140 548 1126 q 443 1158 468 1152 q 390 1165 418 1165 q 314 1153 347 1165 q 245 1116 281 1142 l 245 1262 q 311 1301 275 1289 q 395 1314 347 1314 q 459 1307 430 1314 q 531 1285 488 1300 q 594 1266 569 1272 q 648 1260 620 1260 q 724 1271 691 1260 q 793 1308 758 1283 l 793 1163 q 728 1124 764 1136 q 643 1112 693 1112 z "},"Æ":{"ha":1433,"x_min":6,"x_max":1383,"o":"m 935 211 l 1383 211 l 1383 0 l 688 0 l 669 253 l 341 253 l 267 0 l 6 0 l 326 1028 l 1376 1028 l 1376 817 l 882 817 l 898 631 l 1304 631 l 1304 419 l 917 419 l 935 211 m 403 464 l 653 464 l 625 817 l 507 817 l 403 464 z "},"Ǽ":{"ha":1433,"x_min":6,"x_max":1383,"o":"m 935 211 l 1383 211 l 1383 0 l 688 0 l 669 253 l 341 253 l 267 0 l 6 0 l 326 1028 l 1376 1028 l 1376 817 l 882 817 l 898 631 l 1304 631 l 1304 419 l 917 419 l 935 211 m 403 464 l 653 464 l 625 817 l 507 817 l 403 464 m 619 1104 l 745 1319 l 1019 1319 l 854 1104 l 619 1104 z "},"B":{"ha":944,"x_min":83,"x_max":912,"o":"m 725 530 q 862 451 812 511 q 912 292 912 391 q 860 125 912 192 q 692 22 808 58 q 386 -13 576 -13 q 236 -7 321 -13 q 83 8 151 -1 l 83 1003 q 253 1031 159 1020 q 430 1041 347 1041 q 775 969 665 1041 q 884 751 884 898 q 841 611 884 671 q 725 530 798 552 m 465 849 q 343 838 404 849 l 343 623 l 471 623 q 597 650 560 623 q 635 736 635 678 q 618 801 635 776 q 565 838 601 826 q 465 849 528 849 m 459 179 q 583 192 538 179 q 648 232 628 206 q 667 303 667 259 q 626 397 667 367 q 493 426 586 426 l 343 426 l 343 184 q 459 179 395 179 z "},"C":{"ha":881,"x_min":53,"x_max":846,"o":"m 615 -14 q 195 115 338 -14 q 53 511 53 243 q 119 802 53 684 q 314 981 185 921 q 626 1042 442 1042 q 846 1019 742 1042 l 846 801 q 648 822 747 822 q 469 790 538 822 q 365 691 399 758 q 331 514 331 623 q 365 336 331 403 q 466 237 398 268 q 640 206 533 206 q 846 235 738 206 l 846 18 q 735 -5 797 3 q 615 -14 674 -14 z "},"Ć":{"ha":881,"x_min":53,"x_max":846,"o":"m 615 -14 q 195 115 338 -14 q 53 511 53 243 q 119 802 53 684 q 314 981 185 921 q 626 1042 442 1042 q 846 1019 742 1042 l 846 801 q 648 822 747 822 q 469 790 538 822 q 365 691 399 758 q 331 514 331 623 q 365 336 331 403 q 466 237 398 268 q 640 206 533 206 q 846 235 738 206 l 846 18 q 735 -5 797 3 q 615 -14 674 -14 m 415 1104 l 541 1319 l 815 1319 l 650 1104 l 415 1104 z "},"Č":{"ha":881,"x_min":53,"x_max":846,"o":"m 615 -14 q 195 115 338 -14 q 53 511 53 243 q 119 802 53 684 q 314 981 185 921 q 626 1042 442 1042 q 846 1019 742 1042 l 846 801 q 648 822 747 822 q 469 790 538 822 q 365 691 399 758 q 331 514 331 623 q 365 336 331 403 q 466 237 398 268 q 640 206 533 206 q 846 235 738 206 l 846 18 q 735 -5 797 3 q 615 -14 674 -14 m 630 1319 l 824 1319 l 644 1104 l 424 1104 l 244 1319 l 438 1319 l 534 1198 l 630 1319 z "},"Ç":{"ha":881,"x_min":53,"x_max":846,"o":"m 648 822 q 469 790 538 822 q 365 691 399 758 q 331 514 331 623 q 365 336 331 403 q 466 237 398 268 q 640 206 533 206 q 846 235 738 206 l 846 18 q 735 -5 797 3 q 615 -14 674 -14 q 580 -13 591 -14 l 580 -56 q 676 -97 644 -65 q 709 -181 709 -129 q 659 -279 709 -244 q 507 -314 608 -314 q 364 -292 432 -314 l 364 -197 q 429 -212 394 -206 q 494 -217 464 -217 q 555 -207 535 -217 q 575 -172 575 -196 q 554 -136 575 -147 q 493 -124 533 -124 l 458 -124 l 458 -2 q 156 157 258 31 q 53 511 53 284 q 119 802 53 684 q 314 981 185 921 q 626 1042 442 1042 q 846 1019 742 1042 l 846 801 q 648 822 747 822 z "},"Ḉ":{"ha":881,"x_min":53,"x_max":846,"o":"m 815 1319 l 650 1104 l 415 1104 l 541 1319 l 815 1319 m 648 822 q 469 790 538 822 q 365 691 399 758 q 331 514 331 623 q 365 336 331 403 q 466 237 398 268 q 640 206 533 206 q 846 235 738 206 l 846 18 q 735 -5 797 3 q 615 -14 674 -14 q 580 -13 591 -14 l 580 -56 q 676 -97 644 -65 q 709 -181 709 -129 q 659 -279 709 -244 q 507 -314 608 -314 q 364 -292 432 -314 l 364 -197 q 429 -212 394 -206 q 494 -217 464 -217 q 555 -207 535 -217 q 575 -172 575 -196 q 554 -136 575 -147 q 493 -124 533 -124 l 458 -124 l 458 -2 q 156 157 258 31 q 53 511 53 284 q 119 802 53 684 q 314 981 185 921 q 626 1042 442 1042 q 846 1019 742 1042 l 846 801 q 648 822 747 822 z "},"Ĉ":{"ha":881,"x_min":53,"x_max":846,"o":"m 615 -14 q 195 115 338 -14 q 53 511 53 243 q 119 802 53 684 q 314 981 185 921 q 626 1042 442 1042 q 846 1019 742 1042 l 846 801 q 648 822 747 822 q 469 790 538 822 q 365 691 399 758 q 331 514 331 623 q 365 336 331 403 q 466 237 398 268 q 640 206 533 206 q 846 235 738 206 l 846 18 q 735 -5 797 3 q 615 -14 674 -14 m 824 1104 l 630 1104 l 534 1226 l 438 1104 l 244 1104 l 424 1319 l 644 1319 l 824 1104 z "},"Ċ":{"ha":881,"x_min":53,"x_max":846,"o":"m 615 -14 q 195 115 338 -14 q 53 511 53 243 q 119 802 53 684 q 314 981 185 921 q 626 1042 442 1042 q 846 1019 742 1042 l 846 801 q 648 822 747 822 q 469 790 538 822 q 365 691 399 758 q 331 514 331 623 q 365 336 331 403 q 466 237 398 268 q 640 206 533 206 q 846 235 738 206 l 846 18 q 735 -5 797 3 q 615 -14 674 -14 m 534 1102 q 417 1132 456 1102 q 377 1215 377 1161 q 417 1300 377 1270 q 534 1329 456 1329 q 651 1300 611 1329 q 690 1215 690 1270 q 651 1132 690 1161 q 534 1102 611 1102 z "},"D":{"ha":1067,"x_min":83,"x_max":1014,"o":"m 379 -11 q 232 -7 310 -11 q 83 6 153 -3 l 83 1003 q 251 1030 160 1019 q 430 1040 343 1040 q 868 911 722 1040 q 1014 514 1014 782 q 944 214 1014 330 q 735 43 875 98 q 379 -11 594 -11 m 451 203 q 614 234 551 203 q 709 334 678 265 q 741 515 741 402 q 708 695 741 626 q 612 795 676 764 q 450 826 548 826 q 399 823 427 826 q 350 817 372 821 l 350 207 q 451 203 393 203 z "},"Ǳ":{"ha":1915,"x_min":83,"x_max":1874,"o":"m 379 -11 q 232 -7 310 -11 q 83 6 153 -3 l 83 1003 q 251 1030 160 1019 q 430 1040 343 1040 q 868 911 722 1040 q 1014 514 1014 782 q 944 214 1014 330 q 735 43 875 98 q 379 -11 594 -11 m 451 203 q 614 234 551 203 q 709 334 678 265 q 741 515 741 402 q 708 695 741 626 q 612 795 676 764 q 450 826 548 826 q 399 823 427 826 q 350 817 372 821 l 350 207 q 451 203 393 203 m 1417 219 l 1874 219 l 1874 0 l 1074 0 l 1074 146 l 1523 808 l 1081 808 l 1081 1028 l 1867 1028 l 1867 882 l 1417 219 z "},"Ǆ":{"ha":1915,"x_min":83,"x_max":1874,"o":"m 379 -11 q 232 -7 310 -11 q 83 6 153 -3 l 83 1003 q 251 1030 160 1019 q 430 1040 343 1040 q 868 911 722 1040 q 1014 514 1014 782 q 944 214 1014 330 q 735 43 875 98 q 379 -11 594 -11 m 451 203 q 614 234 551 203 q 709 334 678 265 q 741 515 741 402 q 708 695 741 626 q 612 795 676 764 q 450 826 548 826 q 399 823 427 826 q 350 817 372 821 l 350 207 q 451 203 393 203 m 1417 219 l 1874 219 l 1874 0 l 1074 0 l 1074 146 l 1523 808 l 1081 808 l 1081 1028 l 1867 1028 l 1867 882 l 1417 219 m 1571 1319 l 1765 1319 l 1585 1104 l 1365 1104 l 1185 1319 l 1378 1319 l 1475 1198 l 1571 1319 z "},"Ð":{"ha":1067,"x_min":3,"x_max":1014,"o":"m 430 1040 q 868 911 722 1040 q 1014 514 1014 782 q 944 214 1014 330 q 735 43 875 98 q 379 -11 594 -11 q 232 -7 310 -11 q 83 6 153 -3 l 83 446 l 3 446 l 3 613 l 83 613 l 83 1003 q 251 1030 160 1019 q 430 1040 343 1040 m 451 203 q 614 234 551 203 q 709 334 678 265 q 741 515 741 402 q 708 695 741 626 q 612 795 676 764 q 450 826 548 826 q 399 823 427 826 q 350 817 372 821 l 350 613 l 526 613 l 526 446 l 350 446 l 350 207 q 451 203 393 203 z "},"Ď":{"ha":1067,"x_min":83,"x_max":1014,"o":"m 379 -11 q 232 -7 310 -11 q 83 6 153 -3 l 83 1003 q 251 1030 160 1019 q 430 1040 343 1040 q 868 911 722 1040 q 1014 514 1014 782 q 944 214 1014 330 q 735 43 875 98 q 379 -11 594 -11 m 451 203 q 614 234 551 203 q 709 334 678 265 q 741 515 741 402 q 708 695 741 626 q 612 795 676 764 q 450 826 548 826 q 399 823 427 826 q 350 817 372 821 l 350 207 q 451 203 393 203 m 571 1319 l 765 1319 l 585 1104 l 365 1104 l 185 1319 l 378 1319 l 475 1198 l 571 1319 z "},"Đ":{"ha":1067,"x_min":3,"x_max":1014,"o":"m 430 1040 q 868 911 722 1040 q 1014 514 1014 782 q 944 214 1014 330 q 735 43 875 98 q 379 -11 594 -11 q 232 -7 310 -11 q 83 6 153 -3 l 83 446 l 3 446 l 3 613 l 83 613 l 83 1003 q 251 1030 160 1019 q 430 1040 343 1040 m 451 203 q 614 234 551 203 q 709 334 678 265 q 741 515 741 402 q 708 695 741 626 q 612 795 676 764 q 450 826 548 826 q 399 823 427 826 q 350 817 372 821 l 350 613 l 526 613 l 526 446 l 350 446 l 350 207 q 451 203 393 203 z "},"Ḍ":{"ha":1067,"x_min":83,"x_max":1014,"o":"m 379 -11 q 232 -7 310 -11 q 83 6 153 -3 l 83 1003 q 251 1030 160 1019 q 430 1040 343 1040 q 868 911 722 1040 q 1014 514 1014 782 q 944 214 1014 330 q 735 43 875 98 q 379 -11 594 -11 m 451 203 q 614 234 551 203 q 709 334 678 265 q 741 515 741 402 q 708 695 741 626 q 612 795 676 764 q 450 826 548 826 q 399 823 427 826 q 350 817 372 821 l 350 207 q 451 203 393 203 m 487 -308 q 369 -278 409 -308 q 330 -194 330 -248 q 369 -110 330 -140 q 487 -80 409 -80 q 603 -110 564 -80 q 643 -194 643 -140 q 603 -278 643 -248 q 487 -308 564 -308 z "},"Ḏ":{"ha":1067,"x_min":83,"x_max":1014,"o":"m 379 -11 q 232 -7 310 -11 q 83 6 153 -3 l 83 1003 q 251 1030 160 1019 q 430 1040 343 1040 q 868 911 722 1040 q 1014 514 1014 782 q 944 214 1014 330 q 735 43 875 98 q 379 -11 594 -11 m 451 203 q 614 234 551 203 q 709 334 678 265 q 741 515 741 402 q 708 695 741 626 q 612 795 676 764 q 450 826 548 826 q 399 823 427 826 q 350 817 372 821 l 350 207 q 451 203 393 203 m 215 -264 l 215 -110 l 758 -110 l 758 -264 l 215 -264 z "},"ǲ":{"ha":1794,"x_min":83,"x_max":1760,"o":"m 379 -11 q 232 -7 310 -11 q 83 6 153 -3 l 83 1003 q 251 1030 160 1019 q 430 1040 343 1040 q 868 911 722 1040 q 1014 514 1014 782 q 944 214 1014 330 q 735 43 875 98 q 379 -11 594 -11 m 451 203 q 614 234 551 203 q 709 334 678 265 q 741 515 741 402 q 708 695 741 626 q 612 795 676 764 q 450 826 548 826 q 399 823 427 826 q 350 817 372 821 l 350 207 q 451 203 393 203 m 1435 204 l 1760 204 l 1760 0 l 1113 0 l 1113 166 l 1431 558 l 1120 558 l 1120 762 l 1753 762 l 1753 597 l 1435 204 z "},"ǅ":{"ha":1794,"x_min":83,"x_max":1760,"o":"m 379 -11 q 232 -7 310 -11 q 83 6 153 -3 l 83 1003 q 251 1030 160 1019 q 430 1040 343 1040 q 868 911 722 1040 q 1014 514 1014 782 q 944 214 1014 330 q 735 43 875 98 q 379 -11 594 -11 m 451 203 q 614 234 551 203 q 709 334 678 265 q 741 515 741 402 q 708 695 741 626 q 612 795 676 764 q 450 826 548 826 q 399 823 427 826 q 350 817 372 821 l 350 207 q 451 203 393 203 m 1435 204 l 1760 204 l 1760 0 l 1113 0 l 1113 166 l 1431 558 l 1120 558 l 1120 762 l 1753 762 l 1753 597 l 1435 204 m 1533 1097 l 1726 1097 l 1547 882 l 1327 882 l 1147 1097 l 1340 1097 l 1437 976 l 1533 1097 z "},"E":{"ha":893,"x_min":83,"x_max":843,"o":"m 347 211 l 843 211 l 843 0 l 83 0 l 83 1028 l 836 1028 l 836 817 l 347 817 l 347 631 l 765 631 l 765 419 l 347 419 l 347 211 z "},"É":{"ha":893,"x_min":83,"x_max":843,"o":"m 347 211 l 843 211 l 843 0 l 83 0 l 83 1028 l 836 1028 l 836 817 l 347 817 l 347 631 l 765 631 l 765 419 l 347 419 l 347 211 m 356 1104 l 482 1319 l 756 1319 l 591 1104 l 356 1104 z "},"Ĕ":{"ha":893,"x_min":83,"x_max":843,"o":"m 347 211 l 843 211 l 843 0 l 83 0 l 83 1028 l 836 1028 l 836 817 l 347 817 l 347 631 l 765 631 l 765 419 l 347 419 l 347 211 m 475 1106 q 276 1162 347 1106 q 193 1317 206 1218 l 350 1317 q 389 1251 358 1273 q 475 1229 419 1229 q 561 1251 531 1229 q 599 1317 591 1273 l 756 1317 q 673 1162 744 1218 q 475 1106 602 1106 z "},"Ě":{"ha":893,"x_min":83,"x_max":843,"o":"m 347 211 l 843 211 l 843 0 l 83 0 l 83 1028 l 836 1028 l 836 817 l 347 817 l 347 631 l 765 631 l 765 419 l 347 419 l 347 211 m 571 1319 l 765 1319 l 585 1104 l 365 1104 l 185 1319 l 378 1319 l 475 1198 l 571 1319 z "},"Ḝ":{"ha":893,"x_min":83,"x_max":843,"o":"m 475 1106 q 276 1162 347 1106 q 193 1317 206 1218 l 350 1317 q 389 1251 358 1273 q 475 1229 419 1229 q 561 1251 531 1229 q 599 1317 591 1273 l 756 1317 q 673 1162 744 1218 q 475 1106 602 1106 m 519 0 l 519 -56 q 616 -97 583 -65 q 649 -181 649 -129 q 598 -279 649 -244 q 447 -314 548 -314 q 303 -292 372 -314 l 303 -197 q 368 -212 333 -206 q 433 -217 403 -217 q 494 -207 474 -217 q 515 -172 515 -196 q 494 -136 515 -147 q 433 -124 473 -124 l 398 -124 l 398 0 l 83 0 l 83 1028 l 836 1028 l 836 817 l 347 817 l 347 631 l 765 631 l 765 419 l 347 419 l 347 211 l 843 211 l 843 0 l 519 0 z "},"Ê":{"ha":893,"x_min":83,"x_max":843,"o":"m 347 211 l 843 211 l 843 0 l 83 0 l 83 1028 l 836 1028 l 836 817 l 347 817 l 347 631 l 765 631 l 765 419 l 347 419 l 347 211 m 765 1104 l 571 1104 l 475 1226 l 378 1104 l 185 1104 l 365 1319 l 585 1319 l 765 1104 z "},"Ế":{"ha":893,"x_min":83,"x_max":901,"o":"m 347 211 l 843 211 l 843 0 l 83 0 l 83 1028 l 836 1028 l 836 817 l 347 817 l 347 631 l 765 631 l 765 419 l 347 419 l 347 211 m 728 1433 l 901 1433 l 792 1266 l 654 1266 l 728 1433 m 365 1293 l 585 1293 l 765 1104 l 571 1104 l 475 1212 l 378 1104 l 185 1104 l 365 1293 z "},"Ệ":{"ha":893,"x_min":83,"x_max":843,"o":"m 347 211 l 843 211 l 843 0 l 83 0 l 83 1028 l 836 1028 l 836 817 l 347 817 l 347 631 l 765 631 l 765 419 l 347 419 l 347 211 m 475 -308 q 358 -278 397 -308 q 318 -194 318 -248 q 358 -110 318 -140 q 475 -80 397 -80 q 592 -110 552 -80 q 631 -194 631 -140 q 592 -278 631 -248 q 475 -308 552 -308 m 765 1104 l 571 1104 l 475 1226 l 378 1104 l 185 1104 l 365 1319 l 585 1319 l 765 1104 z "},"Ề":{"ha":893,"x_min":83,"x_max":843,"o":"m 347 211 l 843 211 l 843 0 l 83 0 l 83 1028 l 836 1028 l 836 817 l 347 817 l 347 631 l 765 631 l 765 419 l 347 419 l 347 211 m 818 1266 l 680 1266 l 572 1433 l 744 1433 l 818 1266 m 365 1293 l 585 1293 l 765 1104 l 571 1104 l 475 1212 l 378 1104 l 185 1104 l 365 1293 z "},"Ể":{"ha":893,"x_min":83,"x_max":903,"o":"m 347 211 l 843 211 l 843 0 l 83 0 l 83 1028 l 836 1028 l 836 817 l 347 817 l 347 631 l 765 631 l 765 419 l 347 419 l 347 211 m 715 1469 q 858 1448 812 1469 q 903 1383 903 1426 q 886 1342 903 1358 q 833 1310 868 1327 q 795 1289 808 1298 q 781 1266 783 1279 l 653 1266 q 675 1309 656 1294 q 731 1339 695 1324 q 760 1353 751 1348 q 769 1367 769 1359 q 694 1388 769 1388 q 562 1374 628 1388 l 562 1453 q 635 1465 592 1460 q 715 1469 678 1469 m 365 1293 l 585 1293 l 765 1104 l 571 1104 l 475 1212 l 378 1104 l 185 1104 l 365 1293 z "},"Ễ":{"ha":893,"x_min":83,"x_max":843,"o":"m 347 211 l 843 211 l 843 0 l 83 0 l 83 1028 l 836 1028 l 836 817 l 347 817 l 347 631 l 765 631 l 765 419 l 347 419 l 347 211 m 601 1428 q 681 1438 644 1428 q 765 1474 717 1448 l 765 1366 q 686 1332 724 1340 q 599 1323 649 1323 q 532 1328 564 1323 q 459 1345 501 1334 q 398 1359 422 1355 q 348 1364 373 1364 q 269 1353 305 1364 q 185 1317 233 1343 l 185 1425 q 263 1460 226 1451 q 351 1469 301 1469 q 416 1464 385 1469 q 490 1447 447 1458 q 552 1432 527 1437 q 601 1428 576 1428 m 365 1293 l 585 1293 l 765 1104 l 571 1104 l 475 1212 l 378 1104 l 185 1104 l 365 1293 z "},"Ȅ":{"ha":893,"x_min":83,"x_max":843,"o":"m 347 211 l 843 211 l 843 0 l 83 0 l 83 1028 l 836 1028 l 836 817 l 347 817 l 347 631 l 765 631 l 765 419 l 347 419 l 347 211 m 230 1104 l 120 1319 l 324 1319 l 421 1104 l 230 1104 m 528 1104 l 419 1319 l 623 1319 l 719 1104 l 528 1104 z "},"Ë":{"ha":893,"x_min":83,"x_max":843,"o":"m 347 211 l 843 211 l 843 0 l 83 0 l 83 1028 l 836 1028 l 836 817 l 347 817 l 347 631 l 765 631 l 765 419 l 347 419 l 347 211 m 290 1102 q 189 1132 223 1102 q 154 1215 154 1161 q 189 1300 154 1270 q 290 1329 223 1329 q 392 1300 358 1329 q 427 1215 427 1270 q 392 1132 427 1161 q 290 1102 358 1102 m 659 1102 q 557 1132 592 1102 q 522 1215 522 1161 q 557 1300 522 1270 q 659 1329 592 1329 q 761 1300 726 1329 q 795 1215 795 1270 q 761 1132 795 1161 q 659 1102 726 1102 z "},"Ė":{"ha":893,"x_min":83,"x_max":843,"o":"m 347 211 l 843 211 l 843 0 l 83 0 l 83 1028 l 836 1028 l 836 817 l 347 817 l 347 631 l 765 631 l 765 419 l 347 419 l 347 211 m 475 1102 q 358 1132 397 1102 q 318 1215 318 1161 q 358 1300 318 1270 q 475 1329 397 1329 q 592 1300 552 1329 q 631 1215 631 1270 q 592 1132 631 1161 q 475 1102 552 1102 z "},"Ẹ":{"ha":893,"x_min":83,"x_max":843,"o":"m 347 211 l 843 211 l 843 0 l 83 0 l 83 1028 l 836 1028 l 836 817 l 347 817 l 347 631 l 765 631 l 765 419 l 347 419 l 347 211 m 475 -308 q 358 -278 397 -308 q 318 -194 318 -248 q 358 -110 318 -140 q 475 -80 397 -80 q 592 -110 552 -80 q 631 -194 631 -140 q 592 -278 631 -248 q 475 -308 552 -308 z "},"È":{"ha":893,"x_min":83,"x_max":843,"o":"m 347 211 l 843 211 l 843 0 l 83 0 l 83 1028 l 836 1028 l 836 817 l 347 817 l 347 631 l 765 631 l 765 419 l 347 419 l 347 211 m 357 1104 l 192 1319 l 466 1319 l 592 1104 l 357 1104 z "},"Ẻ":{"ha":893,"x_min":83,"x_max":843,"o":"m 347 211 l 843 211 l 843 0 l 83 0 l 83 1028 l 836 1028 l 836 817 l 347 817 l 347 631 l 765 631 l 765 419 l 347 419 l 347 211 m 411 1104 q 433 1153 413 1135 q 488 1188 453 1171 q 517 1203 508 1197 q 526 1218 526 1210 q 509 1236 526 1231 q 452 1242 491 1242 q 319 1226 384 1242 l 319 1319 q 392 1332 349 1327 q 472 1336 435 1336 q 615 1312 569 1336 q 661 1238 661 1288 q 643 1191 661 1208 q 591 1154 625 1174 q 553 1129 565 1140 q 538 1104 540 1119 l 411 1104 z "},"Ȇ":{"ha":893,"x_min":83,"x_max":843,"o":"m 347 211 l 843 211 l 843 0 l 83 0 l 83 1028 l 836 1028 l 836 817 l 347 817 l 347 631 l 765 631 l 765 419 l 347 419 l 347 211 m 193 1107 q 276 1262 206 1206 q 474 1318 347 1318 q 673 1262 602 1318 q 756 1107 744 1206 l 599 1107 q 561 1173 591 1151 q 474 1194 531 1194 q 389 1173 419 1194 q 350 1107 358 1151 l 193 1107 z "},"Ē":{"ha":893,"x_min":83,"x_max":843,"o":"m 347 211 l 843 211 l 843 0 l 83 0 l 83 1028 l 836 1028 l 836 817 l 347 817 l 347 631 l 765 631 l 765 419 l 347 419 l 347 211 m 203 1135 l 203 1290 l 746 1290 l 746 1135 l 203 1135 z "},"Ḗ":{"ha":893,"x_min":83,"x_max":843,"o":"m 347 211 l 843 211 l 843 0 l 83 0 l 83 1028 l 836 1028 l 836 817 l 347 817 l 347 631 l 765 631 l 765 419 l 347 419 l 347 211 m 343 1369 l 469 1531 l 772 1531 l 607 1369 l 343 1369 m 203 1135 l 203 1290 l 746 1290 l 746 1135 l 203 1135 z "},"Ḕ":{"ha":893,"x_min":83,"x_max":843,"o":"m 347 211 l 843 211 l 843 0 l 83 0 l 83 1028 l 836 1028 l 836 817 l 347 817 l 347 631 l 765 631 l 765 419 l 347 419 l 347 211 m 343 1369 l 178 1531 l 481 1531 l 606 1369 l 343 1369 m 203 1135 l 203 1290 l 746 1290 l 746 1135 l 203 1135 z "},"Ę":{"ha":893,"x_min":83,"x_max":843,"o":"m 781 0 q 652 -68 689 -33 q 616 -145 616 -103 q 713 -213 616 -213 q 807 -194 754 -213 l 807 -292 q 676 -314 746 -314 q 521 -274 573 -314 q 469 -163 469 -234 q 495 -74 469 -114 q 581 0 522 -33 l 83 0 l 83 1028 l 836 1028 l 836 817 l 347 817 l 347 631 l 765 631 l 765 419 l 347 419 l 347 211 l 843 211 l 843 0 l 781 0 z "},"Ẽ":{"ha":893,"x_min":83,"x_max":843,"o":"m 347 211 l 843 211 l 843 0 l 83 0 l 83 1028 l 836 1028 l 836 817 l 347 817 l 347 631 l 765 631 l 765 419 l 347 419 l 347 211 m 599 1112 q 534 1119 564 1112 q 463 1140 503 1126 q 399 1158 424 1152 q 346 1165 374 1165 q 269 1153 303 1165 q 201 1116 236 1142 l 201 1262 q 266 1301 231 1289 q 351 1314 302 1314 q 415 1307 385 1314 q 487 1285 444 1300 q 550 1266 524 1272 q 603 1260 576 1260 q 680 1271 647 1260 q 749 1308 713 1283 l 749 1163 q 684 1124 719 1136 q 599 1112 649 1112 z "},"F":{"ha":865,"x_min":83,"x_max":835,"o":"m 835 813 l 350 813 l 350 603 l 763 603 l 763 388 l 350 388 l 350 0 l 83 0 l 83 1028 l 835 1028 l 835 813 z "},"G":{"ha":1010,"x_min":53,"x_max":928,"o":"m 928 500 l 928 10 q 662 -13 783 -13 q 204 117 356 -13 q 53 511 53 247 q 208 907 53 772 q 665 1042 363 1042 q 897 1017 786 1042 l 897 799 q 689 822 794 822 q 483 790 561 822 q 367 689 404 758 q 331 507 330 619 q 407 278 331 351 q 640 204 483 204 q 681 205 667 204 l 681 500 l 928 500 z "},"Ǵ":{"ha":1010,"x_min":53,"x_max":928,"o":"m 928 500 l 928 10 q 662 -13 783 -13 q 204 117 356 -13 q 53 511 53 247 q 208 907 53 772 q 665 1042 363 1042 q 897 1017 786 1042 l 897 799 q 689 822 794 822 q 483 790 561 822 q 367 689 404 758 q 331 507 330 619 q 407 278 331 351 q 640 204 483 204 q 681 205 667 204 l 681 500 l 928 500 m 455 1104 l 581 1319 l 854 1319 l 690 1104 l 455 1104 z "},"Ğ":{"ha":1010,"x_min":53,"x_max":928,"o":"m 928 500 l 928 10 q 662 -13 783 -13 q 204 117 356 -13 q 53 511 53 247 q 208 907 53 772 q 665 1042 363 1042 q 897 1017 786 1042 l 897 799 q 689 822 794 822 q 483 790 561 822 q 367 689 404 758 q 331 507 330 619 q 407 278 331 351 q 640 204 483 204 q 681 205 667 204 l 681 500 l 928 500 m 574 1106 q 375 1162 446 1106 q 292 1317 304 1218 l 449 1317 q 487 1251 457 1273 q 574 1229 517 1229 q 659 1251 629 1229 q 698 1317 690 1273 l 855 1317 q 772 1162 842 1218 q 574 1106 701 1106 z "},"Ǧ":{"ha":1010,"x_min":53,"x_max":928,"o":"m 928 500 l 928 10 q 662 -13 783 -13 q 204 117 356 -13 q 53 511 53 247 q 208 907 53 772 q 665 1042 363 1042 q 897 1017 786 1042 l 897 799 q 689 822 794 822 q 483 790 561 822 q 367 689 404 758 q 331 507 330 619 q 407 278 331 351 q 640 204 483 204 q 681 205 667 204 l 681 500 l 928 500 m 669 1319 l 863 1319 l 683 1104 l 464 1104 l 283 1319 l 477 1319 l 574 1198 l 669 1319 z "},"Ĝ":{"ha":1010,"x_min":53,"x_max":928,"o":"m 928 500 l 928 10 q 662 -13 783 -13 q 204 117 356 -13 q 53 511 53 247 q 208 907 53 772 q 665 1042 363 1042 q 897 1017 786 1042 l 897 799 q 689 822 794 822 q 483 790 561 822 q 367 689 404 758 q 331 507 330 619 q 407 278 331 351 q 640 204 483 204 q 681 205 667 204 l 681 500 l 928 500 m 863 1104 l 669 1104 l 574 1226 l 477 1104 l 283 1104 l 464 1319 l 683 1319 l 863 1104 z "},"Ģ":{"ha":1010,"x_min":53,"x_max":928,"o":"m 928 500 l 928 10 q 662 -13 783 -13 q 204 117 356 -13 q 53 511 53 247 q 208 907 53 772 q 665 1042 363 1042 q 897 1017 786 1042 l 897 799 q 689 822 794 822 q 483 790 561 822 q 367 689 404 758 q 331 507 330 619 q 407 278 331 351 q 640 204 483 204 q 681 205 667 204 l 681 500 l 928 500 m 573 -80 q 716 -194 716 -80 q 699 -277 716 -233 q 656 -353 683 -322 l 495 -353 q 537 -251 528 -293 q 431 -166 431 -240 q 573 -80 431 -80 z "},"Ġ":{"ha":1010,"x_min":53,"x_max":928,"o":"m 928 500 l 928 10 q 662 -13 783 -13 q 204 117 356 -13 q 53 511 53 247 q 208 907 53 772 q 665 1042 363 1042 q 897 1017 786 1042 l 897 799 q 689 822 794 822 q 483 790 561 822 q 367 689 404 758 q 331 507 330 619 q 407 278 331 351 q 640 204 483 204 q 681 205 667 204 l 681 500 l 928 500 m 574 1102 q 456 1132 496 1102 q 417 1215 417 1161 q 456 1300 417 1270 q 574 1329 496 1329 q 690 1300 651 1329 q 730 1215 730 1270 q 690 1132 730 1161 q 574 1102 651 1102 z "},"Ḡ":{"ha":1010,"x_min":53,"x_max":928,"o":"m 928 500 l 928 10 q 662 -13 783 -13 q 204 117 356 -13 q 53 511 53 247 q 208 907 53 772 q 665 1042 363 1042 q 897 1017 786 1042 l 897 799 q 689 822 794 822 q 483 790 561 822 q 367 689 404 758 q 331 507 330 619 q 407 278 331 351 q 640 204 483 204 q 681 205 667 204 l 681 500 l 928 500 m 302 1135 l 302 1290 l 844 1290 l 844 1135 l 302 1135 z "},"H":{"ha":1080,"x_min":83,"x_max":997,"o":"m 83 0 l 83 1028 l 350 1028 l 350 642 l 730 642 l 730 1028 l 997 1028 l 997 0 l 730 0 l 730 408 l 350 408 l 350 0 l 83 0 z "},"Ħ":{"ha":1080,"x_min":2,"x_max":1077,"o":"m 1077 915 l 1077 753 l 997 753 l 997 0 l 730 0 l 730 408 l 350 408 l 350 0 l 83 0 l 83 753 l 2 753 l 2 915 l 83 915 l 83 1028 l 350 1028 l 350 915 l 730 915 l 730 1028 l 997 1028 l 997 915 l 1077 915 m 730 642 l 730 753 l 350 753 l 350 642 l 730 642 z "},"Ḫ":{"ha":1080,"x_min":83,"x_max":997,"o":"m 83 0 l 83 1028 l 350 1028 l 350 642 l 730 642 l 730 1028 l 997 1028 l 997 0 l 730 0 l 730 408 l 350 408 l 350 0 l 83 0 m 540 -308 q 341 -252 413 -308 q 258 -96 270 -195 l 415 -96 q 453 -162 423 -140 q 540 -185 484 -185 q 627 -162 597 -185 q 665 -96 657 -140 l 822 -96 q 739 -252 810 -195 q 540 -308 668 -308 z "},"Ĥ":{"ha":1080,"x_min":83,"x_max":997,"o":"m 83 0 l 83 1028 l 350 1028 l 350 642 l 730 642 l 730 1028 l 997 1028 l 997 0 l 730 0 l 730 408 l 350 408 l 350 0 l 83 0 m 830 1104 l 636 1104 l 540 1226 l 444 1104 l 250 1104 l 431 1319 l 650 1319 l 830 1104 z "},"Ḥ":{"ha":1080,"x_min":83,"x_max":997,"o":"m 83 0 l 83 1028 l 350 1028 l 350 642 l 730 642 l 730 1028 l 997 1028 l 997 0 l 730 0 l 730 408 l 350 408 l 350 0 l 83 0 m 540 -308 q 423 -278 463 -308 q 383 -194 383 -248 q 423 -110 383 -140 q 540 -80 463 -80 q 657 -110 617 -80 q 697 -194 697 -140 q 657 -278 697 -248 q 540 -308 617 -308 z "},"I":{"ha":433,"x_min":83,"x_max":350,"o":"m 83 0 l 83 1028 l 350 1028 l 350 0 l 83 0 z "},"Í":{"ha":433,"x_min":83,"x_max":497,"o":"m 83 0 l 83 1028 l 350 1028 l 350 0 l 83 0 m 98 1104 l 224 1319 l 497 1319 l 333 1104 l 98 1104 z "},"Ĭ":{"ha":433,"x_min":-65,"x_max":498,"o":"m 83 0 l 83 1028 l 350 1028 l 350 0 l 83 0 m 217 1106 q 18 1162 89 1106 q -65 1317 -53 1218 l 92 1317 q 130 1251 100 1273 q 217 1229 160 1229 q 302 1251 272 1229 q 341 1317 333 1273 l 498 1317 q 415 1162 485 1218 q 217 1106 344 1106 z "},"Î":{"ha":433,"x_min":-74,"x_max":506,"o":"m 83 0 l 83 1028 l 350 1028 l 350 0 l 83 0 m 506 1104 l 313 1104 l 217 1226 l 120 1104 l -74 1104 l 107 1319 l 326 1319 l 506 1104 z "},"Ȉ":{"ha":433,"x_min":-138,"x_max":461,"o":"m 83 0 l 83 1028 l 350 1028 l 350 0 l 83 0 m -28 1104 l -138 1319 l 66 1319 l 163 1104 l -28 1104 m 270 1104 l 160 1319 l 365 1319 l 461 1104 l 270 1104 z "},"Ï":{"ha":433,"x_min":-104,"x_max":537,"o":"m 83 0 l 83 1028 l 350 1028 l 350 0 l 83 0 m 32 1102 q -70 1132 -35 1102 q -104 1215 -104 1161 q -70 1300 -104 1270 q 32 1329 -35 1329 q 134 1300 99 1329 q 169 1215 169 1270 q 134 1132 169 1161 q 32 1102 99 1102 m 401 1102 q 299 1132 333 1102 q 264 1215 264 1161 q 299 1300 264 1270 q 401 1329 333 1329 q 502 1300 468 1329 q 537 1215 537 1270 q 502 1132 537 1161 q 401 1102 468 1102 z "},"Ḯ":{"ha":433,"x_min":-104,"x_max":537,"o":"m 83 0 l 83 1028 l 350 1028 l 350 0 l 83 0 m 85 1369 l 210 1531 l 513 1531 l 349 1369 l 85 1369 m 32 1102 q -70 1132 -35 1102 q -104 1215 -104 1161 q -70 1300 -104 1270 q 32 1329 -35 1329 q 134 1300 99 1329 q 169 1215 169 1270 q 134 1132 169 1161 q 32 1102 99 1102 m 401 1102 q 299 1132 333 1102 q 264 1215 264 1161 q 299 1300 264 1270 q 401 1329 333 1329 q 502 1300 468 1329 q 537 1215 537 1270 q 502 1132 537 1161 q 401 1102 468 1102 z "},"İ":{"ha":433,"x_min":60,"x_max":373,"o":"m 83 0 l 83 1028 l 350 1028 l 350 0 l 83 0 m 217 1102 q 99 1132 139 1102 q 60 1215 60 1161 q 99 1300 60 1270 q 217 1329 139 1329 q 333 1300 294 1329 q 373 1215 373 1270 q 333 1132 373 1161 q 217 1102 294 1102 z "},"Ị":{"ha":433,"x_min":59,"x_max":372,"o":"m 83 0 l 83 1028 l 350 1028 l 350 0 l 83 0 m 216 -308 q 99 -278 138 -308 q 59 -194 59 -248 q 99 -110 59 -140 q 216 -80 138 -80 q 333 -110 293 -80 q 372 -194 372 -140 q 333 -278 372 -248 q 216 -308 293 -308 z "},"Ì":{"ha":433,"x_min":-66,"x_max":350,"o":"m 83 0 l 83 1028 l 350 1028 l 350 0 l 83 0 m 99 1104 l -66 1319 l 208 1319 l 334 1104 l 99 1104 z "},"Ỉ":{"ha":433,"x_min":60,"x_max":403,"o":"m 83 0 l 83 1028 l 350 1028 l 350 0 l 83 0 m 153 1104 q 175 1153 155 1135 q 230 1188 195 1171 q 259 1203 249 1197 q 268 1218 268 1210 q 250 1236 268 1231 q 194 1242 233 1242 q 60 1226 126 1242 l 60 1319 q 133 1332 90 1327 q 214 1336 176 1336 q 357 1312 310 1336 q 403 1238 403 1288 q 385 1191 403 1208 q 333 1154 367 1174 q 294 1129 307 1140 q 280 1104 282 1119 l 153 1104 z "},"Ȋ":{"ha":433,"x_min":-65,"x_max":498,"o":"m 83 0 l 83 1028 l 350 1028 l 350 0 l 83 0 m -65 1107 q 18 1262 -53 1206 q 216 1318 89 1318 q 415 1262 344 1318 q 498 1107 485 1206 l 341 1107 q 302 1173 333 1151 q 216 1194 272 1194 q 130 1173 160 1194 q 92 1107 100 1151 l -65 1107 z "},"Ī":{"ha":433,"x_min":-55,"x_max":488,"o":"m 83 0 l 83 1028 l 350 1028 l 350 0 l 83 0 m -55 1135 l -55 1290 l 488 1290 l 488 1135 l -55 1135 z "},"Į":{"ha":433,"x_min":38,"x_max":376,"o":"m 281 -213 q 376 -194 323 -213 l 376 -292 q 244 -314 315 -314 q 90 -274 142 -314 q 38 -163 38 -234 q 64 -74 38 -114 q 149 0 90 -33 l 83 0 l 83 1028 l 350 1028 l 350 0 q 221 -68 258 -33 q 185 -145 185 -103 q 281 -213 185 -213 z "},"Ĩ":{"ha":433,"x_min":-58,"x_max":490,"o":"m 83 0 l 83 1028 l 350 1028 l 350 0 l 83 0 m 340 1112 q 275 1119 306 1112 q 204 1140 245 1126 q 140 1158 165 1152 q 88 1165 115 1165 q 11 1153 44 1165 q -58 1116 -22 1142 l -58 1262 q 8 1301 -28 1289 q 92 1314 44 1314 q 156 1307 127 1314 q 228 1285 185 1300 q 292 1266 266 1272 q 345 1260 317 1260 q 422 1271 388 1260 q 490 1308 455 1283 l 490 1163 q 426 1124 461 1136 q 340 1112 390 1112 z "},"J":{"ha":433,"x_min":-19,"x_max":350,"o":"m -19 -132 q 62 21 39 -56 q 85 209 85 98 l 85 1028 l 350 1028 l 350 216 q 303 -27 349 82 q 150 -244 258 -136 l -19 -132 z "},"Ĵ":{"ha":433,"x_min":-73,"x_max":507,"o":"m -19 -132 q 62 21 39 -56 q 85 209 85 98 l 85 1028 l 350 1028 l 350 216 q 303 -27 349 82 q 150 -244 258 -136 l -19 -132 m 507 1104 l 313 1104 l 217 1226 l 121 1104 l -73 1104 l 108 1319 l 327 1319 l 507 1104 z "},"K":{"ha":947,"x_min":83,"x_max":984,"o":"m 697 0 l 429 408 l 350 408 l 350 0 l 83 0 l 83 1028 l 350 1028 l 350 642 l 429 642 l 676 1028 l 954 1028 l 638 531 l 984 0 l 697 0 z "},"Ķ":{"ha":947,"x_min":83,"x_max":984,"o":"m 697 0 l 429 408 l 350 408 l 350 0 l 83 0 l 83 1028 l 350 1028 l 350 642 l 429 642 l 676 1028 l 954 1028 l 638 531 l 984 0 l 697 0 m 496 -80 q 639 -194 639 -80 q 622 -277 639 -233 q 579 -353 606 -322 l 418 -353 q 460 -251 451 -293 q 353 -166 353 -240 q 496 -80 353 -80 z "},"L":{"ha":817,"x_min":83,"x_max":810,"o":"m 83 0 l 83 1028 l 350 1028 l 350 220 l 810 220 l 810 0 l 83 0 z "},"Ǉ":{"ha":1250,"x_min":83,"x_max":1167,"o":"m 83 0 l 83 1028 l 350 1028 l 350 220 l 810 220 l 810 0 l 83 0 m 798 -132 q 878 21 856 -56 q 901 209 901 98 l 901 1028 l 1167 1028 l 1167 216 q 1120 -27 1165 82 q 967 -244 1075 -136 l 798 -132 z "},"Ĺ":{"ha":817,"x_min":83,"x_max":810,"o":"m 83 0 l 83 1028 l 350 1028 l 350 220 l 810 220 l 810 0 l 83 0 m 100 1104 l 226 1319 l 499 1319 l 335 1104 l 100 1104 z "},"Ľ":{"ha":817,"x_min":83,"x_max":810,"o":"m 83 0 l 83 1028 l 350 1028 l 350 220 l 810 220 l 810 0 l 83 0 m 519 792 q 536 945 531 871 q 540 1122 540 1019 l 711 1122 q 659 792 711 924 l 519 792 z "},"Ļ":{"ha":817,"x_min":83,"x_max":810,"o":"m 83 0 l 83 1028 l 350 1028 l 350 220 l 810 220 l 810 0 l 83 0 m 447 -80 q 590 -194 590 -80 q 573 -277 590 -233 q 530 -353 556 -322 l 369 -353 q 410 -251 401 -293 q 304 -166 304 -240 q 447 -80 304 -80 z "},"Ŀ":{"ha":817,"x_min":83,"x_max":810,"o":"m 83 0 l 83 1028 l 350 1028 l 350 220 l 810 220 l 810 0 l 83 0 m 619 488 q 499 522 538 488 q 460 620 460 556 q 499 718 460 684 q 619 751 538 751 q 738 718 699 751 q 777 620 777 684 q 738 522 777 556 q 619 488 699 488 z "},"Ḷ":{"ha":817,"x_min":83,"x_max":810,"o":"m 83 0 l 83 1028 l 350 1028 l 350 220 l 810 220 l 810 0 l 83 0 m 447 -308 q 330 -278 369 -308 q 290 -194 290 -248 q 330 -110 290 -140 q 447 -80 369 -80 q 564 -110 524 -80 q 603 -194 603 -140 q 564 -278 603 -248 q 447 -308 524 -308 z "},"ǈ":{"ha":1227,"x_min":83,"x_max":1176,"o":"m 83 0 l 83 1028 l 350 1028 l 350 220 l 810 220 l 810 0 l 83 0 m 788 -218 q 868 -65 846 -141 q 891 124 891 12 l 891 762 l 1153 762 l 1153 134 q 1108 -110 1153 -1 q 956 -329 1063 -219 l 788 -218 m 1019 854 q 899 888 938 854 q 860 986 860 922 q 899 1084 860 1050 q 1019 1117 938 1117 q 1138 1084 1099 1117 q 1176 986 1176 1050 q 1138 888 1176 922 q 1019 854 1099 854 z "},"Ḻ":{"ha":817,"x_min":83,"x_max":810,"o":"m 83 0 l 83 1028 l 350 1028 l 350 220 l 810 220 l 810 0 l 83 0 m 176 -264 l 176 -110 l 718 -110 l 718 -264 l 176 -264 z "},"Ł":{"ha":817,"x_min":-42,"x_max":810,"o":"m 350 220 l 810 220 l 810 0 l 83 0 l 83 422 l 33 395 l -42 545 l 83 610 l 83 1028 l 350 1028 l 350 747 l 533 842 l 609 692 l 350 558 l 350 220 z "},"M":{"ha":1333,"x_min":86,"x_max":1247,"o":"m 922 1028 l 1247 1028 l 1247 0 l 999 0 l 999 679 l 774 151 l 559 151 l 335 657 l 335 0 l 86 0 l 86 1028 l 412 1028 l 671 425 l 922 1028 z "},"Ṃ":{"ha":1333,"x_min":86,"x_max":1247,"o":"m 922 1028 l 1247 1028 l 1247 0 l 999 0 l 999 679 l 774 151 l 559 151 l 335 657 l 335 0 l 86 0 l 86 1028 l 412 1028 l 671 425 l 922 1028 m 684 -308 q 567 -278 606 -308 q 527 -194 527 -248 q 567 -110 527 -140 q 684 -80 606 -80 q 801 -110 761 -80 q 840 -194 840 -140 q 801 -278 840 -248 q 684 -308 761 -308 z "},"N":{"ha":1090,"x_min":83,"x_max":1006,"o":"m 756 1028 l 1006 1028 l 1006 0 l 740 0 l 333 629 l 333 0 l 83 0 l 83 1028 l 350 1028 l 756 399 l 756 1028 z "},"Ǌ":{"ha":1524,"x_min":83,"x_max":1440,"o":"m 756 1028 l 1006 1028 l 1006 0 l 740 0 l 333 629 l 333 0 l 83 0 l 83 1028 l 350 1028 l 756 399 l 756 1028 m 1072 -132 q 1152 21 1129 -56 q 1175 209 1175 98 l 1175 1028 l 1440 1028 l 1440 216 q 1394 -27 1439 82 q 1240 -244 1349 -136 l 1072 -132 z "},"Ń":{"ha":1090,"x_min":83,"x_max":1006,"o":"m 756 1028 l 1006 1028 l 1006 0 l 740 0 l 333 629 l 333 0 l 83 0 l 83 1028 l 350 1028 l 756 399 l 756 1028 m 426 1104 l 552 1319 l 826 1319 l 661 1104 l 426 1104 z "},"Ň":{"ha":1090,"x_min":83,"x_max":1006,"o":"m 756 1028 l 1006 1028 l 1006 0 l 740 0 l 333 629 l 333 0 l 83 0 l 83 1028 l 350 1028 l 756 399 l 756 1028 m 641 1319 l 835 1319 l 655 1104 l 435 1104 l 255 1319 l 449 1319 l 545 1198 l 641 1319 z "},"Ņ":{"ha":1090,"x_min":83,"x_max":1006,"o":"m 756 1028 l 1006 1028 l 1006 0 l 740 0 l 333 629 l 333 0 l 83 0 l 83 1028 l 350 1028 l 756 399 l 756 1028 m 544 -80 q 688 -194 688 -80 q 671 -277 688 -233 q 628 -353 654 -322 l 467 -353 q 508 -251 499 -293 q 402 -166 402 -240 q 544 -80 402 -80 z "},"Ṅ":{"ha":1090,"x_min":83,"x_max":1006,"o":"m 756 1028 l 1006 1028 l 1006 0 l 740 0 l 333 629 l 333 0 l 83 0 l 83 1028 l 350 1028 l 756 399 l 756 1028 m 545 1102 q 428 1132 467 1102 q 388 1215 388 1161 q 428 1300 388 1270 q 545 1329 467 1329 q 662 1300 622 1329 q 701 1215 701 1270 q 662 1132 701 1161 q 545 1102 622 1102 z "},"Ṇ":{"ha":1090,"x_min":83,"x_max":1006,"o":"m 756 1028 l 1006 1028 l 1006 0 l 740 0 l 333 629 l 333 0 l 83 0 l 83 1028 l 350 1028 l 756 399 l 756 1028 m 545 -308 q 428 -278 467 -308 q 388 -194 388 -248 q 428 -110 388 -140 q 545 -80 467 -80 q 662 -110 622 -80 q 701 -194 701 -140 q 662 -278 701 -248 q 545 -308 622 -308 z "},"Ŋ":{"ha":1090,"x_min":83,"x_max":1006,"o":"m 1006 1028 l 1006 158 q 987 -25 1006 56 q 925 -181 968 -107 q 809 -329 882 -254 l 642 -218 q 708 -115 683 -165 q 744 -8 733 -65 l 333 629 l 333 0 l 83 0 l 83 1028 l 350 1028 l 756 403 l 756 1028 l 1006 1028 z "},"ǋ":{"ha":1501,"x_min":83,"x_max":1450,"o":"m 756 1028 l 1006 1028 l 1006 0 l 740 0 l 333 629 l 333 0 l 83 0 l 83 1028 l 350 1028 l 756 399 l 756 1028 m 1061 -218 q 1142 -65 1119 -141 q 1165 124 1165 12 l 1165 762 l 1426 762 l 1426 134 q 1381 -110 1426 -1 q 1229 -329 1336 -219 l 1061 -218 m 1292 854 q 1173 888 1212 854 q 1134 986 1134 922 q 1173 1084 1134 1050 q 1292 1117 1212 1117 q 1411 1084 1372 1117 q 1450 986 1450 1050 q 1411 888 1450 922 q 1292 854 1372 854 z "},"Ṉ":{"ha":1090,"x_min":83,"x_max":1006,"o":"m 756 1028 l 1006 1028 l 1006 0 l 740 0 l 333 629 l 333 0 l 83 0 l 83 1028 l 350 1028 l 756 399 l 756 1028 m 274 -264 l 274 -110 l 816 -110 l 816 -264 l 274 -264 z "},"Ñ":{"ha":1090,"x_min":83,"x_max":1006,"o":"m 756 1028 l 1006 1028 l 1006 0 l 740 0 l 333 629 l 333 0 l 83 0 l 83 1028 l 350 1028 l 756 399 l 756 1028 m 669 1112 q 604 1119 634 1112 q 533 1140 574 1126 q 469 1158 494 1152 q 416 1165 444 1165 q 340 1153 373 1165 q 271 1116 306 1142 l 271 1262 q 336 1301 301 1289 q 421 1314 372 1314 q 485 1307 456 1314 q 557 1285 514 1300 q 620 1266 594 1272 q 674 1260 646 1260 q 750 1271 717 1260 q 819 1308 783 1283 l 819 1163 q 754 1124 790 1136 q 669 1112 719 1112 z "},"O":{"ha":1115,"x_min":53,"x_max":1063,"o":"m 558 -14 q 290 45 403 -14 q 115 222 176 104 q 53 514 53 340 q 115 806 53 688 q 290 983 176 924 q 558 1042 403 1042 q 826 983 713 1042 q 1001 805 940 924 q 1063 514 1063 687 q 1001 223 1063 341 q 826 45 940 105 q 558 -14 713 -14 m 558 200 q 731 275 672 200 q 790 509 790 349 q 731 751 790 675 q 558 828 672 828 q 385 753 444 828 q 326 519 326 679 q 384 276 326 351 q 558 200 443 200 z "},"Ó":{"ha":1115,"x_min":53,"x_max":1063,"o":"m 558 -14 q 290 45 403 -14 q 115 222 176 104 q 53 514 53 340 q 115 806 53 688 q 290 983 176 924 q 558 1042 403 1042 q 826 983 713 1042 q 1001 805 940 924 q 1063 514 1063 687 q 1001 223 1063 341 q 826 45 940 105 q 558 -14 713 -14 m 558 200 q 731 275 672 200 q 790 509 790 349 q 731 751 790 675 q 558 828 672 828 q 385 753 444 828 q 326 519 326 679 q 384 276 326 351 q 558 200 443 200 m 439 1104 l 565 1319 l 838 1319 l 674 1104 l 439 1104 z "},"Ŏ":{"ha":1115,"x_min":53,"x_max":1063,"o":"m 558 -14 q 290 45 403 -14 q 115 222 176 104 q 53 514 53 340 q 115 806 53 688 q 290 983 176 924 q 558 1042 403 1042 q 826 983 713 1042 q 1001 805 940 924 q 1063 514 1063 687 q 1001 223 1063 341 q 826 45 940 105 q 558 -14 713 -14 m 558 200 q 731 275 672 200 q 790 509 790 349 q 731 751 790 675 q 558 828 672 828 q 385 753 444 828 q 326 519 326 679 q 384 276 326 351 q 558 200 443 200 m 558 1106 q 359 1162 430 1106 q 276 1317 288 1218 l 433 1317 q 471 1251 441 1273 q 558 1229 501 1229 q 643 1251 613 1229 q 682 1317 674 1273 l 839 1317 q 756 1162 826 1218 q 558 1106 685 1106 z "},"Ô":{"ha":1115,"x_min":53,"x_max":1063,"o":"m 558 -14 q 290 45 403 -14 q 115 222 176 104 q 53 514 53 340 q 115 806 53 688 q 290 983 176 924 q 558 1042 403 1042 q 826 983 713 1042 q 1001 805 940 924 q 1063 514 1063 687 q 1001 223 1063 341 q 826 45 940 105 q 558 -14 713 -14 m 558 200 q 731 275 672 200 q 790 509 790 349 q 731 751 790 675 q 558 828 672 828 q 385 753 444 828 q 326 519 326 679 q 384 276 326 351 q 558 200 443 200 m 847 1104 l 653 1104 l 558 1226 l 461 1104 l 267 1104 l 448 1319 l 667 1319 l 847 1104 z "},"Ố":{"ha":1115,"x_min":53,"x_max":1063,"o":"m 558 -14 q 290 45 403 -14 q 115 222 176 104 q 53 514 53 340 q 115 806 53 688 q 290 983 176 924 q 558 1042 403 1042 q 826 983 713 1042 q 1001 805 940 924 q 1063 514 1063 687 q 1001 223 1063 341 q 826 45 940 105 q 558 -14 713 -14 m 558 200 q 731 275 672 200 q 790 509 790 349 q 731 751 790 675 q 558 828 672 828 q 385 753 444 828 q 326 519 326 679 q 384 276 326 351 q 558 200 443 200 m 811 1433 l 984 1433 l 875 1266 l 737 1266 l 811 1433 m 448 1293 l 667 1293 l 847 1104 l 653 1104 l 558 1212 l 461 1104 l 267 1104 l 448 1293 z "},"Ộ":{"ha":1115,"x_min":53,"x_max":1063,"o":"m 558 -14 q 290 45 403 -14 q 115 222 176 104 q 53 514 53 340 q 115 806 53 688 q 290 983 176 924 q 558 1042 403 1042 q 826 983 713 1042 q 1001 805 940 924 q 1063 514 1063 687 q 1001 223 1063 341 q 826 45 940 105 q 558 -14 713 -14 m 558 200 q 731 275 672 200 q 790 509 790 349 q 731 751 790 675 q 558 828 672 828 q 385 753 444 828 q 326 519 326 679 q 384 276 326 351 q 558 200 443 200 m 558 -308 q 440 -278 480 -308 q 401 -194 401 -248 q 440 -110 401 -140 q 558 -80 480 -80 q 674 -110 635 -80 q 714 -194 714 -140 q 674 -278 714 -248 q 558 -308 635 -308 m 847 1104 l 653 1104 l 558 1226 l 461 1104 l 267 1104 l 448 1319 l 667 1319 l 847 1104 z "},"Ồ":{"ha":1115,"x_min":53,"x_max":1063,"o":"m 558 -14 q 290 45 403 -14 q 115 222 176 104 q 53 514 53 340 q 115 806 53 688 q 290 983 176 924 q 558 1042 403 1042 q 826 983 713 1042 q 1001 805 940 924 q 1063 514 1063 687 q 1001 223 1063 341 q 826 45 940 105 q 558 -14 713 -14 m 558 200 q 731 275 672 200 q 790 509 790 349 q 731 751 790 675 q 558 828 672 828 q 385 753 444 828 q 326 519 326 679 q 384 276 326 351 q 558 200 443 200 m 901 1266 l 763 1266 l 654 1433 l 827 1433 l 901 1266 m 448 1293 l 667 1293 l 847 1104 l 653 1104 l 558 1212 l 461 1104 l 267 1104 l 448 1293 z "},"Ổ":{"ha":1115,"x_min":53,"x_max":1063,"o":"m 558 -14 q 290 45 403 -14 q 115 222 176 104 q 53 514 53 340 q 115 806 53 688 q 290 983 176 924 q 558 1042 403 1042 q 826 983 713 1042 q 1001 805 940 924 q 1063 514 1063 687 q 1001 223 1063 341 q 826 45 940 105 q 558 -14 713 -14 m 558 200 q 731 275 672 200 q 790 509 790 349 q 731 751 790 675 q 558 828 672 828 q 385 753 444 828 q 326 519 326 679 q 384 276 326 351 q 558 200 443 200 m 798 1469 q 940 1448 894 1469 q 986 1383 986 1426 q 968 1342 986 1358 q 916 1310 951 1327 q 878 1289 891 1298 q 863 1266 865 1279 l 736 1266 q 758 1309 738 1294 q 813 1339 778 1324 q 843 1353 834 1348 q 852 1367 852 1359 q 777 1388 852 1388 q 644 1374 711 1388 l 644 1453 q 717 1465 674 1460 q 798 1469 760 1469 m 448 1293 l 667 1293 l 847 1104 l 653 1104 l 558 1212 l 461 1104 l 267 1104 l 448 1293 z "},"Ỗ":{"ha":1115,"x_min":53,"x_max":1063,"o":"m 558 -14 q 290 45 403 -14 q 115 222 176 104 q 53 514 53 340 q 115 806 53 688 q 290 983 176 924 q 558 1042 403 1042 q 826 983 713 1042 q 1001 805 940 924 q 1063 514 1063 687 q 1001 223 1063 341 q 826 45 940 105 q 558 -14 713 -14 m 558 200 q 731 275 672 200 q 790 509 790 349 q 731 751 790 675 q 558 828 672 828 q 385 753 444 828 q 326 519 326 679 q 384 276 326 351 q 558 200 443 200 m 684 1428 q 763 1438 727 1428 q 847 1474 799 1448 l 847 1366 q 769 1332 806 1340 q 681 1323 732 1323 q 615 1328 647 1323 q 542 1345 583 1334 q 480 1359 505 1355 q 431 1364 456 1364 q 352 1353 388 1364 q 267 1317 316 1343 l 267 1425 q 346 1460 308 1451 q 433 1469 383 1469 q 499 1464 468 1469 q 573 1447 530 1458 q 634 1432 610 1437 q 684 1428 659 1428 m 448 1293 l 667 1293 l 847 1104 l 653 1104 l 558 1212 l 461 1104 l 267 1104 l 448 1293 z "},"Ȍ":{"ha":1115,"x_min":53,"x_max":1063,"o":"m 558 -14 q 290 45 403 -14 q 115 222 176 104 q 53 514 53 340 q 115 806 53 688 q 290 983 176 924 q 558 1042 403 1042 q 826 983 713 1042 q 1001 805 940 924 q 1063 514 1063 687 q 1001 223 1063 341 q 826 45 940 105 q 558 -14 713 -14 m 558 200 q 731 275 672 200 q 790 509 790 349 q 731 751 790 675 q 558 828 672 828 q 385 753 444 828 q 326 519 326 679 q 384 276 326 351 q 558 200 443 200 m 313 1104 l 203 1319 l 407 1319 l 503 1104 l 313 1104 m 611 1104 l 501 1319 l 706 1319 l 802 1104 l 611 1104 z "},"Ö":{"ha":1115,"x_min":53,"x_max":1063,"o":"m 558 -14 q 290 45 403 -14 q 115 222 176 104 q 53 514 53 340 q 115 806 53 688 q 290 983 176 924 q 558 1042 403 1042 q 826 983 713 1042 q 1001 805 940 924 q 1063 514 1063 687 q 1001 223 1063 341 q 826 45 940 105 q 558 -14 713 -14 m 558 200 q 731 275 672 200 q 790 509 790 349 q 731 751 790 675 q 558 828 672 828 q 385 753 444 828 q 326 519 326 679 q 384 276 326 351 q 558 200 443 200 m 373 1102 q 271 1132 306 1102 q 237 1215 237 1161 q 271 1300 237 1270 q 373 1329 306 1329 q 475 1300 440 1329 q 510 1215 510 1270 q 475 1132 510 1161 q 373 1102 440 1102 m 742 1102 q 640 1132 674 1102 q 605 1215 605 1161 q 640 1300 605 1270 q 742 1329 674 1329 q 843 1300 809 1329 q 878 1215 878 1270 q 843 1132 878 1161 q 742 1102 809 1102 z "},"Ȫ":{"ha":1115,"x_min":53,"x_max":1063,"o":"m 558 -14 q 290 45 403 -14 q 115 222 176 104 q 53 514 53 340 q 115 806 53 688 q 290 983 176 924 q 558 1042 403 1042 q 826 983 713 1042 q 1001 805 940 924 q 1063 514 1063 687 q 1001 223 1063 341 q 826 45 940 105 q 558 -14 713 -14 m 558 200 q 731 275 672 200 q 790 509 790 349 q 731 751 790 675 q 558 828 672 828 q 385 753 444 828 q 326 519 326 679 q 384 276 326 351 q 558 200 443 200 m 373 1102 q 271 1132 306 1102 q 237 1215 237 1161 q 271 1300 237 1270 q 373 1329 306 1329 q 475 1300 440 1329 q 510 1215 510 1270 q 475 1132 510 1161 q 373 1102 440 1102 m 742 1102 q 640 1132 674 1102 q 605 1215 605 1161 q 640 1300 605 1270 q 742 1329 674 1329 q 843 1300 809 1329 q 878 1215 878 1270 q 843 1132 878 1161 q 742 1102 809 1102 m 286 1397 l 286 1551 l 828 1551 l 828 1397 l 286 1397 z "},"Ȱ":{"ha":1115,"x_min":53,"x_max":1063,"o":"m 558 -14 q 290 45 403 -14 q 115 222 176 104 q 53 514 53 340 q 115 806 53 688 q 290 983 176 924 q 558 1042 403 1042 q 826 983 713 1042 q 1001 805 940 924 q 1063 514 1063 687 q 1001 223 1063 341 q 826 45 940 105 q 558 -14 713 -14 m 558 200 q 731 275 672 200 q 790 509 790 349 q 731 751 790 675 q 558 828 672 828 q 385 753 444 828 q 326 519 326 679 q 384 276 326 351 q 558 200 443 200 m 558 1102 q 440 1132 480 1102 q 401 1215 401 1161 q 440 1300 401 1270 q 558 1329 480 1329 q 674 1300 635 1329 q 714 1215 714 1270 q 674 1132 714 1161 q 558 1102 635 1102 m 286 1397 l 286 1551 l 828 1551 l 828 1397 l 286 1397 z "},"Ọ":{"ha":1115,"x_min":53,"x_max":1063,"o":"m 558 -14 q 290 45 403 -14 q 115 222 176 104 q 53 514 53 340 q 115 806 53 688 q 290 983 176 924 q 558 1042 403 1042 q 826 983 713 1042 q 1001 805 940 924 q 1063 514 1063 687 q 1001 223 1063 341 q 826 45 940 105 q 558 -14 713 -14 m 558 200 q 731 275 672 200 q 790 509 790 349 q 731 751 790 675 q 558 828 672 828 q 385 753 444 828 q 326 519 326 679 q 384 276 326 351 q 558 200 443 200 m 558 -308 q 440 -278 480 -308 q 401 -194 401 -248 q 440 -110 401 -140 q 558 -80 480 -80 q 674 -110 635 -80 q 714 -194 714 -140 q 674 -278 714 -248 q 558 -308 635 -308 z "},"Ò":{"ha":1115,"x_min":53,"x_max":1063,"o":"m 558 -14 q 290 45 403 -14 q 115 222 176 104 q 53 514 53 340 q 115 806 53 688 q 290 983 176 924 q 558 1042 403 1042 q 826 983 713 1042 q 1001 805 940 924 q 1063 514 1063 687 q 1001 223 1063 341 q 826 45 940 105 q 558 -14 713 -14 m 558 200 q 731 275 672 200 q 790 509 790 349 q 731 751 790 675 q 558 828 672 828 q 385 753 444 828 q 326 519 326 679 q 384 276 326 351 q 558 200 443 200 m 440 1104 l 275 1319 l 549 1319 l 675 1104 l 440 1104 z "},"Ỏ":{"ha":1115,"x_min":53,"x_max":1063,"o":"m 558 -14 q 290 45 403 -14 q 115 222 176 104 q 53 514 53 340 q 115 806 53 688 q 290 983 176 924 q 558 1042 403 1042 q 826 983 713 1042 q 1001 805 940 924 q 1063 514 1063 687 q 1001 223 1063 341 q 826 45 940 105 q 558 -14 713 -14 m 558 200 q 731 275 672 200 q 790 509 790 349 q 731 751 790 675 q 558 828 672 828 q 385 753 444 828 q 326 519 326 679 q 384 276 326 351 q 558 200 443 200 m 494 1104 q 516 1153 496 1135 q 571 1188 536 1171 q 600 1203 590 1197 q 609 1218 609 1210 q 591 1236 609 1231 q 535 1242 574 1242 q 401 1226 467 1242 l 401 1319 q 474 1332 431 1327 q 555 1336 517 1336 q 698 1312 651 1336 q 744 1238 744 1288 q 726 1191 744 1208 q 674 1154 708 1174 q 635 1129 648 1140 q 621 1104 623 1119 l 494 1104 z "},"Ơ":{"ha":1115,"x_min":53,"x_max":1074,"o":"m 918 917 q 1026 749 989 851 q 1063 514 1063 648 q 1002 222 1063 340 q 827 45 940 104 q 558 -14 713 -14 q 289 45 402 -14 q 114 222 176 104 q 53 514 53 340 q 115 806 53 688 q 290 983 176 924 q 558 1042 403 1042 q 631 1038 594 1042 q 674 1034 667 1035 q 769 1027 740 1027 q 867 1052 835 1027 q 898 1136 898 1077 q 888 1233 898 1179 l 1060 1233 q 1074 1125 1074 1185 q 1033 985 1074 1037 q 918 917 992 933 m 558 200 q 731 275 672 200 q 790 509 790 349 q 731 751 790 675 q 558 828 672 828 q 385 753 444 828 q 326 519 326 679 q 384 276 326 351 q 558 200 443 200 z "},"Ớ":{"ha":1115,"x_min":53,"x_max":1074,"o":"m 918 917 q 1026 749 989 851 q 1063 514 1063 648 q 1002 222 1063 340 q 827 45 940 104 q 558 -14 713 -14 q 289 45 402 -14 q 114 222 176 104 q 53 514 53 340 q 115 806 53 688 q 290 983 176 924 q 558 1042 403 1042 q 631 1038 594 1042 q 674 1034 667 1035 q 769 1027 740 1027 q 867 1052 835 1027 q 898 1136 898 1077 q 888 1233 898 1179 l 1060 1233 q 1074 1125 1074 1185 q 1033 985 1074 1037 q 918 917 992 933 m 558 200 q 731 275 672 200 q 790 509 790 349 q 731 751 790 675 q 558 828 672 828 q 385 753 444 828 q 326 519 326 679 q 384 276 326 351 q 558 200 443 200 m 439 1104 l 565 1319 l 838 1319 l 674 1104 l 439 1104 z "},"Ợ":{"ha":1115,"x_min":53,"x_max":1074,"o":"m 918 917 q 1026 749 989 851 q 1063 514 1063 648 q 1002 222 1063 340 q 827 45 940 104 q 558 -14 713 -14 q 289 45 402 -14 q 114 222 176 104 q 53 514 53 340 q 115 806 53 688 q 290 983 176 924 q 558 1042 403 1042 q 631 1038 594 1042 q 674 1034 667 1035 q 769 1027 740 1027 q 867 1052 835 1027 q 898 1136 898 1077 q 888 1233 898 1179 l 1060 1233 q 1074 1125 1074 1185 q 1033 985 1074 1037 q 918 917 992 933 m 558 200 q 731 275 672 200 q 790 509 790 349 q 731 751 790 675 q 558 828 672 828 q 385 753 444 828 q 326 519 326 679 q 384 276 326 351 q 558 200 443 200 m 558 -308 q 440 -278 480 -308 q 401 -194 401 -248 q 440 -110 401 -140 q 558 -80 480 -80 q 674 -110 635 -80 q 714 -194 714 -140 q 674 -278 714 -248 q 558 -308 635 -308 z "},"Ờ":{"ha":1115,"x_min":53,"x_max":1074,"o":"m 918 917 q 1026 749 989 851 q 1063 514 1063 648 q 1002 222 1063 340 q 827 45 940 104 q 558 -14 713 -14 q 289 45 402 -14 q 114 222 176 104 q 53 514 53 340 q 115 806 53 688 q 290 983 176 924 q 558 1042 403 1042 q 631 1038 594 1042 q 674 1034 667 1035 q 769 1027 740 1027 q 867 1052 835 1027 q 898 1136 898 1077 q 888 1233 898 1179 l 1060 1233 q 1074 1125 1074 1185 q 1033 985 1074 1037 q 918 917 992 933 m 558 200 q 731 275 672 200 q 790 509 790 349 q 731 751 790 675 q 558 828 672 828 q 385 753 444 828 q 326 519 326 679 q 384 276 326 351 q 558 200 443 200 m 440 1104 l 275 1319 l 549 1319 l 675 1104 l 440 1104 z "},"Ở":{"ha":1115,"x_min":53,"x_max":1074,"o":"m 918 917 q 1026 749 989 851 q 1063 514 1063 648 q 1002 222 1063 340 q 827 45 940 104 q 558 -14 713 -14 q 289 45 402 -14 q 114 222 176 104 q 53 514 53 340 q 115 806 53 688 q 290 983 176 924 q 558 1042 403 1042 q 631 1038 594 1042 q 674 1034 667 1035 q 769 1027 740 1027 q 867 1052 835 1027 q 898 1136 898 1077 q 888 1233 898 1179 l 1060 1233 q 1074 1125 1074 1185 q 1033 985 1074 1037 q 918 917 992 933 m 558 200 q 731 275 672 200 q 790 509 790 349 q 731 751 790 675 q 558 828 672 828 q 385 753 444 828 q 326 519 326 679 q 384 276 326 351 q 558 200 443 200 m 494 1104 q 516 1153 496 1135 q 571 1188 536 1171 q 600 1203 590 1197 q 609 1218 609 1210 q 591 1236 609 1231 q 535 1242 574 1242 q 401 1226 467 1242 l 401 1319 q 474 1332 431 1327 q 555 1336 517 1336 q 698 1312 651 1336 q 744 1238 744 1288 q 726 1191 744 1208 q 674 1154 708 1174 q 635 1129 648 1140 q 621 1104 623 1119 l 494 1104 z "},"Ỡ":{"ha":1115,"x_min":53,"x_max":1074,"o":"m 677 1112 q 616 1119 644 1112 q 546 1140 588 1126 q 484 1159 508 1153 q 434 1165 460 1165 q 361 1153 393 1165 q 295 1116 329 1142 l 295 1262 q 358 1301 324 1289 q 439 1314 392 1314 q 501 1307 472 1314 q 569 1285 529 1299 q 630 1266 606 1272 q 681 1260 655 1260 q 755 1271 723 1260 q 821 1308 787 1283 l 821 1163 q 758 1124 792 1136 q 677 1112 724 1112 m 918 917 q 1026 749 989 851 q 1063 514 1063 648 q 1002 222 1063 340 q 827 45 940 104 q 558 -14 713 -14 q 289 45 402 -14 q 114 222 176 104 q 53 514 53 340 q 115 806 53 688 q 290 983 176 924 q 558 1042 403 1042 q 631 1038 594 1042 q 674 1034 667 1035 q 769 1027 740 1027 q 867 1052 835 1027 q 898 1136 898 1077 q 888 1233 898 1179 l 1060 1233 q 1074 1125 1074 1185 q 1033 985 1074 1037 q 918 917 992 933 m 558 200 q 731 275 672 200 q 790 509 790 349 q 731 751 790 675 q 558 828 672 828 q 385 753 444 828 q 326 519 326 679 q 384 276 326 351 q 558 200 443 200 z "},"Ő":{"ha":1115,"x_min":53,"x_max":1063,"o":"m 558 -14 q 290 45 403 -14 q 115 222 176 104 q 53 514 53 340 q 115 806 53 688 q 290 983 176 924 q 558 1042 403 1042 q 826 983 713 1042 q 1001 805 940 924 q 1063 514 1063 687 q 1001 223 1063 341 q 826 45 940 105 q 558 -14 713 -14 m 558 200 q 731 275 672 200 q 790 509 790 349 q 731 751 790 675 q 558 828 672 828 q 385 753 444 828 q 326 519 326 679 q 384 276 326 351 q 558 200 443 200 m 313 1104 l 409 1319 l 613 1319 l 503 1104 l 313 1104 m 611 1104 l 708 1319 l 912 1319 l 802 1104 l 611 1104 z "},"Ȏ":{"ha":1115,"x_min":53,"x_max":1063,"o":"m 558 -14 q 290 45 403 -14 q 115 222 176 104 q 53 514 53 340 q 115 806 53 688 q 290 983 176 924 q 558 1042 403 1042 q 826 983 713 1042 q 1001 805 940 924 q 1063 514 1063 687 q 1001 223 1063 341 q 826 45 940 105 q 558 -14 713 -14 m 558 200 q 731 275 672 200 q 790 509 790 349 q 731 751 790 675 q 558 828 672 828 q 385 753 444 828 q 326 519 326 679 q 384 276 326 351 q 558 200 443 200 m 276 1107 q 359 1262 288 1206 q 557 1318 430 1318 q 756 1262 685 1318 q 839 1107 826 1206 l 682 1107 q 643 1173 674 1151 q 557 1194 613 1194 q 471 1173 501 1194 q 433 1107 441 1151 l 276 1107 z "},"Ō":{"ha":1115,"x_min":53,"x_max":1063,"o":"m 558 -14 q 290 45 403 -14 q 115 222 176 104 q 53 514 53 340 q 115 806 53 688 q 290 983 176 924 q 558 1042 403 1042 q 826 983 713 1042 q 1001 805 940 924 q 1063 514 1063 687 q 1001 223 1063 341 q 826 45 940 105 q 558 -14 713 -14 m 558 200 q 731 275 672 200 q 790 509 790 349 q 731 751 790 675 q 558 828 672 828 q 385 753 444 828 q 326 519 326 679 q 384 276 326 351 q 558 200 443 200 m 286 1135 l 286 1290 l 828 1290 l 828 1135 l 286 1135 z "},"Ṓ":{"ha":1115,"x_min":53,"x_max":1063,"o":"m 558 -14 q 290 45 403 -14 q 115 222 176 104 q 53 514 53 340 q 115 806 53 688 q 290 983 176 924 q 558 1042 403 1042 q 826 983 713 1042 q 1001 805 940 924 q 1063 514 1063 687 q 1001 223 1063 341 q 826 45 940 105 q 558 -14 713 -14 m 558 200 q 731 275 672 200 q 790 509 790 349 q 731 751 790 675 q 558 828 672 828 q 385 753 444 828 q 326 519 326 679 q 384 276 326 351 q 558 200 443 200 m 426 1369 l 551 1531 l 854 1531 l 690 1369 l 426 1369 m 286 1135 l 286 1290 l 828 1290 l 828 1135 l 286 1135 z "},"Ṑ":{"ha":1115,"x_min":53,"x_max":1063,"o":"m 558 -14 q 290 45 403 -14 q 115 222 176 104 q 53 514 53 340 q 115 806 53 688 q 290 983 176 924 q 558 1042 403 1042 q 826 983 713 1042 q 1001 805 940 924 q 1063 514 1063 687 q 1001 223 1063 341 q 826 45 940 105 q 558 -14 713 -14 m 558 200 q 731 275 672 200 q 790 509 790 349 q 731 751 790 675 q 558 828 672 828 q 385 753 444 828 q 326 519 326 679 q 384 276 326 351 q 558 200 443 200 m 426 1369 l 261 1531 l 563 1531 l 689 1369 l 426 1369 m 286 1135 l 286 1290 l 828 1290 l 828 1135 l 286 1135 z "},"Ǫ":{"ha":1115,"x_min":53,"x_max":1063,"o":"m 733 9 q 586 -60 629 -22 q 542 -145 542 -99 q 640 -213 542 -213 q 734 -194 681 -213 l 734 -292 q 603 -314 673 -314 q 448 -274 500 -314 q 395 -163 395 -234 q 417 -80 395 -117 q 489 -11 440 -42 q 255 64 353 1 q 105 240 158 127 q 53 514 53 353 q 115 806 53 688 q 290 983 176 924 q 558 1042 403 1042 q 826 983 713 1042 q 1001 805 940 924 q 1063 514 1063 687 q 1020 265 1063 369 q 902 98 976 160 q 733 9 828 36 m 326 519 q 384 276 326 351 q 558 200 443 200 q 731 275 672 200 q 790 509 790 349 q 731 751 790 675 q 558 828 672 828 q 385 753 444 828 q 326 519 326 679 z "},"Ø":{"ha":1115,"x_min":53,"x_max":1063,"o":"m 942 892 q 1032 731 1001 826 q 1063 514 1063 635 q 1001 223 1063 341 q 826 45 940 105 q 558 -14 713 -14 q 278 51 394 -14 l 208 -39 l 101 45 l 173 136 q 83 298 114 203 q 53 514 53 392 q 115 806 53 688 q 290 983 176 924 q 558 1042 403 1042 q 837 977 722 1042 l 908 1067 l 1013 983 l 942 892 m 326 519 q 346 355 326 422 l 690 791 q 558 828 637 828 q 385 753 444 828 q 326 519 326 679 m 558 200 q 731 275 672 200 q 790 509 790 349 q 769 674 790 607 l 424 236 q 558 200 476 200 z "},"Ǿ":{"ha":1115,"x_min":53,"x_max":1063,"o":"m 942 892 q 1032 731 1001 826 q 1063 514 1063 635 q 1001 223 1063 341 q 826 45 940 105 q 558 -14 713 -14 q 278 51 394 -14 l 208 -39 l 101 45 l 173 136 q 83 298 114 203 q 53 514 53 392 q 115 806 53 688 q 290 983 176 924 q 558 1042 403 1042 q 837 977 722 1042 l 908 1067 l 1013 983 l 942 892 m 326 519 q 346 355 326 422 l 690 791 q 558 828 637 828 q 385 753 444 828 q 326 519 326 679 m 558 200 q 731 275 672 200 q 790 509 790 349 q 769 674 790 607 l 424 236 q 558 200 476 200 m 438 1104 l 564 1319 l 838 1319 l 673 1104 l 438 1104 z "},"Õ":{"ha":1115,"x_min":53,"x_max":1063,"o":"m 558 -14 q 290 45 403 -14 q 115 222 176 104 q 53 514 53 340 q 115 806 53 688 q 290 983 176 924 q 558 1042 403 1042 q 826 983 713 1042 q 1001 805 940 924 q 1063 514 1063 687 q 1001 223 1063 341 q 826 45 940 105 q 558 -14 713 -14 m 558 200 q 731 275 672 200 q 790 509 790 349 q 731 751 790 675 q 558 828 672 828 q 385 753 444 828 q 326 519 326 679 q 384 276 326 351 q 558 200 443 200 m 681 1112 q 616 1119 647 1112 q 545 1140 586 1126 q 481 1158 506 1152 q 428 1165 456 1165 q 352 1153 385 1165 q 283 1116 319 1142 l 283 1262 q 349 1301 313 1289 q 433 1314 385 1314 q 497 1307 468 1314 q 569 1285 526 1300 q 633 1266 607 1272 q 686 1260 658 1260 q 763 1271 729 1260 q 831 1308 796 1283 l 831 1163 q 767 1124 802 1136 q 681 1112 731 1112 z "},"Ṍ":{"ha":1115,"x_min":53,"x_max":1063,"o":"m 558 -14 q 290 45 403 -14 q 115 222 176 104 q 53 514 53 340 q 115 806 53 688 q 290 983 176 924 q 558 1042 403 1042 q 826 983 713 1042 q 1001 805 940 924 q 1063 514 1063 687 q 1001 223 1063 341 q 826 45 940 105 q 558 -14 713 -14 m 558 200 q 731 275 672 200 q 790 509 790 349 q 731 751 790 675 q 558 828 672 828 q 385 753 444 828 q 326 519 326 679 q 384 276 326 351 q 558 200 443 200 m 426 1369 l 551 1531 l 854 1531 l 690 1369 l 426 1369 m 681 1112 q 616 1119 647 1112 q 545 1140 586 1126 q 481 1158 506 1152 q 428 1165 456 1165 q 352 1153 385 1165 q 283 1116 319 1142 l 283 1262 q 349 1301 313 1289 q 433 1314 385 1314 q 497 1307 468 1314 q 569 1285 526 1300 q 633 1266 607 1272 q 686 1260 658 1260 q 763 1271 729 1260 q 831 1308 796 1283 l 831 1163 q 767 1124 802 1136 q 681 1112 731 1112 z "},"Ṏ":{"ha":1115,"x_min":53,"x_max":1063,"o":"m 558 -14 q 290 45 403 -14 q 115 222 176 104 q 53 514 53 340 q 115 806 53 688 q 290 983 176 924 q 558 1042 403 1042 q 826 983 713 1042 q 1001 805 940 924 q 1063 514 1063 687 q 1001 223 1063 341 q 826 45 940 105 q 558 -14 713 -14 m 558 200 q 731 275 672 200 q 790 509 790 349 q 731 751 790 675 q 558 828 672 828 q 385 753 444 828 q 326 519 326 679 q 384 276 326 351 q 558 200 443 200 m 681 1112 q 616 1119 647 1112 q 545 1140 586 1126 q 481 1158 506 1152 q 428 1165 456 1165 q 352 1153 385 1165 q 283 1116 319 1142 l 283 1262 q 349 1301 313 1289 q 433 1314 385 1314 q 497 1307 468 1314 q 569 1285 526 1300 q 633 1266 607 1272 q 686 1260 658 1260 q 763 1271 729 1260 q 831 1308 796 1283 l 831 1163 q 767 1124 802 1136 q 681 1112 731 1112 m 373 1363 q 271 1393 306 1363 q 237 1476 237 1422 q 271 1561 237 1531 q 373 1590 306 1590 q 475 1561 440 1590 q 510 1476 510 1531 q 475 1393 510 1422 q 373 1363 440 1363 m 742 1363 q 640 1393 674 1363 q 605 1476 605 1422 q 640 1561 605 1531 q 742 1590 674 1590 q 843 1561 809 1590 q 878 1476 878 1531 q 843 1393 878 1422 q 742 1363 809 1363 z "},"Ȭ":{"ha":1115,"x_min":53,"x_max":1063,"o":"m 558 -14 q 290 45 403 -14 q 115 222 176 104 q 53 514 53 340 q 115 806 53 688 q 290 983 176 924 q 558 1042 403 1042 q 826 983 713 1042 q 1001 805 940 924 q 1063 514 1063 687 q 1001 223 1063 341 q 826 45 940 105 q 558 -14 713 -14 m 558 200 q 731 275 672 200 q 790 509 790 349 q 731 751 790 675 q 558 828 672 828 q 385 753 444 828 q 326 519 326 679 q 384 276 326 351 q 558 200 443 200 m 681 1112 q 616 1119 647 1112 q 545 1140 586 1126 q 481 1158 506 1152 q 428 1165 456 1165 q 352 1153 385 1165 q 283 1116 319 1142 l 283 1262 q 349 1301 313 1289 q 433 1314 385 1314 q 497 1307 468 1314 q 569 1285 526 1300 q 633 1266 607 1272 q 686 1260 658 1260 q 763 1271 729 1260 q 831 1308 796 1283 l 831 1163 q 767 1124 802 1136 q 681 1112 731 1112 m 286 1397 l 286 1551 l 828 1551 l 828 1397 l 286 1397 z "},"Œ":{"ha":1494,"x_min":53,"x_max":1445,"o":"m 1445 211 l 1445 0 l 888 0 q 773 -4 851 0 q 664 -8 697 -8 q 321 47 456 -8 q 119 217 186 101 q 53 514 53 332 q 207 908 53 780 q 662 1036 361 1036 q 774 1032 699 1036 q 886 1028 851 1028 l 1438 1028 l 1438 817 l 970 817 l 970 631 l 1366 631 l 1366 419 l 970 419 l 970 211 l 1445 211 m 708 818 q 607 821 672 821 q 449 790 511 821 q 356 692 388 760 q 325 513 325 624 q 357 335 325 402 q 450 237 388 267 q 608 206 513 206 q 708 210 666 206 l 708 818 z "},"P":{"ha":935,"x_min":83,"x_max":889,"o":"m 83 1008 q 412 1041 252 1041 q 771 949 653 1041 q 889 663 889 858 q 774 380 889 476 q 436 284 659 284 q 379 285 415 284 l 350 286 l 350 0 l 83 0 l 83 1008 m 439 481 q 585 523 539 481 q 631 660 631 565 q 584 800 631 756 q 437 843 537 843 q 350 837 385 843 l 350 487 q 439 481 398 481 z "},"Þ":{"ha":942,"x_min":83,"x_max":889,"o":"m 83 1028 l 350 1028 l 350 903 q 416 907 397 907 q 772 815 654 907 q 889 528 889 723 q 775 245 889 340 q 439 149 660 149 q 378 151 417 149 l 350 151 l 350 0 l 83 0 l 83 1028 m 439 347 q 585 389 539 347 q 631 526 631 431 q 584 666 631 622 q 437 709 537 709 q 350 702 389 709 l 350 352 q 439 347 392 347 z "},"Q":{"ha":1115,"x_min":53,"x_max":1063,"o":"m 1063 514 q 980 191 1063 317 q 735 26 897 65 q 1051 -35 881 -14 l 1007 -241 q 436 -81 646 -184 q 140 166 226 22 q 53 508 53 310 q 114 803 53 684 q 289 982 176 923 q 558 1042 403 1042 q 826 983 713 1042 q 1001 805 940 924 q 1063 514 1063 687 m 326 519 q 384 275 326 350 q 558 200 442 200 q 731 275 672 200 q 790 509 790 349 q 731 751 790 675 q 558 828 672 828 q 385 753 444 828 q 326 519 326 679 z "},"R":{"ha":974,"x_min":83,"x_max":969,"o":"m 681 0 l 438 360 q 381 361 417 360 q 345 363 357 363 l 345 0 l 83 0 l 83 1003 q 249 1031 160 1020 q 422 1041 338 1041 q 767 957 651 1041 q 882 701 882 874 q 833 520 883 595 q 691 405 783 445 l 969 0 l 681 0 m 345 562 q 447 556 397 556 q 588 590 542 556 q 633 701 633 624 q 588 812 633 776 q 451 847 543 847 q 345 838 396 847 l 345 562 z "},"Ŕ":{"ha":974,"x_min":83,"x_max":969,"o":"m 681 0 l 438 360 q 381 361 417 360 q 345 363 357 363 l 345 0 l 83 0 l 83 1003 q 249 1031 160 1020 q 422 1041 338 1041 q 767 957 651 1041 q 882 701 882 874 q 833 520 883 595 q 691 405 783 445 l 969 0 l 681 0 m 345 562 q 447 556 397 556 q 588 590 542 556 q 633 701 633 624 q 588 812 633 776 q 451 847 543 847 q 345 838 396 847 l 345 562 m 363 1104 l 489 1319 l 763 1319 l 598 1104 l 363 1104 z "},"Ř":{"ha":974,"x_min":83,"x_max":969,"o":"m 681 0 l 438 360 q 381 361 417 360 q 345 363 357 363 l 345 0 l 83 0 l 83 1003 q 249 1031 160 1020 q 422 1041 338 1041 q 767 957 651 1041 q 882 701 882 874 q 833 520 883 595 q 691 405 783 445 l 969 0 l 681 0 m 345 562 q 447 556 397 556 q 588 590 542 556 q 633 701 633 624 q 588 812 633 776 q 451 847 543 847 q 345 838 396 847 l 345 562 m 578 1319 l 772 1319 l 592 1104 l 372 1104 l 192 1319 l 385 1319 l 482 1198 l 578 1319 z "},"Ŗ":{"ha":974,"x_min":83,"x_max":969,"o":"m 681 0 l 438 360 q 381 361 417 360 q 345 363 357 363 l 345 0 l 83 0 l 83 1003 q 249 1031 160 1020 q 422 1041 338 1041 q 767 957 651 1041 q 882 701 882 874 q 833 520 883 595 q 691 405 783 445 l 969 0 l 681 0 m 345 562 q 447 556 397 556 q 588 590 542 556 q 633 701 633 624 q 588 812 633 776 q 451 847 543 847 q 345 838 396 847 l 345 562 m 512 -80 q 655 -194 655 -80 q 638 -277 655 -233 q 595 -353 622 -322 l 434 -353 q 476 -251 467 -293 q 369 -166 369 -240 q 512 -80 369 -80 z "},"Ȑ":{"ha":974,"x_min":83,"x_max":969,"o":"m 681 0 l 438 360 q 381 361 417 360 q 345 363 357 363 l 345 0 l 83 0 l 83 1003 q 249 1031 160 1020 q 422 1041 338 1041 q 767 957 651 1041 q 882 701 882 874 q 833 520 883 595 q 691 405 783 445 l 969 0 l 681 0 m 345 562 q 447 556 397 556 q 588 590 542 556 q 633 701 633 624 q 588 812 633 776 q 451 847 543 847 q 345 838 396 847 l 345 562 m 237 1104 l 127 1319 l 331 1319 l 428 1104 l 237 1104 m 535 1104 l 426 1319 l 630 1319 l 726 1104 l 535 1104 z "},"Ṛ":{"ha":974,"x_min":83,"x_max":969,"o":"m 681 0 l 438 360 q 381 361 417 360 q 345 363 357 363 l 345 0 l 83 0 l 83 1003 q 249 1031 160 1020 q 422 1041 338 1041 q 767 957 651 1041 q 882 701 882 874 q 833 520 883 595 q 691 405 783 445 l 969 0 l 681 0 m 345 562 q 447 556 397 556 q 588 590 542 556 q 633 701 633 624 q 588 812 633 776 q 451 847 543 847 q 345 838 396 847 l 345 562 m 513 -308 q 395 -278 435 -308 q 356 -194 356 -248 q 395 -110 356 -140 q 513 -80 435 -80 q 629 -110 590 -80 q 669 -194 669 -140 q 629 -278 669 -248 q 513 -308 590 -308 z "},"Ȓ":{"ha":974,"x_min":83,"x_max":969,"o":"m 681 0 l 438 360 q 381 361 417 360 q 345 363 357 363 l 345 0 l 83 0 l 83 1003 q 249 1031 160 1020 q 422 1041 338 1041 q 767 957 651 1041 q 882 701 882 874 q 833 520 883 595 q 691 405 783 445 l 969 0 l 681 0 m 345 562 q 447 556 397 556 q 588 590 542 556 q 633 701 633 624 q 588 812 633 776 q 451 847 543 847 q 345 838 396 847 l 345 562 m 200 1107 q 283 1262 213 1206 q 481 1318 354 1318 q 680 1262 609 1318 q 763 1107 751 1206 l 606 1107 q 568 1173 598 1151 q 481 1194 538 1194 q 395 1173 426 1194 q 357 1107 365 1151 l 200 1107 z "},"Ṟ":{"ha":974,"x_min":83,"x_max":969,"o":"m 681 0 l 438 360 q 381 361 417 360 q 345 363 357 363 l 345 0 l 83 0 l 83 1003 q 249 1031 160 1020 q 422 1041 338 1041 q 767 957 651 1041 q 882 701 882 874 q 833 520 883 595 q 691 405 783 445 l 969 0 l 681 0 m 345 562 q 447 556 397 556 q 588 590 542 556 q 633 701 633 624 q 588 812 633 776 q 451 847 543 847 q 345 838 396 847 l 345 562 m 241 -264 l 241 -110 l 783 -110 l 783 -264 l 241 -264 z "},"S":{"ha":824,"x_min":33,"x_max":790,"o":"m 360 -14 q 203 -2 281 -14 q 61 31 126 10 l 61 246 q 206 212 125 224 q 358 199 288 199 q 487 224 449 199 q 526 294 526 248 q 515 337 526 320 q 476 368 503 354 q 396 395 448 381 l 311 417 q 103 525 172 451 q 33 719 33 599 q 147 958 33 874 q 483 1042 260 1042 q 618 1034 553 1042 q 735 1012 683 1026 l 735 797 q 624 820 687 812 q 499 828 562 828 q 343 803 389 828 q 298 733 298 778 q 308 693 298 709 q 341 664 317 676 q 409 640 365 651 l 494 618 q 718 507 647 581 q 790 313 790 433 q 739 139 790 213 q 591 26 688 65 q 360 -14 494 -14 z "},"Ś":{"ha":824,"x_min":33,"x_max":790,"o":"m 360 -14 q 203 -2 281 -14 q 61 31 126 10 l 61 246 q 206 212 125 224 q 358 199 288 199 q 487 224 449 199 q 526 294 526 248 q 515 337 526 320 q 476 368 503 354 q 396 395 448 381 l 311 417 q 103 525 172 451 q 33 719 33 599 q 147 958 33 874 q 483 1042 260 1042 q 618 1034 553 1042 q 735 1012 683 1026 l 735 797 q 624 820 687 812 q 499 828 562 828 q 343 803 389 828 q 298 733 298 778 q 308 693 298 709 q 341 664 317 676 q 409 640 365 651 l 494 618 q 718 507 647 581 q 790 313 790 433 q 739 139 790 213 q 591 26 688 65 q 360 -14 494 -14 m 301 1104 l 427 1319 l 701 1319 l 536 1104 l 301 1104 z "},"Ṥ":{"ha":824,"x_min":33,"x_max":790,"o":"m 360 -14 q 203 -2 281 -14 q 61 31 126 10 l 61 246 q 206 212 125 224 q 358 199 288 199 q 487 224 449 199 q 526 294 526 248 q 515 337 526 320 q 476 368 503 354 q 396 395 448 381 l 311 417 q 103 525 172 451 q 33 719 33 599 q 147 958 33 874 q 483 1042 260 1042 q 618 1034 553 1042 q 735 1012 683 1026 l 735 797 q 624 820 687 812 q 499 828 562 828 q 343 803 389 828 q 298 733 298 778 q 308 693 298 709 q 341 664 317 676 q 409 640 365 651 l 494 618 q 718 507 647 581 q 790 313 790 433 q 739 139 790 213 q 591 26 688 65 q 360 -14 494 -14 m 237 1292 q 142 1316 174 1292 q 110 1384 110 1340 q 142 1452 110 1428 q 237 1476 174 1476 q 331 1452 299 1476 q 363 1384 363 1428 q 331 1316 363 1340 q 237 1292 299 1292 m 301 1104 l 427 1319 l 701 1319 l 536 1104 l 301 1104 z "},"Š":{"ha":824,"x_min":33,"x_max":790,"o":"m 360 -14 q 203 -2 281 -14 q 61 31 126 10 l 61 246 q 206 212 125 224 q 358 199 288 199 q 487 224 449 199 q 526 294 526 248 q 515 337 526 320 q 476 368 503 354 q 396 395 448 381 l 311 417 q 103 525 172 451 q 33 719 33 599 q 147 958 33 874 q 483 1042 260 1042 q 618 1034 553 1042 q 735 1012 683 1026 l 735 797 q 624 820 687 812 q 499 828 562 828 q 343 803 389 828 q 298 733 298 778 q 308 693 298 709 q 341 664 317 676 q 409 640 365 651 l 494 618 q 718 507 647 581 q 790 313 790 433 q 739 139 790 213 q 591 26 688 65 q 360 -14 494 -14 m 516 1319 l 710 1319 l 530 1104 l 310 1104 l 130 1319 l 324 1319 l 420 1198 l 516 1319 z "},"Ṧ":{"ha":824,"x_min":33,"x_max":790,"o":"m 360 -14 q 203 -2 281 -14 q 61 31 126 10 l 61 246 q 206 212 125 224 q 358 199 288 199 q 487 224 449 199 q 526 294 526 248 q 515 337 526 320 q 476 368 503 354 q 396 395 448 381 l 311 417 q 103 525 172 451 q 33 719 33 599 q 147 958 33 874 q 483 1042 260 1042 q 618 1034 553 1042 q 735 1012 683 1026 l 735 797 q 624 820 687 812 q 499 828 562 828 q 343 803 389 828 q 298 733 298 778 q 308 693 298 709 q 341 664 317 676 q 409 640 365 651 l 494 618 q 718 507 647 581 q 790 313 790 433 q 739 139 790 213 q 591 26 688 65 q 360 -14 494 -14 m 420 1343 q 326 1367 358 1343 q 294 1435 294 1392 q 326 1504 294 1480 q 420 1528 358 1528 q 514 1504 483 1528 q 546 1435 546 1480 q 514 1367 546 1392 q 420 1343 482 1343 m 516 1319 l 710 1319 l 530 1104 l 310 1104 l 130 1319 l 324 1319 l 420 1198 l 516 1319 z "},"Ş":{"ha":824,"x_min":33,"x_max":790,"o":"m 790 313 q 752 159 790 226 q 640 50 713 92 q 465 -7 567 7 l 465 -56 q 561 -97 528 -65 q 594 -181 594 -129 q 543 -279 594 -244 q 392 -314 493 -314 q 249 -292 317 -314 l 249 -197 q 314 -212 278 -206 q 378 -217 349 -217 q 440 -207 419 -217 q 460 -172 460 -196 q 439 -136 460 -147 q 378 -124 418 -124 l 343 -124 l 343 -14 q 195 -1 267 -12 q 61 31 122 11 l 61 246 q 206 212 125 224 q 358 199 288 199 q 487 224 449 199 q 526 294 526 248 q 515 337 526 320 q 476 368 503 354 q 396 395 448 381 l 311 417 q 103 525 172 451 q 33 719 33 599 q 147 958 33 874 q 483 1042 260 1042 q 618 1034 553 1042 q 735 1012 683 1026 l 735 797 q 624 820 687 812 q 499 828 562 828 q 343 803 389 828 q 298 733 298 778 q 308 693 298 709 q 341 664 317 676 q 409 640 365 651 l 494 618 q 718 507 647 581 q 790 313 790 433 z "},"Ŝ":{"ha":824,"x_min":33,"x_max":790,"o":"m 360 -14 q 203 -2 281 -14 q 61 31 126 10 l 61 246 q 206 212 125 224 q 358 199 288 199 q 487 224 449 199 q 526 294 526 248 q 515 337 526 320 q 476 368 503 354 q 396 395 448 381 l 311 417 q 103 525 172 451 q 33 719 33 599 q 147 958 33 874 q 483 1042 260 1042 q 618 1034 553 1042 q 735 1012 683 1026 l 735 797 q 624 820 687 812 q 499 828 562 828 q 343 803 389 828 q 298 733 298 778 q 308 693 298 709 q 341 664 317 676 q 409 640 365 651 l 494 618 q 718 507 647 581 q 790 313 790 433 q 739 139 790 213 q 591 26 688 65 q 360 -14 494 -14 m 710 1104 l 516 1104 l 420 1226 l 324 1104 l 130 1104 l 310 1319 l 530 1319 l 710 1104 z "},"Ș":{"ha":824,"x_min":33,"x_max":790,"o":"m 360 -14 q 203 -2 281 -14 q 61 31 126 10 l 61 246 q 206 212 125 224 q 358 199 288 199 q 487 224 449 199 q 526 294 526 248 q 515 337 526 320 q 476 368 503 354 q 396 395 448 381 l 311 417 q 103 525 172 451 q 33 719 33 599 q 147 958 33 874 q 483 1042 260 1042 q 618 1034 553 1042 q 735 1012 683 1026 l 735 797 q 624 820 687 812 q 499 828 562 828 q 343 803 389 828 q 298 733 298 778 q 308 693 298 709 q 341 664 317 676 q 409 640 365 651 l 494 618 q 718 507 647 581 q 790 313 790 433 q 739 139 790 213 q 591 26 688 65 q 360 -14 494 -14 m 419 -80 q 563 -194 563 -80 q 546 -277 563 -233 q 503 -353 529 -322 l 342 -353 q 383 -251 374 -293 q 277 -166 277 -240 q 419 -80 277 -80 z "},"Ṡ":{"ha":824,"x_min":33,"x_max":790,"o":"m 360 -14 q 203 -2 281 -14 q 61 31 126 10 l 61 246 q 206 212 125 224 q 358 199 288 199 q 487 224 449 199 q 526 294 526 248 q 515 337 526 320 q 476 368 503 354 q 396 395 448 381 l 311 417 q 103 525 172 451 q 33 719 33 599 q 147 958 33 874 q 483 1042 260 1042 q 618 1034 553 1042 q 735 1012 683 1026 l 735 797 q 624 820 687 812 q 499 828 562 828 q 343 803 389 828 q 298 733 298 778 q 308 693 298 709 q 341 664 317 676 q 409 640 365 651 l 494 618 q 718 507 647 581 q 790 313 790 433 q 739 139 790 213 q 591 26 688 65 q 360 -14 494 -14 m 420 1102 q 303 1132 342 1102 q 263 1215 263 1161 q 303 1300 263 1270 q 420 1329 342 1329 q 537 1300 497 1329 q 576 1215 576 1270 q 537 1132 576 1161 q 420 1102 497 1102 z "},"Ṣ":{"ha":824,"x_min":33,"x_max":790,"o":"m 360 -14 q 203 -2 281 -14 q 61 31 126 10 l 61 246 q 206 212 125 224 q 358 199 288 199 q 487 224 449 199 q 526 294 526 248 q 515 337 526 320 q 476 368 503 354 q 396 395 448 381 l 311 417 q 103 525 172 451 q 33 719 33 599 q 147 958 33 874 q 483 1042 260 1042 q 618 1034 553 1042 q 735 1012 683 1026 l 735 797 q 624 820 687 812 q 499 828 562 828 q 343 803 389 828 q 298 733 298 778 q 308 693 298 709 q 341 664 317 676 q 409 640 365 651 l 494 618 q 718 507 647 581 q 790 313 790 433 q 739 139 790 213 q 591 26 688 65 q 360 -14 494 -14 m 420 -308 q 303 -278 342 -308 q 263 -194 263 -248 q 303 -110 263 -140 q 420 -80 342 -80 q 537 -110 497 -80 q 576 -194 576 -140 q 537 -278 576 -248 q 420 -308 497 -308 z "},"Ṩ":{"ha":824,"x_min":33,"x_max":790,"o":"m 360 -14 q 203 -2 281 -14 q 61 31 126 10 l 61 246 q 206 212 125 224 q 358 199 288 199 q 487 224 449 199 q 526 294 526 248 q 515 337 526 320 q 476 368 503 354 q 396 395 448 381 l 311 417 q 103 525 172 451 q 33 719 33 599 q 147 958 33 874 q 483 1042 260 1042 q 618 1034 553 1042 q 735 1012 683 1026 l 735 797 q 624 820 687 812 q 499 828 562 828 q 343 803 389 828 q 298 733 298 778 q 308 693 298 709 q 341 664 317 676 q 409 640 365 651 l 494 618 q 718 507 647 581 q 790 313 790 433 q 739 139 790 213 q 591 26 688 65 q 360 -14 494 -14 m 420 -308 q 303 -278 342 -308 q 263 -194 263 -248 q 303 -110 263 -140 q 420 -80 342 -80 q 537 -110 497 -80 q 576 -194 576 -140 q 537 -278 576 -248 q 420 -308 497 -308 m 420 1102 q 303 1132 342 1102 q 263 1215 263 1161 q 303 1300 263 1270 q 420 1329 342 1329 q 537 1300 497 1329 q 576 1215 576 1270 q 537 1132 576 1161 q 420 1102 497 1102 z "},"ẞ":{"ha":1294,"x_min":83,"x_max":1261,"o":"m 976 618 q 1192 506 1124 580 q 1261 313 1261 433 q 1211 139 1261 212 q 1067 26 1162 65 q 841 -14 973 -14 q 697 -3 770 -14 q 561 28 623 8 l 561 242 q 699 211 622 223 q 838 199 777 199 q 963 224 926 199 q 1001 294 1001 248 q 990 338 1001 320 q 954 369 979 356 q 883 395 928 383 l 801 417 q 601 525 667 451 q 534 719 534 599 q 549 824 534 778 q 503 830 526 830 q 389 788 427 830 q 350 663 350 746 l 350 0 l 83 0 l 83 631 q 188 935 83 828 q 503 1042 293 1042 q 721 1000 628 1042 q 974 1042 824 1042 q 1098 1034 1038 1042 q 1208 1015 1159 1027 l 1208 800 q 1102 821 1161 813 q 992 828 1044 828 q 840 803 884 828 q 795 733 795 778 q 817 676 795 697 q 895 640 838 656 l 976 618 z "},"Ə":{"ha":1098,"x_min":46,"x_max":1045,"o":"m 424 1042 q 891 909 737 1042 q 1045 502 1045 777 q 985 221 1045 337 q 813 45 924 105 q 552 -14 702 -14 q 284 44 398 -14 q 108 219 171 103 q 46 507 46 336 l 46 592 l 776 592 q 715 732 761 680 q 592 807 669 784 q 402 830 515 830 q 258 822 333 830 q 117 799 182 813 l 117 1012 q 268 1034 188 1026 q 424 1042 348 1042 m 555 190 q 667 210 622 190 q 741 277 713 231 q 778 402 769 324 l 323 402 q 360 278 332 325 q 436 211 388 232 q 555 190 483 190 z "},"T":{"ha":920,"x_min":9,"x_max":911,"o":"m 326 0 l 326 808 l 9 808 l 9 1028 l 911 1028 l 911 808 l 594 808 l 594 0 l 326 0 z "},"Ŧ":{"ha":920,"x_min":9,"x_max":911,"o":"m 911 808 l 594 808 l 594 579 l 797 579 l 797 413 l 594 413 l 594 0 l 326 0 l 326 413 l 124 413 l 124 579 l 326 579 l 326 808 l 9 808 l 9 1028 l 911 1028 l 911 808 z "},"Ť":{"ha":920,"x_min":9,"x_max":911,"o":"m 326 0 l 326 808 l 9 808 l 9 1028 l 911 1028 l 911 808 l 594 808 l 594 0 l 326 0 m 556 1319 l 750 1319 l 570 1104 l 351 1104 l 170 1319 l 364 1319 l 460 1198 l 556 1319 z "},"Ţ":{"ha":920,"x_min":9,"x_max":911,"o":"m 505 0 l 505 -56 q 601 -97 569 -65 q 634 -181 634 -129 q 584 -279 634 -244 q 432 -314 533 -314 q 289 -292 357 -314 l 289 -197 q 354 -212 319 -206 q 419 -217 389 -217 q 480 -207 460 -217 q 500 -172 500 -196 q 479 -136 500 -147 q 418 -124 458 -124 l 383 -124 l 383 0 l 326 0 l 326 808 l 9 808 l 9 1028 l 911 1028 l 911 808 l 594 808 l 594 0 l 505 0 z "},"Ț":{"ha":920,"x_min":9,"x_max":911,"o":"m 326 0 l 326 808 l 9 808 l 9 1028 l 911 1028 l 911 808 l 594 808 l 594 0 l 326 0 m 460 -80 q 603 -194 603 -80 q 586 -277 603 -233 q 543 -353 569 -322 l 382 -353 q 424 -251 415 -293 q 317 -166 317 -240 q 460 -80 317 -80 z "},"Ṭ":{"ha":920,"x_min":9,"x_max":911,"o":"m 326 0 l 326 808 l 9 808 l 9 1028 l 911 1028 l 911 808 l 594 808 l 594 0 l 326 0 m 460 -308 q 343 -278 383 -308 q 303 -194 303 -248 q 343 -110 303 -140 q 460 -80 383 -80 q 577 -110 538 -80 q 617 -194 617 -140 q 577 -278 617 -248 q 460 -308 538 -308 z "},"Ṯ":{"ha":920,"x_min":9,"x_max":911,"o":"m 326 0 l 326 808 l 9 808 l 9 1028 l 911 1028 l 911 808 l 594 808 l 594 0 l 326 0 m 189 -264 l 189 -110 l 731 -110 l 731 -264 l 189 -264 z "},"U":{"ha":1058,"x_min":79,"x_max":978,"o":"m 532 -14 q 189 98 299 -14 q 79 439 79 209 l 79 1028 l 346 1028 l 346 414 q 392 254 346 304 q 532 203 438 203 q 672 254 626 203 q 717 414 717 304 l 717 1028 l 978 1028 l 978 439 q 870 98 978 210 q 532 -14 762 -14 z "},"Ú":{"ha":1058,"x_min":79,"x_max":978,"o":"m 532 -14 q 189 98 299 -14 q 79 439 79 209 l 79 1028 l 346 1028 l 346 414 q 392 254 346 304 q 532 203 438 203 q 672 254 626 203 q 717 414 717 304 l 717 1028 l 978 1028 l 978 439 q 870 98 978 210 q 532 -14 762 -14 m 413 1104 l 539 1319 l 813 1319 l 648 1104 l 413 1104 z "},"Ŭ":{"ha":1058,"x_min":79,"x_max":978,"o":"m 532 -14 q 189 98 299 -14 q 79 439 79 209 l 79 1028 l 346 1028 l 346 414 q 392 254 346 304 q 532 203 438 203 q 672 254 626 203 q 717 414 717 304 l 717 1028 l 978 1028 l 978 439 q 870 98 978 210 q 532 -14 762 -14 m 532 1106 q 333 1162 404 1106 q 250 1317 263 1218 l 407 1317 q 445 1251 415 1273 q 532 1229 476 1229 q 618 1251 588 1229 q 656 1317 648 1273 l 813 1317 q 730 1162 801 1218 q 532 1106 659 1106 z "},"Û":{"ha":1058,"x_min":79,"x_max":978,"o":"m 532 -14 q 189 98 299 -14 q 79 439 79 209 l 79 1028 l 346 1028 l 346 414 q 392 254 346 304 q 532 203 438 203 q 672 254 626 203 q 717 414 717 304 l 717 1028 l 978 1028 l 978 439 q 870 98 978 210 q 532 -14 762 -14 m 822 1104 l 628 1104 l 532 1226 l 435 1104 l 242 1104 l 422 1319 l 642 1319 l 822 1104 z "},"Ȕ":{"ha":1058,"x_min":79,"x_max":978,"o":"m 532 -14 q 189 98 299 -14 q 79 439 79 209 l 79 1028 l 346 1028 l 346 414 q 392 254 346 304 q 532 203 438 203 q 672 254 626 203 q 717 414 717 304 l 717 1028 l 978 1028 l 978 439 q 870 98 978 210 q 532 -14 762 -14 m 287 1104 l 177 1319 l 381 1319 l 478 1104 l 287 1104 m 585 1104 l 476 1319 l 680 1319 l 776 1104 l 585 1104 z "},"Ü":{"ha":1058,"x_min":79,"x_max":978,"o":"m 532 -14 q 189 98 299 -14 q 79 439 79 209 l 79 1028 l 346 1028 l 346 414 q 392 254 346 304 q 532 203 438 203 q 672 254 626 203 q 717 414 717 304 l 717 1028 l 978 1028 l 978 439 q 870 98 978 210 q 532 -14 762 -14 m 347 1102 q 245 1132 280 1102 q 211 1215 211 1161 q 245 1300 211 1270 q 347 1329 280 1329 q 449 1300 415 1329 q 484 1215 484 1270 q 449 1132 484 1161 q 347 1102 415 1102 m 716 1102 q 614 1132 649 1102 q 579 1215 579 1161 q 614 1300 579 1270 q 716 1329 649 1329 q 818 1300 783 1329 q 852 1215 852 1270 q 818 1132 852 1161 q 716 1102 783 1102 z "},"Ụ":{"ha":1058,"x_min":79,"x_max":978,"o":"m 532 -14 q 189 98 299 -14 q 79 439 79 209 l 79 1028 l 346 1028 l 346 414 q 392 254 346 304 q 532 203 438 203 q 672 254 626 203 q 717 414 717 304 l 717 1028 l 978 1028 l 978 439 q 870 98 978 210 q 532 -14 762 -14 m 532 -308 q 415 -278 454 -308 q 375 -194 375 -248 q 415 -110 375 -140 q 532 -80 454 -80 q 649 -110 609 -80 q 688 -194 688 -140 q 649 -278 688 -248 q 532 -308 609 -308 z "},"Ù":{"ha":1058,"x_min":79,"x_max":978,"o":"m 532 -14 q 189 98 299 -14 q 79 439 79 209 l 79 1028 l 346 1028 l 346 414 q 392 254 346 304 q 532 203 438 203 q 672 254 626 203 q 717 414 717 304 l 717 1028 l 978 1028 l 978 439 q 870 98 978 210 q 532 -14 762 -14 m 414 1104 l 249 1319 l 523 1319 l 649 1104 l 414 1104 z "},"Ủ":{"ha":1058,"x_min":79,"x_max":978,"o":"m 532 -14 q 189 98 299 -14 q 79 439 79 209 l 79 1028 l 346 1028 l 346 414 q 392 254 346 304 q 532 203 438 203 q 672 254 626 203 q 717 414 717 304 l 717 1028 l 978 1028 l 978 439 q 870 98 978 210 q 532 -14 762 -14 m 468 1104 q 490 1153 470 1135 q 545 1188 510 1171 q 574 1203 565 1197 q 583 1218 583 1210 q 566 1236 583 1231 q 509 1242 548 1242 q 376 1226 441 1242 l 376 1319 q 449 1332 406 1327 q 529 1336 492 1336 q 672 1312 626 1336 q 718 1238 718 1288 q 700 1191 718 1208 q 648 1154 682 1174 q 610 1129 622 1140 q 595 1104 597 1119 l 468 1104 z "},"Ư":{"ha":1060,"x_min":79,"x_max":1105,"o":"m 532 -14 q 189 98 299 -14 q 79 439 79 209 l 79 1028 l 346 1028 l 346 414 q 392 254 346 304 q 532 203 438 203 q 672 254 626 203 q 717 414 717 304 l 717 1028 l 801 1028 q 898 1052 867 1028 q 929 1136 929 1077 q 919 1233 929 1179 l 1091 1233 q 1105 1125 1105 1185 q 1072 997 1105 1047 q 978 927 1039 947 l 978 439 q 870 98 978 210 q 532 -14 762 -14 z "},"Ứ":{"ha":1060,"x_min":79,"x_max":1105,"o":"m 532 -14 q 189 98 299 -14 q 79 439 79 209 l 79 1028 l 346 1028 l 346 414 q 392 254 346 304 q 532 203 438 203 q 672 254 626 203 q 717 414 717 304 l 717 1028 l 801 1028 q 898 1052 867 1028 q 929 1136 929 1077 q 919 1233 929 1179 l 1091 1233 q 1105 1125 1105 1185 q 1072 997 1105 1047 q 978 927 1039 947 l 978 439 q 870 98 978 210 q 532 -14 762 -14 m 410 1104 l 536 1319 l 810 1319 l 645 1104 l 410 1104 z "},"Ự":{"ha":1060,"x_min":79,"x_max":1105,"o":"m 532 -14 q 189 98 299 -14 q 79 439 79 209 l 79 1028 l 346 1028 l 346 414 q 392 254 346 304 q 532 203 438 203 q 672 254 626 203 q 717 414 717 304 l 717 1028 l 801 1028 q 898 1052 867 1028 q 929 1136 929 1077 q 919 1233 929 1179 l 1091 1233 q 1105 1125 1105 1185 q 1072 997 1105 1047 q 978 927 1039 947 l 978 439 q 870 98 978 210 q 532 -14 762 -14 m 529 -308 q 412 -278 451 -308 q 372 -194 372 -248 q 412 -110 372 -140 q 529 -80 451 -80 q 646 -110 606 -80 q 685 -194 685 -140 q 646 -278 685 -248 q 529 -308 606 -308 z "},"Ừ":{"ha":1060,"x_min":79,"x_max":1105,"o":"m 532 -14 q 189 98 299 -14 q 79 439 79 209 l 79 1028 l 346 1028 l 346 414 q 392 254 346 304 q 532 203 438 203 q 672 254 626 203 q 717 414 717 304 l 717 1028 l 801 1028 q 898 1052 867 1028 q 929 1136 929 1077 q 919 1233 929 1179 l 1091 1233 q 1105 1125 1105 1185 q 1072 997 1105 1047 q 978 927 1039 947 l 978 439 q 870 98 978 210 q 532 -14 762 -14 m 411 1104 l 247 1319 l 520 1319 l 647 1104 l 411 1104 z "},"Ử":{"ha":1060,"x_min":79,"x_max":1105,"o":"m 532 -14 q 189 98 299 -14 q 79 439 79 209 l 79 1028 l 346 1028 l 346 414 q 392 254 346 304 q 532 203 438 203 q 672 254 626 203 q 717 414 717 304 l 717 1028 l 801 1028 q 898 1052 867 1028 q 929 1136 929 1077 q 919 1233 929 1179 l 1091 1233 q 1105 1125 1105 1185 q 1072 997 1105 1047 q 978 927 1039 947 l 978 439 q 870 98 978 210 q 532 -14 762 -14 m 465 1104 q 488 1153 467 1135 q 542 1188 508 1171 q 571 1203 562 1197 q 581 1218 581 1210 q 563 1236 581 1231 q 506 1242 545 1242 q 373 1226 438 1242 l 373 1319 q 446 1332 403 1327 q 526 1336 489 1336 q 669 1312 623 1336 q 715 1238 715 1288 q 697 1191 715 1208 q 645 1154 679 1174 q 607 1129 619 1140 q 592 1104 594 1119 l 465 1104 z "},"Ữ":{"ha":1060,"x_min":79,"x_max":1105,"o":"m 532 -14 q 189 98 299 -14 q 79 439 79 209 l 79 1028 l 346 1028 l 346 414 q 392 254 346 304 q 532 203 438 203 q 672 254 626 203 q 717 414 717 304 l 717 1028 l 801 1028 q 898 1052 867 1028 q 929 1136 929 1077 q 919 1233 929 1179 l 1091 1233 q 1105 1125 1105 1185 q 1072 997 1105 1047 q 978 927 1039 947 l 978 439 q 870 98 978 210 q 532 -14 762 -14 m 653 1112 q 588 1119 618 1112 q 517 1140 558 1126 q 453 1158 478 1152 q 400 1165 428 1165 q 324 1153 357 1165 q 255 1116 290 1142 l 255 1262 q 320 1301 285 1289 q 405 1314 356 1314 q 469 1307 440 1314 q 541 1285 498 1300 q 604 1266 578 1272 q 658 1260 630 1260 q 734 1271 701 1260 q 803 1308 767 1283 l 803 1163 q 738 1124 774 1136 q 653 1112 703 1112 z "},"Ű":{"ha":1058,"x_min":79,"x_max":978,"o":"m 532 -14 q 189 98 299 -14 q 79 439 79 209 l 79 1028 l 346 1028 l 346 414 q 392 254 346 304 q 532 203 438 203 q 672 254 626 203 q 717 414 717 304 l 717 1028 l 978 1028 l 978 439 q 870 98 978 210 q 532 -14 762 -14 m 287 1104 l 383 1319 l 588 1319 l 478 1104 l 287 1104 m 585 1104 l 682 1319 l 886 1319 l 776 1104 l 585 1104 z "},"Ȗ":{"ha":1058,"x_min":79,"x_max":978,"o":"m 532 -14 q 189 98 299 -14 q 79 439 79 209 l 79 1028 l 346 1028 l 346 414 q 392 254 346 304 q 532 203 438 203 q 672 254 626 203 q 717 414 717 304 l 717 1028 l 978 1028 l 978 439 q 870 98 978 210 q 532 -14 762 -14 m 250 1107 q 333 1262 263 1206 q 531 1318 404 1318 q 730 1262 659 1318 q 813 1107 801 1206 l 656 1107 q 618 1173 648 1151 q 531 1194 588 1194 q 445 1173 476 1194 q 407 1107 415 1151 l 250 1107 z "},"Ū":{"ha":1058,"x_min":79,"x_max":978,"o":"m 532 -14 q 189 98 299 -14 q 79 439 79 209 l 79 1028 l 346 1028 l 346 414 q 392 254 346 304 q 532 203 438 203 q 672 254 626 203 q 717 414 717 304 l 717 1028 l 978 1028 l 978 439 q 870 98 978 210 q 532 -14 762 -14 m 260 1135 l 260 1290 l 803 1290 l 803 1135 l 260 1135 z "},"Ṻ":{"ha":1058,"x_min":79,"x_max":978,"o":"m 532 -14 q 189 98 299 -14 q 79 439 79 209 l 79 1028 l 346 1028 l 346 414 q 392 254 346 304 q 532 203 438 203 q 672 254 626 203 q 717 414 717 304 l 717 1028 l 978 1028 l 978 439 q 870 98 978 210 q 532 -14 762 -14 m 260 1135 l 260 1290 l 803 1290 l 803 1135 l 260 1135 m 347 1363 q 245 1393 280 1363 q 211 1476 211 1422 q 245 1561 211 1531 q 347 1590 280 1590 q 449 1561 415 1590 q 484 1476 484 1531 q 449 1393 484 1422 q 347 1363 415 1363 m 716 1363 q 614 1393 649 1363 q 579 1476 579 1422 q 614 1561 579 1531 q 716 1590 649 1590 q 818 1561 783 1590 q 852 1476 852 1531 q 818 1393 852 1422 q 716 1363 783 1363 z "},"Ų":{"ha":1058,"x_min":79,"x_max":978,"o":"m 978 1028 l 978 439 q 917 160 978 266 q 728 13 856 54 q 574 -62 616 -24 q 531 -144 531 -100 q 628 -212 531 -212 q 723 -194 672 -212 l 723 -292 q 592 -313 660 -313 q 437 -274 489 -313 q 385 -163 385 -234 q 407 -81 385 -119 q 477 -12 428 -44 q 176 112 272 1 q 79 439 79 223 l 79 1028 l 346 1028 l 346 414 q 392 254 346 304 q 532 203 438 203 q 672 254 626 203 q 717 414 717 304 l 717 1028 l 978 1028 z "},"Ů":{"ha":1058,"x_min":79,"x_max":978,"o":"m 532 -14 q 189 98 299 -14 q 79 439 79 209 l 79 1028 l 346 1028 l 346 414 q 392 254 346 304 q 532 203 438 203 q 672 254 626 203 q 717 414 717 304 l 717 1028 l 978 1028 l 978 439 q 870 98 978 210 q 532 -14 762 -14 m 532 1094 q 452 1114 488 1094 q 398 1167 417 1133 q 378 1244 378 1201 q 398 1321 378 1287 q 452 1374 417 1355 q 532 1393 488 1393 q 611 1374 576 1393 q 666 1321 646 1355 q 685 1244 685 1287 q 666 1167 685 1201 q 611 1114 646 1133 q 532 1094 576 1094 m 532 1182 q 575 1199 558 1182 q 591 1244 591 1215 q 575 1289 591 1272 q 532 1306 558 1306 q 489 1289 506 1306 q 472 1244 472 1272 q 489 1199 472 1215 q 532 1182 505 1182 z "},"Ũ":{"ha":1058,"x_min":79,"x_max":978,"o":"m 532 -14 q 189 98 299 -14 q 79 439 79 209 l 79 1028 l 346 1028 l 346 414 q 392 254 346 304 q 532 203 438 203 q 672 254 626 203 q 717 414 717 304 l 717 1028 l 978 1028 l 978 439 q 870 98 978 210 q 532 -14 762 -14 m 656 1112 q 591 1119 621 1112 q 519 1140 560 1126 q 456 1158 481 1152 q 403 1165 431 1165 q 326 1153 360 1165 q 258 1116 293 1142 l 258 1262 q 323 1301 288 1289 q 408 1314 359 1314 q 472 1307 442 1314 q 544 1285 501 1300 q 607 1266 581 1272 q 660 1260 633 1260 q 737 1271 703 1260 q 806 1308 770 1283 l 806 1163 q 741 1124 776 1136 q 656 1112 706 1112 z "},"Ṹ":{"ha":1058,"x_min":79,"x_max":978,"o":"m 532 -14 q 189 98 299 -14 q 79 439 79 209 l 79 1028 l 346 1028 l 346 414 q 392 254 346 304 q 532 203 438 203 q 672 254 626 203 q 717 414 717 304 l 717 1028 l 978 1028 l 978 439 q 870 98 978 210 q 532 -14 762 -14 m 400 1369 l 526 1531 l 828 1531 l 664 1369 l 400 1369 m 656 1112 q 591 1119 621 1112 q 519 1140 560 1126 q 456 1158 481 1152 q 403 1165 431 1165 q 326 1153 360 1165 q 258 1116 293 1142 l 258 1262 q 323 1301 288 1289 q 408 1314 359 1314 q 472 1307 442 1314 q 544 1285 501 1300 q 607 1266 581 1272 q 660 1260 633 1260 q 737 1271 703 1260 q 806 1308 770 1283 l 806 1163 q 741 1124 776 1136 q 656 1112 706 1112 z "},"V":{"ha":1024,"x_min":-2,"x_max":1026,"o":"m 767 1028 l 1026 1028 l 709 0 l 315 0 l -2 1028 l 276 1028 l 519 206 l 767 1028 z "},"W":{"ha":1624,"x_min":15,"x_max":1609,"o":"m 1358 1028 l 1609 1028 l 1344 0 l 1003 0 l 817 733 l 621 0 l 280 0 l 15 1028 l 284 1028 l 471 251 l 674 1028 l 966 1028 l 1162 238 l 1358 1028 z "},"Ẃ":{"ha":1624,"x_min":15,"x_max":1609,"o":"m 1358 1028 l 1609 1028 l 1344 0 l 1003 0 l 817 733 l 621 0 l 280 0 l 15 1028 l 284 1028 l 471 251 l 674 1028 l 966 1028 l 1162 238 l 1358 1028 m 694 1104 l 819 1319 l 1093 1319 l 928 1104 l 694 1104 z "},"Ŵ":{"ha":1624,"x_min":15,"x_max":1609,"o":"m 1358 1028 l 1609 1028 l 1344 0 l 1003 0 l 817 733 l 621 0 l 280 0 l 15 1028 l 284 1028 l 471 251 l 674 1028 l 966 1028 l 1162 238 l 1358 1028 m 1102 1104 l 908 1104 l 813 1226 l 716 1104 l 522 1104 l 703 1319 l 922 1319 l 1102 1104 z "},"Ẅ":{"ha":1624,"x_min":15,"x_max":1609,"o":"m 1358 1028 l 1609 1028 l 1344 0 l 1003 0 l 817 733 l 621 0 l 280 0 l 15 1028 l 284 1028 l 471 251 l 674 1028 l 966 1028 l 1162 238 l 1358 1028 m 628 1102 q 526 1132 560 1102 q 492 1215 492 1161 q 526 1300 492 1270 q 628 1329 560 1329 q 730 1300 695 1329 q 765 1215 765 1270 q 730 1132 765 1161 q 628 1102 695 1102 m 997 1102 q 894 1132 929 1102 q 860 1215 860 1161 q 894 1300 860 1270 q 997 1329 929 1329 q 1098 1300 1064 1329 q 1133 1215 1133 1270 q 1098 1132 1133 1161 q 997 1102 1064 1102 z "},"Ẁ":{"ha":1624,"x_min":15,"x_max":1609,"o":"m 1358 1028 l 1609 1028 l 1344 0 l 1003 0 l 817 733 l 621 0 l 280 0 l 15 1028 l 284 1028 l 471 251 l 674 1028 l 966 1028 l 1162 238 l 1358 1028 m 694 1104 l 530 1319 l 803 1319 l 930 1104 l 694 1104 z "},"X":{"ha":980,"x_min":-33,"x_max":1010,"o":"m 644 539 l 1010 0 l 717 0 l 487 346 l 257 0 l -33 0 l 333 535 l -4 1028 l 290 1028 l 490 730 l 690 1028 l 976 1028 l 644 539 z "},"Y":{"ha":920,"x_min":-41,"x_max":953,"o":"m 953 1028 l 595 429 l 595 0 l 328 0 l 328 426 l -41 1028 l 240 1028 l 467 651 l 692 1028 l 953 1028 z "},"Ý":{"ha":920,"x_min":-41,"x_max":953,"o":"m 953 1028 l 595 429 l 595 0 l 328 0 l 328 426 l -41 1028 l 240 1028 l 467 651 l 692 1028 l 953 1028 m 342 1104 l 467 1319 l 741 1319 l 576 1104 l 342 1104 z "},"Ŷ":{"ha":920,"x_min":-41,"x_max":953,"o":"m 953 1028 l 595 429 l 595 0 l 328 0 l 328 426 l -41 1028 l 240 1028 l 467 651 l 692 1028 l 953 1028 m 750 1104 l 556 1104 l 460 1226 l 364 1104 l 170 1104 l 351 1319 l 570 1319 l 750 1104 z "},"Ÿ":{"ha":920,"x_min":-41,"x_max":953,"o":"m 953 1028 l 595 429 l 595 0 l 328 0 l 328 426 l -41 1028 l 240 1028 l 467 651 l 692 1028 l 953 1028 m 276 1102 q 174 1132 208 1102 q 140 1215 140 1161 q 174 1300 140 1270 q 276 1329 208 1329 q 378 1300 343 1329 q 413 1215 413 1270 q 378 1132 413 1161 q 276 1102 343 1102 m 644 1102 q 542 1132 577 1102 q 508 1215 508 1161 q 542 1300 508 1270 q 644 1329 577 1329 q 746 1300 712 1329 q 781 1215 781 1270 q 746 1132 781 1161 q 644 1102 712 1102 z "},"Ẏ":{"ha":920,"x_min":-41,"x_max":953,"o":"m 953 1028 l 595 429 l 595 0 l 328 0 l 328 426 l -41 1028 l 240 1028 l 467 651 l 692 1028 l 953 1028 m 460 1102 q 343 1132 383 1102 q 303 1215 303 1161 q 343 1300 303 1270 q 460 1329 383 1329 q 577 1300 538 1329 q 617 1215 617 1270 q 577 1132 617 1161 q 460 1102 538 1102 z "},"Ỵ":{"ha":920,"x_min":-41,"x_max":953,"o":"m 953 1028 l 595 429 l 595 0 l 328 0 l 328 426 l -41 1028 l 240 1028 l 467 651 l 692 1028 l 953 1028 m 460 -308 q 342 -278 382 -308 q 303 -194 303 -248 q 342 -110 303 -140 q 460 -80 382 -80 q 576 -110 537 -80 q 616 -194 616 -140 q 576 -278 616 -248 q 460 -308 537 -308 z "},"Ỳ":{"ha":920,"x_min":-41,"x_max":953,"o":"m 953 1028 l 595 429 l 595 0 l 328 0 l 328 426 l -41 1028 l 240 1028 l 467 651 l 692 1028 l 953 1028 m 342 1104 l 178 1319 l 451 1319 l 578 1104 l 342 1104 z "},"Ỷ":{"ha":920,"x_min":-41,"x_max":953,"o":"m 953 1028 l 595 429 l 595 0 l 328 0 l 328 426 l -41 1028 l 240 1028 l 467 651 l 692 1028 l 953 1028 m 397 1104 q 419 1153 399 1135 q 474 1188 439 1171 q 502 1203 493 1197 q 512 1218 512 1210 q 494 1236 512 1231 q 438 1242 476 1242 q 304 1226 369 1242 l 304 1319 q 377 1332 334 1327 q 458 1336 420 1336 q 600 1312 554 1336 q 647 1238 647 1288 q 628 1191 647 1208 q 576 1154 610 1174 q 538 1129 551 1140 q 524 1104 526 1119 l 397 1104 z "},"Ȳ":{"ha":920,"x_min":-41,"x_max":953,"o":"m 953 1028 l 595 429 l 595 0 l 328 0 l 328 426 l -41 1028 l 240 1028 l 467 651 l 692 1028 l 953 1028 m 189 1135 l 189 1290 l 731 1290 l 731 1135 l 189 1135 z "},"Ỹ":{"ha":920,"x_min":-41,"x_max":953,"o":"m 953 1028 l 595 429 l 595 0 l 328 0 l 328 426 l -41 1028 l 240 1028 l 467 651 l 692 1028 l 953 1028 m 584 1112 q 519 1119 549 1112 q 448 1140 489 1126 q 384 1158 409 1152 q 331 1165 359 1165 q 255 1153 288 1165 q 186 1116 222 1142 l 186 1262 q 252 1301 216 1289 q 336 1314 288 1314 q 400 1307 371 1314 q 472 1285 429 1300 q 535 1266 510 1272 q 589 1260 561 1260 q 665 1271 632 1260 q 734 1308 699 1283 l 734 1163 q 669 1124 705 1136 q 584 1112 634 1112 z "},"Z":{"ha":883,"x_min":41,"x_max":842,"o":"m 385 219 l 842 219 l 842 0 l 41 0 l 41 146 l 490 808 l 48 808 l 48 1028 l 834 1028 l 834 882 l 385 219 z "},"Ź":{"ha":883,"x_min":41,"x_max":842,"o":"m 385 219 l 842 219 l 842 0 l 41 0 l 41 146 l 490 808 l 48 808 l 48 1028 l 834 1028 l 834 882 l 385 219 m 324 1104 l 449 1319 l 723 1319 l 558 1104 l 324 1104 z "},"Ž":{"ha":883,"x_min":41,"x_max":842,"o":"m 385 219 l 842 219 l 842 0 l 41 0 l 41 146 l 490 808 l 48 808 l 48 1028 l 834 1028 l 834 882 l 385 219 m 538 1319 l 732 1319 l 552 1104 l 333 1104 l 152 1319 l 346 1319 l 442 1198 l 538 1319 z "},"Ż":{"ha":883,"x_min":41,"x_max":842,"o":"m 385 219 l 842 219 l 842 0 l 41 0 l 41 146 l 490 808 l 48 808 l 48 1028 l 834 1028 l 834 882 l 385 219 m 442 1102 q 325 1132 365 1102 q 285 1215 285 1161 q 325 1300 285 1270 q 442 1329 365 1329 q 559 1300 519 1329 q 599 1215 599 1270 q 559 1132 599 1161 q 442 1102 519 1102 z "},"Ẓ":{"ha":883,"x_min":41,"x_max":842,"o":"m 385 219 l 842 219 l 842 0 l 41 0 l 41 146 l 490 808 l 48 808 l 48 1028 l 834 1028 l 834 882 l 385 219 m 440 -308 q 322 -278 362 -308 q 283 -194 283 -248 q 322 -110 283 -140 q 440 -80 362 -80 q 556 -110 517 -80 q 596 -194 596 -140 q 556 -278 596 -248 q 440 -308 517 -308 z "},"a":{"ha":798,"x_min":37,"x_max":728,"o":"m 358 774 q 572 742 491 774 q 690 636 652 710 q 728 436 728 563 l 728 0 l 515 0 l 497 72 l 485 72 q 403 7 453 28 q 290 -15 353 -15 q 154 14 211 -15 q 67 93 97 42 q 37 210 37 144 q 116 384 37 323 q 367 456 196 446 l 474 463 q 457 531 473 506 q 405 567 440 556 q 309 578 370 578 q 207 571 263 578 q 102 549 151 563 l 102 742 q 227 766 159 758 q 358 774 296 774 m 378 164 q 428 172 403 164 q 474 196 453 179 l 474 322 l 395 316 q 318 292 342 313 q 293 235 293 272 q 315 182 293 201 q 378 164 337 164 z "},"á":{"ha":798,"x_min":37,"x_max":728,"o":"m 358 774 q 572 742 491 774 q 690 636 652 710 q 728 436 728 563 l 728 0 l 515 0 l 497 72 l 485 72 q 403 7 453 28 q 290 -15 353 -15 q 154 14 211 -15 q 67 93 97 42 q 37 210 37 144 q 116 384 37 323 q 367 456 196 446 l 474 463 q 457 531 473 506 q 405 567 440 556 q 309 578 370 578 q 207 571 263 578 q 102 549 151 563 l 102 742 q 227 766 159 758 q 358 774 296 774 m 378 164 q 428 172 403 164 q 474 196 453 179 l 474 322 l 395 316 q 318 292 342 313 q 293 235 293 272 q 315 182 293 201 q 378 164 337 164 m 277 851 l 436 1122 l 712 1122 l 515 851 l 277 851 z "},"ă":{"ha":798,"x_min":37,"x_max":728,"o":"m 358 774 q 572 742 491 774 q 690 636 652 710 q 728 436 728 563 l 728 0 l 515 0 l 497 72 l 485 72 q 403 7 453 28 q 290 -15 353 -15 q 154 14 211 -15 q 67 93 97 42 q 37 210 37 144 q 116 384 37 323 q 367 456 196 446 l 474 463 q 457 531 473 506 q 405 567 440 556 q 309 578 370 578 q 207 571 263 578 q 102 549 151 563 l 102 742 q 227 766 159 758 q 358 774 296 774 m 378 164 q 428 172 403 164 q 474 196 453 179 l 474 322 l 395 316 q 318 292 342 313 q 293 235 293 272 q 315 182 293 201 q 378 164 337 164 m 397 858 q 204 922 274 858 q 128 1108 135 985 l 283 1108 q 316 1017 288 1047 q 397 987 344 987 q 477 1016 449 987 q 509 1108 504 1046 l 665 1108 q 589 921 658 985 q 397 858 519 858 z "},"ắ":{"ha":798,"x_min":37,"x_max":728,"o":"m 358 774 q 572 742 491 774 q 690 636 652 710 q 728 436 728 563 l 728 0 l 515 0 l 497 72 l 485 72 q 403 7 453 28 q 290 -15 353 -15 q 154 14 211 -15 q 67 93 97 42 q 37 210 37 144 q 116 384 37 323 q 367 456 196 446 l 474 463 q 457 531 473 506 q 405 567 440 556 q 309 578 370 578 q 207 571 263 578 q 102 549 151 563 l 102 742 q 227 766 159 758 q 358 774 296 774 m 378 164 q 428 172 403 164 q 474 196 453 179 l 474 322 l 395 316 q 318 292 342 313 q 293 235 293 272 q 315 182 293 201 q 378 164 337 164 m 305 1110 l 431 1297 l 649 1297 l 485 1110 l 305 1110 m 397 860 q 200 918 270 860 q 117 1079 129 976 l 274 1079 q 311 1007 281 1031 q 397 983 342 983 q 481 1007 451 983 q 519 1079 511 1031 l 676 1079 q 593 918 664 976 q 397 860 523 860 z "},"ặ":{"ha":798,"x_min":37,"x_max":728,"o":"m 358 774 q 572 742 491 774 q 690 636 652 710 q 728 436 728 563 l 728 0 l 515 0 l 497 72 l 485 72 q 403 7 453 28 q 290 -15 353 -15 q 154 14 211 -15 q 67 93 97 42 q 37 210 37 144 q 116 384 37 323 q 367 456 196 446 l 474 463 q 457 531 473 506 q 405 567 440 556 q 309 578 370 578 q 207 571 263 578 q 102 549 151 563 l 102 742 q 227 766 159 758 q 358 774 296 774 m 378 164 q 428 172 403 164 q 474 196 453 179 l 474 322 l 395 316 q 318 292 342 313 q 293 235 293 272 q 315 182 293 201 q 378 164 337 164 m 398 -329 q 296 -296 331 -329 q 260 -204 260 -262 q 296 -113 260 -146 q 398 -80 332 -80 q 499 -113 464 -80 q 535 -204 535 -146 q 499 -296 535 -262 q 398 -329 464 -329 m 397 858 q 204 922 274 858 q 128 1108 135 985 l 283 1108 q 316 1017 288 1047 q 397 987 344 987 q 477 1016 449 987 q 509 1108 504 1046 l 665 1108 q 589 921 658 985 q 397 858 519 858 z "},"ằ":{"ha":798,"x_min":37,"x_max":728,"o":"m 358 774 q 572 742 491 774 q 690 636 652 710 q 728 436 728 563 l 728 0 l 515 0 l 497 72 l 485 72 q 403 7 453 28 q 290 -15 353 -15 q 154 14 211 -15 q 67 93 97 42 q 37 210 37 144 q 116 384 37 323 q 367 456 196 446 l 474 463 q 457 531 473 506 q 405 567 440 556 q 309 578 370 578 q 207 571 263 578 q 102 549 151 563 l 102 742 q 227 766 159 758 q 358 774 296 774 m 378 164 q 428 172 403 164 q 474 196 453 179 l 474 322 l 395 316 q 318 292 342 313 q 293 235 293 272 q 315 182 293 201 q 378 164 337 164 m 308 1110 l 143 1297 l 361 1297 l 488 1110 l 308 1110 m 397 860 q 200 918 270 860 q 117 1079 129 976 l 274 1079 q 311 1007 281 1031 q 397 983 342 983 q 481 1007 451 983 q 519 1079 511 1031 l 676 1079 q 593 918 664 976 q 397 860 523 860 z "},"ẳ":{"ha":798,"x_min":37,"x_max":728,"o":"m 358 774 q 572 742 491 774 q 690 636 652 710 q 728 436 728 563 l 728 0 l 515 0 l 497 72 l 485 72 q 403 7 453 28 q 290 -15 353 -15 q 154 14 211 -15 q 67 93 97 42 q 37 210 37 144 q 116 384 37 323 q 367 456 196 446 l 474 463 q 457 531 473 506 q 405 567 440 556 q 309 578 370 578 q 207 571 263 578 q 102 549 151 563 l 102 742 q 227 766 159 758 q 358 774 296 774 m 378 164 q 428 172 403 164 q 474 196 453 179 l 474 322 l 395 316 q 318 292 342 313 q 293 235 293 272 q 315 182 293 201 q 378 164 337 164 m 333 1110 q 355 1152 335 1137 q 409 1183 374 1167 q 439 1197 430 1192 q 448 1210 448 1203 q 374 1231 448 1231 q 240 1217 308 1231 l 240 1297 q 313 1308 270 1304 q 394 1313 356 1313 q 537 1291 491 1313 q 583 1226 583 1270 q 565 1186 583 1201 q 513 1153 547 1171 q 474 1132 487 1141 q 460 1110 462 1123 l 333 1110 m 397 860 q 200 918 270 860 q 117 1079 129 976 l 274 1079 q 311 1007 281 1031 q 397 983 342 983 q 481 1007 451 983 q 519 1079 511 1031 l 676 1079 q 593 918 664 976 q 397 860 523 860 z "},"ẵ":{"ha":798,"x_min":37,"x_max":728,"o":"m 358 774 q 572 742 491 774 q 690 636 652 710 q 728 436 728 563 l 728 0 l 515 0 l 497 72 l 485 72 q 403 7 453 28 q 290 -15 353 -15 q 154 14 211 -15 q 67 93 97 42 q 37 210 37 144 q 116 384 37 323 q 367 456 196 446 l 474 463 q 457 531 473 506 q 405 567 440 556 q 309 578 370 578 q 207 571 263 578 q 102 549 151 563 l 102 742 q 227 766 159 758 q 358 774 296 774 m 378 164 q 428 172 403 164 q 474 196 453 179 l 474 322 l 395 316 q 318 292 342 313 q 293 235 293 272 q 315 182 293 201 q 378 164 337 164 m 524 1116 q 458 1122 489 1116 q 384 1140 427 1128 q 318 1157 343 1151 q 264 1163 292 1163 q 185 1152 219 1163 q 115 1119 151 1142 l 115 1246 q 182 1281 145 1270 q 269 1292 218 1292 q 336 1285 304 1292 q 408 1267 367 1279 q 475 1250 449 1256 q 528 1244 501 1244 q 607 1255 573 1244 q 678 1287 642 1265 l 678 1161 q 611 1127 648 1138 q 524 1116 575 1116 m 397 860 q 200 918 270 860 q 117 1079 129 976 l 274 1079 q 311 1007 281 1031 q 397 983 342 983 q 481 1007 451 983 q 519 1079 511 1031 l 676 1079 q 593 918 664 976 q 397 860 523 860 z "},"â":{"ha":798,"x_min":37,"x_max":728,"o":"m 358 774 q 572 742 491 774 q 690 636 652 710 q 728 436 728 563 l 728 0 l 515 0 l 497 72 l 485 72 q 403 7 453 28 q 290 -15 353 -15 q 154 14 211 -15 q 67 93 97 42 q 37 210 37 144 q 116 384 37 323 q 367 456 196 446 l 474 463 q 457 531 473 506 q 405 567 440 556 q 309 578 370 578 q 207 571 263 578 q 102 549 151 563 l 102 742 q 227 766 159 758 q 358 774 296 774 m 378 164 q 428 172 403 164 q 474 196 453 179 l 474 322 l 395 316 q 318 292 342 313 q 293 235 293 272 q 315 182 293 201 q 378 164 337 164 m 666 851 l 482 851 l 397 1003 l 310 851 l 127 851 l 291 1122 l 501 1122 l 666 851 z "},"ấ":{"ha":798,"x_min":37,"x_max":903,"o":"m 358 774 q 572 742 491 774 q 690 636 652 710 q 728 436 728 563 l 728 0 l 515 0 l 497 72 l 485 72 q 403 7 453 28 q 290 -15 353 -15 q 154 14 211 -15 q 67 93 97 42 q 37 210 37 144 q 116 384 37 323 q 367 456 196 446 l 474 463 q 457 531 473 506 q 405 567 440 556 q 309 578 370 578 q 207 571 263 578 q 102 549 151 563 l 102 742 q 227 766 159 758 q 358 774 296 774 m 378 164 q 428 172 403 164 q 474 196 453 179 l 474 322 l 395 316 q 318 292 342 313 q 293 235 293 272 q 315 182 293 201 q 378 164 337 164 m 685 1297 l 903 1297 l 739 1110 l 559 1110 l 685 1297 m 291 1122 l 501 1122 l 666 851 l 482 851 l 397 1003 l 310 851 l 127 851 l 291 1122 z "},"ậ":{"ha":798,"x_min":37,"x_max":728,"o":"m 358 774 q 572 742 491 774 q 690 636 652 710 q 728 436 728 563 l 728 0 l 515 0 l 497 72 l 485 72 q 403 7 453 28 q 290 -15 353 -15 q 154 14 211 -15 q 67 93 97 42 q 37 210 37 144 q 116 384 37 323 q 367 456 196 446 l 474 463 q 457 531 473 506 q 405 567 440 556 q 309 578 370 578 q 207 571 263 578 q 102 549 151 563 l 102 742 q 227 766 159 758 q 358 774 296 774 m 378 164 q 428 172 403 164 q 474 196 453 179 l 474 322 l 395 316 q 318 292 342 313 q 293 235 293 272 q 315 182 293 201 q 378 164 337 164 m 398 -329 q 296 -296 331 -329 q 260 -204 260 -262 q 296 -113 260 -146 q 398 -80 332 -80 q 499 -113 464 -80 q 535 -204 535 -146 q 499 -296 535 -262 q 398 -329 464 -329 m 666 851 l 482 851 l 397 1003 l 310 851 l 127 851 l 291 1122 l 501 1122 l 666 851 z "},"ầ":{"ha":798,"x_min":37,"x_max":764,"o":"m 358 774 q 572 742 491 774 q 690 636 652 710 q 728 436 728 563 l 728 0 l 515 0 l 497 72 l 485 72 q 403 7 453 28 q 290 -15 353 -15 q 154 14 211 -15 q 67 93 97 42 q 37 210 37 144 q 116 384 37 323 q 367 456 196 446 l 474 463 q 457 531 473 506 q 405 567 440 556 q 309 578 370 578 q 207 571 263 578 q 102 549 151 563 l 102 742 q 227 766 159 758 q 358 774 296 774 m 378 164 q 428 172 403 164 q 474 196 453 179 l 474 322 l 395 316 q 318 292 342 313 q 293 235 293 272 q 315 182 293 201 q 378 164 337 164 m 764 1110 l 584 1110 l 419 1297 l 638 1297 l 764 1110 m 291 1122 l 501 1122 l 666 851 l 482 851 l 397 1003 l 310 851 l 127 851 l 291 1122 z "},"ẩ":{"ha":798,"x_min":37,"x_max":791,"o":"m 358 774 q 572 742 491 774 q 690 636 652 710 q 728 436 728 563 l 728 0 l 515 0 l 497 72 l 485 72 q 403 7 453 28 q 290 -15 353 -15 q 154 14 211 -15 q 67 93 97 42 q 37 210 37 144 q 116 384 37 323 q 367 456 196 446 l 474 463 q 457 531 473 506 q 405 567 440 556 q 309 578 370 578 q 207 571 263 578 q 102 549 151 563 l 102 742 q 227 766 159 758 q 358 774 296 774 m 378 164 q 428 172 403 164 q 474 196 453 179 l 474 322 l 395 316 q 318 292 342 313 q 293 235 293 272 q 315 182 293 201 q 378 164 337 164 m 615 1313 q 749 1292 706 1313 q 791 1227 791 1272 q 776 1191 791 1204 q 732 1163 762 1178 q 693 1138 706 1149 q 676 1110 679 1127 l 558 1110 q 579 1157 560 1140 q 631 1188 598 1173 q 655 1199 647 1194 q 662 1210 662 1204 q 646 1227 662 1222 q 594 1232 630 1232 q 470 1219 525 1232 l 470 1297 q 538 1308 496 1304 q 615 1313 579 1313 m 291 1122 l 501 1122 l 666 851 l 482 851 l 397 1003 l 310 851 l 127 851 l 291 1122 z "},"ẫ":{"ha":798,"x_min":37,"x_max":728,"o":"m 358 774 q 572 742 491 774 q 690 636 652 710 q 728 436 728 563 l 728 0 l 515 0 l 497 72 l 485 72 q 403 7 453 28 q 290 -15 353 -15 q 154 14 211 -15 q 67 93 97 42 q 37 210 37 144 q 116 384 37 323 q 367 456 196 446 l 474 463 q 457 531 473 506 q 405 567 440 556 q 309 578 370 578 q 207 571 263 578 q 102 549 151 563 l 102 742 q 227 766 159 758 q 358 774 296 774 m 378 164 q 428 172 403 164 q 474 196 453 179 l 474 322 l 395 316 q 318 292 342 313 q 293 235 293 272 q 315 182 293 201 q 378 164 337 164 m 519 1116 q 456 1122 485 1116 q 384 1140 426 1128 q 323 1157 349 1151 q 269 1163 297 1163 q 192 1152 226 1163 q 124 1119 159 1142 l 124 1246 q 189 1281 153 1269 q 274 1292 225 1292 q 336 1286 308 1292 q 408 1267 364 1280 q 471 1249 445 1255 q 524 1244 497 1244 q 600 1254 567 1244 q 669 1287 633 1265 l 669 1160 q 603 1127 639 1138 q 519 1116 568 1116 m 684 853 l 491 853 l 397 981 l 301 853 l 108 853 l 287 1076 l 506 1076 l 684 853 z "},"ȁ":{"ha":798,"x_min":35,"x_max":728,"o":"m 358 774 q 572 742 491 774 q 690 636 652 710 q 728 436 728 563 l 728 0 l 515 0 l 497 72 l 485 72 q 403 7 453 28 q 290 -15 353 -15 q 154 14 211 -15 q 67 93 97 42 q 37 210 37 144 q 116 384 37 323 q 367 456 196 446 l 474 463 q 457 531 473 506 q 405 567 440 556 q 309 578 370 578 q 207 571 263 578 q 102 549 151 563 l 102 742 q 227 766 159 758 q 358 774 296 774 m 378 164 q 428 172 403 164 q 474 196 453 179 l 474 322 l 395 316 q 318 292 342 313 q 293 235 293 272 q 315 182 293 201 q 378 164 337 164 m 151 851 l 35 1122 l 240 1122 l 342 851 l 151 851 m 450 851 l 333 1122 l 538 1122 l 641 851 l 450 851 z "},"ä":{"ha":798,"x_min":37,"x_max":728,"o":"m 358 774 q 572 742 491 774 q 690 636 652 710 q 728 436 728 563 l 728 0 l 515 0 l 497 72 l 485 72 q 403 7 453 28 q 290 -15 353 -15 q 154 14 211 -15 q 67 93 97 42 q 37 210 37 144 q 116 384 37 323 q 367 456 196 446 l 474 463 q 457 531 473 506 q 405 567 440 556 q 309 578 370 578 q 207 571 263 578 q 102 549 151 563 l 102 742 q 227 766 159 758 q 358 774 296 774 m 378 164 q 428 172 403 164 q 474 196 453 179 l 474 322 l 395 316 q 318 292 342 313 q 293 235 293 272 q 315 182 293 201 q 378 164 337 164 m 219 858 q 117 891 153 858 q 82 985 82 925 q 117 1079 82 1045 q 219 1113 153 1113 q 321 1079 285 1113 q 356 985 356 1045 q 321 891 356 925 q 219 858 285 858 m 573 858 q 472 891 507 858 q 436 985 436 925 q 472 1079 436 1045 q 573 1113 507 1113 q 675 1079 640 1113 q 710 985 710 1045 q 675 891 710 925 q 573 858 640 858 z "},"ạ":{"ha":798,"x_min":37,"x_max":728,"o":"m 358 774 q 572 742 491 774 q 690 636 652 710 q 728 436 728 563 l 728 0 l 515 0 l 497 72 l 485 72 q 403 7 453 28 q 290 -15 353 -15 q 154 14 211 -15 q 67 93 97 42 q 37 210 37 144 q 116 384 37 323 q 367 456 196 446 l 474 463 q 457 531 473 506 q 405 567 440 556 q 309 578 370 578 q 207 571 263 578 q 102 549 151 563 l 102 742 q 227 766 159 758 q 358 774 296 774 m 378 164 q 428 172 403 164 q 474 196 453 179 l 474 322 l 395 316 q 318 292 342 313 q 293 235 293 272 q 315 182 293 201 q 378 164 337 164 m 398 -329 q 296 -296 331 -329 q 260 -204 260 -262 q 296 -113 260 -146 q 398 -80 332 -80 q 499 -113 464 -80 q 535 -204 535 -146 q 499 -296 535 -262 q 398 -329 464 -329 z "},"à":{"ha":798,"x_min":37,"x_max":728,"o":"m 358 774 q 572 742 491 774 q 690 636 652 710 q 728 436 728 563 l 728 0 l 515 0 l 497 72 l 485 72 q 403 7 453 28 q 290 -15 353 -15 q 154 14 211 -15 q 67 93 97 42 q 37 210 37 144 q 116 384 37 323 q 367 456 196 446 l 474 463 q 457 531 473 506 q 405 567 440 556 q 309 578 370 578 q 207 571 263 578 q 102 549 151 563 l 102 742 q 227 766 159 758 q 358 774 296 774 m 378 164 q 428 172 403 164 q 474 196 453 179 l 474 322 l 395 316 q 318 292 342 313 q 293 235 293 272 q 315 182 293 201 q 378 164 337 164 m 277 851 l 81 1122 l 356 1122 l 515 851 l 277 851 z "},"ả":{"ha":798,"x_min":37,"x_max":728,"o":"m 358 774 q 572 742 491 774 q 690 636 652 710 q 728 436 728 563 l 728 0 l 515 0 l 497 72 l 485 72 q 403 7 453 28 q 290 -15 353 -15 q 154 14 211 -15 q 67 93 97 42 q 37 210 37 144 q 116 384 37 323 q 367 456 196 446 l 474 463 q 457 531 473 506 q 405 567 440 556 q 309 578 370 578 q 207 571 263 578 q 102 549 151 563 l 102 742 q 227 766 159 758 q 358 774 296 774 m 378 164 q 428 172 403 164 q 474 196 453 179 l 474 322 l 395 316 q 318 292 342 313 q 293 235 293 272 q 315 182 293 201 q 378 164 337 164 m 333 851 q 353 915 335 892 q 401 961 371 939 q 427 984 419 975 q 435 1004 435 992 q 420 1026 435 1019 q 372 1033 406 1033 q 256 1017 315 1033 l 256 1113 q 321 1126 283 1121 q 392 1131 359 1131 q 527 1104 483 1131 q 570 1021 570 1077 q 562 978 570 996 q 542 949 554 960 q 511 922 531 937 q 474 889 486 903 q 460 851 462 874 l 333 851 z "},"ȃ":{"ha":798,"x_min":37,"x_max":728,"o":"m 358 774 q 572 742 491 774 q 690 636 652 710 q 728 436 728 563 l 728 0 l 515 0 l 497 72 l 485 72 q 403 7 453 28 q 290 -15 353 -15 q 154 14 211 -15 q 67 93 97 42 q 37 210 37 144 q 116 384 37 323 q 367 456 196 446 l 474 463 q 457 531 473 506 q 405 567 440 556 q 309 578 370 578 q 207 571 263 578 q 102 549 151 563 l 102 742 q 227 766 159 758 q 358 774 296 774 m 378 164 q 428 172 403 164 q 474 196 453 179 l 474 322 l 395 316 q 318 292 342 313 q 293 235 293 272 q 315 182 293 201 q 378 164 337 164 m 128 871 q 203 1057 135 994 q 396 1121 272 1121 q 588 1057 518 1121 q 665 871 658 993 l 509 871 q 476 963 504 933 q 396 993 449 993 q 315 964 342 993 q 283 871 288 934 l 128 871 z "},"ā":{"ha":798,"x_min":37,"x_max":728,"o":"m 358 774 q 572 742 491 774 q 690 636 652 710 q 728 436 728 563 l 728 0 l 515 0 l 497 72 l 485 72 q 403 7 453 28 q 290 -15 353 -15 q 154 14 211 -15 q 67 93 97 42 q 37 210 37 144 q 116 384 37 323 q 367 456 196 446 l 474 463 q 457 531 473 506 q 405 567 440 556 q 309 578 370 578 q 207 571 263 578 q 102 549 151 563 l 102 742 q 227 766 159 758 q 358 774 296 774 m 378 164 q 428 172 403 164 q 474 196 453 179 l 474 322 l 395 316 q 318 292 342 313 q 293 235 293 272 q 315 182 293 201 q 378 164 337 164 m 138 909 l 138 1063 l 654 1063 l 654 909 l 138 909 z "},"ą":{"ha":798,"x_min":37,"x_max":745,"o":"m 660 -213 q 745 -194 697 -213 l 745 -292 q 688 -308 716 -302 q 623 -314 659 -314 q 480 -274 529 -314 q 430 -163 430 -233 q 454 -74 430 -114 q 534 0 478 -33 l 515 0 l 497 72 l 485 72 q 403 7 453 28 q 290 -15 353 -15 q 154 14 211 -15 q 67 93 97 42 q 37 210 37 144 q 116 384 37 323 q 367 456 196 446 l 474 463 q 457 531 473 506 q 405 567 440 556 q 309 578 370 578 q 207 571 263 578 q 102 549 151 563 l 102 742 q 227 766 159 758 q 358 774 296 774 q 572 742 491 774 q 690 636 652 710 q 728 436 728 563 l 728 0 q 610 -68 644 -33 q 577 -147 577 -103 q 598 -195 577 -178 q 660 -213 619 -213 m 378 164 q 428 172 403 164 q 474 196 453 179 l 474 322 l 395 316 q 318 292 342 313 q 293 235 293 272 q 315 182 293 201 q 378 164 337 164 z "},"å":{"ha":798,"x_min":37,"x_max":728,"o":"m 358 774 q 572 742 491 774 q 690 636 652 710 q 728 436 728 563 l 728 0 l 515 0 l 497 72 l 485 72 q 403 7 453 28 q 290 -15 353 -15 q 154 14 211 -15 q 67 93 97 42 q 37 210 37 144 q 116 384 37 323 q 367 456 196 446 l 474 463 q 457 531 473 506 q 405 567 440 556 q 309 578 370 578 q 207 571 263 578 q 102 549 151 563 l 102 742 q 227 766 159 758 q 358 774 296 774 m 378 164 q 428 172 403 164 q 474 196 453 179 l 474 322 l 395 316 q 318 292 342 313 q 293 235 293 272 q 315 182 293 201 q 378 164 337 164 m 397 847 q 317 866 352 847 q 262 919 282 885 q 242 997 242 953 q 262 1074 242 1040 q 317 1127 282 1108 q 397 1146 352 1146 q 475 1127 440 1146 q 530 1074 510 1108 q 550 997 550 1040 q 530 919 550 953 q 475 866 510 885 q 397 847 440 847 m 397 935 q 439 952 423 935 q 456 997 456 969 q 439 1042 456 1025 q 397 1058 423 1058 q 353 1042 369 1058 q 337 997 337 1025 q 353 952 337 969 q 397 935 370 935 z "},"ǻ":{"ha":798,"x_min":37,"x_max":728,"o":"m 358 774 q 572 742 491 774 q 690 636 652 710 q 728 436 728 563 l 728 0 l 515 0 l 497 72 l 485 72 q 403 7 453 28 q 290 -15 353 -15 q 154 14 211 -15 q 67 93 97 42 q 37 210 37 144 q 116 384 37 323 q 367 456 196 446 l 474 463 q 457 531 473 506 q 405 567 440 556 q 309 578 370 578 q 207 571 263 578 q 102 549 151 563 l 102 742 q 227 766 159 758 q 358 774 296 774 m 378 164 q 428 172 403 164 q 474 196 453 179 l 474 322 l 395 316 q 318 292 342 313 q 293 235 293 272 q 315 182 293 201 q 378 164 337 164 m 532 1071 q 550 997 550 1038 q 530 919 550 953 q 475 866 510 885 q 397 847 440 847 q 317 866 352 847 q 262 919 282 885 q 242 997 242 953 q 262 1074 242 1040 q 317 1127 282 1108 q 397 1146 352 1146 q 419 1144 404 1146 l 490 1236 l 675 1236 l 532 1071 m 397 935 q 439 952 423 935 q 456 997 456 969 q 439 1042 456 1025 q 397 1058 423 1058 q 353 1042 369 1058 q 337 997 337 1025 q 353 952 337 969 q 397 935 370 935 z "},"ã":{"ha":798,"x_min":37,"x_max":728,"o":"m 358 774 q 572 742 491 774 q 690 636 652 710 q 728 436 728 563 l 728 0 l 515 0 l 497 72 l 485 72 q 403 7 453 28 q 290 -15 353 -15 q 154 14 211 -15 q 67 93 97 42 q 37 210 37 144 q 116 384 37 323 q 367 456 196 446 l 474 463 q 457 531 473 506 q 405 567 440 556 q 309 578 370 578 q 207 571 263 578 q 102 549 151 563 l 102 742 q 227 766 159 758 q 358 774 296 774 m 378 164 q 428 172 403 164 q 474 196 453 179 l 474 322 l 395 316 q 318 292 342 313 q 293 235 293 272 q 315 182 293 201 q 378 164 337 164 m 510 878 q 451 887 478 878 q 384 913 424 896 q 325 937 348 929 q 278 944 302 944 q 205 930 238 944 q 138 883 172 915 l 138 1042 q 202 1085 167 1072 q 283 1099 237 1099 q 341 1090 314 1099 q 408 1063 369 1081 q 467 1040 444 1047 q 515 1032 490 1032 q 588 1047 555 1032 q 654 1093 620 1061 l 654 934 q 590 891 625 905 q 510 878 556 878 z "},"æ":{"ha":1212,"x_min":37,"x_max":1177,"o":"m 1177 307 l 729 307 q 753 232 733 259 q 818 192 774 204 q 940 180 863 180 q 1133 202 1024 180 l 1133 9 q 904 -15 1019 -15 q 702 11 785 -15 q 567 90 619 37 q 314 -15 469 -15 q 161 14 224 -15 q 68 93 99 42 q 37 213 37 144 q 119 390 37 326 q 372 453 201 453 l 476 453 q 460 528 476 501 q 407 567 443 555 q 308 578 370 578 q 207 571 262 578 q 103 549 151 563 l 103 742 q 346 774 224 774 q 510 753 443 774 q 618 687 577 732 q 719 752 660 729 q 848 774 777 774 q 1025 728 951 774 q 1138 592 1099 682 q 1177 374 1177 502 l 1177 307 m 833 613 q 756 576 781 613 q 728 453 730 540 l 935 453 q 909 577 934 541 q 833 613 885 613 m 381 165 q 442 175 414 165 q 499 212 471 186 q 479 313 485 255 l 399 313 q 293 234 293 313 q 316 182 293 200 q 381 165 338 165 z "},"ǽ":{"ha":1212,"x_min":37,"x_max":1177,"o":"m 1177 307 l 729 307 q 753 232 733 259 q 818 192 774 204 q 940 180 863 180 q 1133 202 1024 180 l 1133 9 q 904 -15 1019 -15 q 702 11 785 -15 q 567 90 619 37 q 314 -15 469 -15 q 161 14 224 -15 q 68 93 99 42 q 37 213 37 144 q 119 390 37 326 q 372 453 201 453 l 476 453 q 460 528 476 501 q 407 567 443 555 q 308 578 370 578 q 207 571 262 578 q 103 549 151 563 l 103 742 q 346 774 224 774 q 510 753 443 774 q 618 687 577 732 q 719 752 660 729 q 848 774 777 774 q 1025 728 951 774 q 1138 592 1099 682 q 1177 374 1177 502 l 1177 307 m 833 613 q 756 576 781 613 q 728 453 730 540 l 935 453 q 909 577 934 541 q 833 613 885 613 m 381 165 q 442 175 414 165 q 499 212 471 186 q 479 313 485 255 l 399 313 q 293 234 293 313 q 316 182 293 200 q 381 165 338 165 m 488 851 l 647 1122 l 922 1122 l 726 851 l 488 851 z "},"b":{"ha":879,"x_min":74,"x_max":838,"o":"m 389 -15 q 225 -3 308 -15 q 74 31 143 8 l 74 1122 l 335 1122 l 335 690 l 347 690 q 429 752 381 731 q 540 774 478 774 q 690 733 623 774 q 798 607 758 692 q 838 397 838 522 q 726 90 838 194 q 389 -15 614 -15 m 412 181 q 535 227 495 181 q 575 376 575 272 q 540 520 575 479 q 438 562 506 562 q 382 554 409 562 q 335 531 356 547 l 335 190 q 412 181 369 181 z "},"c":{"ha":690,"x_min":42,"x_max":655,"o":"m 458 -15 q 149 85 255 -15 q 42 379 42 184 q 155 675 42 576 q 479 774 267 774 q 655 757 576 774 l 655 553 q 517 565 582 565 q 359 522 408 565 q 310 381 310 478 q 357 238 310 282 q 499 194 403 194 q 569 199 534 194 q 655 217 604 205 l 655 13 q 562 -7 613 0 q 458 -15 511 -15 z "},"ć":{"ha":690,"x_min":42,"x_max":694,"o":"m 458 -15 q 149 85 255 -15 q 42 379 42 184 q 155 675 42 576 q 479 774 267 774 q 655 757 576 774 l 655 553 q 517 565 582 565 q 359 522 408 565 q 310 381 310 478 q 357 238 310 282 q 499 194 403 194 q 569 199 534 194 q 655 217 604 205 l 655 13 q 562 -7 613 0 q 458 -15 511 -15 m 260 851 l 419 1122 l 694 1122 l 498 851 l 260 851 z "},"č":{"ha":690,"x_min":42,"x_max":655,"o":"m 458 -15 q 149 85 255 -15 q 42 379 42 184 q 155 675 42 576 q 479 774 267 774 q 655 757 576 774 l 655 553 q 517 565 582 565 q 359 522 408 565 q 310 381 310 478 q 357 238 310 282 q 499 194 403 194 q 569 199 534 194 q 655 217 604 205 l 655 13 q 562 -7 613 0 q 458 -15 511 -15 m 465 1122 l 649 1122 l 484 851 l 274 851 l 109 1122 l 293 1122 l 379 971 l 465 1122 z "},"ç":{"ha":690,"x_min":42,"x_max":655,"o":"m 517 565 q 359 522 408 565 q 310 381 310 478 q 357 238 310 282 q 499 194 403 194 q 569 199 534 194 q 655 217 604 205 l 655 13 q 564 -7 614 0 q 462 -15 514 -15 l 462 -57 q 547 -100 518 -68 q 576 -183 576 -133 q 529 -279 576 -244 q 388 -314 481 -314 q 259 -293 320 -314 l 259 -197 q 317 -212 285 -207 q 375 -217 349 -217 q 426 -207 409 -217 q 442 -172 442 -196 q 374 -124 442 -124 l 340 -124 l 340 -5 q 118 118 194 22 q 42 379 42 215 q 155 675 42 576 q 479 774 267 774 q 655 757 576 774 l 655 553 q 517 565 582 565 z "},"ḉ":{"ha":690,"x_min":42,"x_max":694,"o":"m 694 1122 l 498 851 l 260 851 l 419 1122 l 694 1122 m 42 379 q 155 675 42 576 q 479 774 267 774 q 655 757 576 774 l 655 553 q 517 565 582 565 q 359 522 408 565 q 310 381 310 478 q 357 238 310 282 q 499 194 403 194 q 569 199 534 194 q 655 217 604 205 l 655 13 q 564 -7 614 0 q 462 -15 514 -15 l 462 -57 q 547 -100 518 -68 q 576 -183 576 -133 q 529 -279 576 -244 q 388 -314 481 -314 q 259 -293 320 -314 l 259 -197 q 317 -212 285 -207 q 375 -217 349 -217 q 426 -207 409 -217 q 442 -172 442 -196 q 374 -124 442 -124 l 340 -124 l 340 -5 q 118 118 194 22 q 42 379 42 215 z "},"ĉ":{"ha":690,"x_min":42,"x_max":655,"o":"m 458 -15 q 149 85 255 -15 q 42 379 42 184 q 155 675 42 576 q 479 774 267 774 q 655 757 576 774 l 655 553 q 517 565 582 565 q 359 522 408 565 q 310 381 310 478 q 357 238 310 282 q 499 194 403 194 q 569 199 534 194 q 655 217 604 205 l 655 13 q 562 -7 613 0 q 458 -15 511 -15 m 649 851 l 465 851 l 379 1003 l 293 851 l 110 851 l 274 1122 l 484 1122 l 649 851 z "},"ċ":{"ha":690,"x_min":42,"x_max":655,"o":"m 458 -15 q 149 85 255 -15 q 42 379 42 184 q 155 675 42 576 q 479 774 267 774 q 655 757 576 774 l 655 553 q 517 565 582 565 q 359 522 408 565 q 310 381 310 478 q 357 238 310 282 q 499 194 403 194 q 569 199 534 194 q 655 217 604 205 l 655 13 q 562 -7 613 0 q 458 -15 511 -15 m 379 853 q 260 887 299 853 q 221 985 221 921 q 260 1083 221 1049 q 379 1117 299 1117 q 498 1083 459 1117 q 537 985 537 1049 q 498 887 537 921 q 379 853 459 853 z "},"d":{"ha":879,"x_min":42,"x_max":805,"o":"m 359 -14 q 199 26 270 -14 q 85 152 127 67 q 42 365 42 237 q 151 669 42 563 q 468 775 260 775 q 544 771 499 775 l 544 1122 l 805 1122 l 805 0 l 586 0 l 570 79 l 559 79 q 475 11 526 35 q 359 -14 424 -14 m 438 198 q 496 207 468 198 q 544 235 524 217 l 544 572 q 469 578 509 578 q 344 533 385 578 q 304 385 304 488 q 339 240 304 282 q 438 198 373 198 z "},"ð":{"ha":860,"x_min":42,"x_max":819,"o":"m 659 908 q 777 673 734 797 q 819 429 819 549 q 719 94 819 203 q 430 -16 619 -16 q 222 29 309 -16 q 89 162 135 74 q 42 378 42 251 q 87 595 42 508 q 214 725 132 682 q 405 768 295 768 q 486 756 450 768 q 419 865 460 808 l 125 811 l 97 950 l 311 989 q 153 1122 238 1061 l 460 1122 q 558 1034 511 1083 l 769 1072 l 797 933 l 659 908 m 430 180 q 500 198 473 180 q 542 260 528 217 q 556 376 556 303 q 541 496 556 452 q 500 559 527 540 q 430 578 472 578 q 360 559 388 578 q 318 497 333 541 q 304 378 304 453 q 318 260 304 303 q 359 198 332 217 q 430 180 387 180 z "},"ď":{"ha":879,"x_min":42,"x_max":1041,"o":"m 359 -14 q 199 26 270 -14 q 85 152 127 67 q 42 365 42 237 q 151 669 42 563 q 468 775 260 775 q 544 771 499 775 l 544 1122 l 805 1122 l 805 0 l 586 0 l 570 79 l 559 79 q 475 11 526 35 q 359 -14 424 -14 m 438 198 q 496 207 468 198 q 544 235 524 217 l 544 572 q 469 578 509 578 q 344 533 385 578 q 304 385 304 488 q 339 240 304 282 q 438 198 373 198 m 848 819 q 865 967 860 897 q 870 1122 870 1038 l 1041 1122 q 1027 958 1041 1038 q 988 819 1013 879 l 848 819 z "},"đ":{"ha":879,"x_min":42,"x_max":877,"o":"m 877 859 l 805 859 l 805 0 l 586 0 l 570 79 l 559 79 q 475 11 526 35 q 359 -14 424 -14 q 199 26 270 -14 q 85 152 127 67 q 42 365 42 237 q 151 669 42 563 q 468 775 260 775 q 544 771 499 775 l 544 859 l 313 859 l 313 1020 l 544 1020 l 544 1122 l 805 1122 l 805 1020 l 877 1020 l 877 859 m 544 572 q 469 578 509 578 q 344 533 385 578 q 304 385 304 488 q 339 240 304 282 q 438 198 373 198 q 496 207 468 198 q 544 235 524 217 l 544 572 z "},"ḍ":{"ha":879,"x_min":42,"x_max":805,"o":"m 359 -14 q 199 26 270 -14 q 85 152 127 67 q 42 365 42 237 q 151 669 42 563 q 468 775 260 775 q 544 771 499 775 l 544 1122 l 805 1122 l 805 0 l 586 0 l 570 79 l 559 79 q 475 11 526 35 q 359 -14 424 -14 m 438 198 q 496 207 468 198 q 544 235 524 217 l 544 572 q 469 578 509 578 q 344 533 385 578 q 304 385 304 488 q 339 240 304 282 q 438 198 373 198 m 447 -329 q 345 -296 381 -329 q 310 -204 310 -262 q 345 -113 310 -146 q 447 -80 381 -80 q 549 -113 513 -80 q 584 -204 584 -146 q 549 -296 584 -262 q 447 -329 513 -329 z "},"ḏ":{"ha":879,"x_min":42,"x_max":805,"o":"m 359 -14 q 199 26 270 -14 q 85 152 127 67 q 42 365 42 237 q 151 669 42 563 q 468 775 260 775 q 544 771 499 775 l 544 1122 l 805 1122 l 805 0 l 586 0 l 570 79 l 559 79 q 475 11 526 35 q 359 -14 424 -14 m 438 198 q 496 207 468 198 q 544 235 524 217 l 544 572 q 469 578 509 578 q 344 533 385 578 q 304 385 304 488 q 339 240 304 282 q 438 198 373 198 m 192 -278 l 192 -126 l 702 -126 l 702 -278 l 192 -278 z "},"ǳ":{"ha":1606,"x_min":42,"x_max":1572,"o":"m 359 -14 q 199 26 270 -14 q 85 152 127 67 q 42 365 42 237 q 151 669 42 563 q 468 775 260 775 q 544 771 499 775 l 544 1122 l 805 1122 l 805 0 l 586 0 l 570 79 l 559 79 q 475 11 526 35 q 359 -14 424 -14 m 438 198 q 496 207 468 198 q 544 235 524 217 l 544 572 q 469 578 509 578 q 344 533 385 578 q 304 385 304 488 q 339 240 304 282 q 438 198 373 198 m 1247 204 l 1572 204 l 1572 0 l 925 0 l 925 166 l 1244 558 l 933 558 l 933 762 l 1565 762 l 1565 597 l 1247 204 z "},"ǆ":{"ha":1606,"x_min":42,"x_max":1572,"o":"m 359 -14 q 199 26 270 -14 q 85 152 127 67 q 42 365 42 237 q 151 669 42 563 q 468 775 260 775 q 544 771 499 775 l 544 1122 l 805 1122 l 805 0 l 586 0 l 570 79 l 559 79 q 475 11 526 35 q 359 -14 424 -14 m 438 198 q 496 207 468 198 q 544 235 524 217 l 544 572 q 469 578 509 578 q 344 533 385 578 q 304 385 304 488 q 339 240 304 282 q 438 198 373 198 m 1247 204 l 1572 204 l 1572 0 l 925 0 l 925 166 l 1244 558 l 933 558 l 933 762 l 1565 762 l 1565 597 l 1247 204 m 1335 1122 l 1519 1122 l 1354 851 l 1144 851 l 979 1122 l 1163 1122 l 1249 971 l 1335 1122 z "},"e":{"ha":790,"x_min":42,"x_max":756,"o":"m 756 307 l 302 307 q 327 232 306 259 q 393 192 347 204 q 519 180 438 180 q 712 202 602 180 l 712 9 q 481 -15 597 -15 q 231 27 328 -15 q 89 155 135 68 q 42 381 42 242 q 85 593 42 505 q 210 728 128 681 q 412 774 293 774 q 668 670 581 774 q 756 373 756 567 l 756 307 m 409 613 q 329 576 355 613 q 301 453 303 540 l 514 453 q 487 576 513 540 q 409 613 462 613 z "},"é":{"ha":790,"x_min":42,"x_max":756,"o":"m 756 307 l 302 307 q 327 232 306 259 q 393 192 347 204 q 519 180 438 180 q 712 202 602 180 l 712 9 q 481 -15 597 -15 q 231 27 328 -15 q 89 155 135 68 q 42 381 42 242 q 85 593 42 505 q 210 728 128 681 q 412 774 293 774 q 668 670 581 774 q 756 373 756 567 l 756 307 m 409 613 q 329 576 355 613 q 301 453 303 540 l 514 453 q 487 576 513 540 q 409 613 462 613 m 288 851 l 447 1122 l 722 1122 l 526 851 l 288 851 z "},"ĕ":{"ha":790,"x_min":42,"x_max":756,"o":"m 756 307 l 302 307 q 327 232 306 259 q 393 192 347 204 q 519 180 438 180 q 712 202 602 180 l 712 9 q 481 -15 597 -15 q 231 27 328 -15 q 89 155 135 68 q 42 381 42 242 q 85 593 42 505 q 210 728 128 681 q 412 774 293 774 q 668 670 581 774 q 756 373 756 567 l 756 307 m 409 613 q 329 576 355 613 q 301 453 303 540 l 514 453 q 487 576 513 540 q 409 613 462 613 m 407 858 q 215 922 284 858 q 138 1108 145 985 l 294 1108 q 326 1017 299 1047 q 407 987 354 987 q 487 1016 460 987 q 519 1108 515 1046 l 676 1108 q 599 921 669 985 q 407 858 530 858 z "},"ě":{"ha":790,"x_min":42,"x_max":756,"o":"m 756 307 l 302 307 q 327 232 306 259 q 393 192 347 204 q 519 180 438 180 q 712 202 602 180 l 712 9 q 481 -15 597 -15 q 231 27 328 -15 q 89 155 135 68 q 42 381 42 242 q 85 593 42 505 q 210 728 128 681 q 412 774 293 774 q 668 670 581 774 q 756 373 756 567 l 756 307 m 409 613 q 329 576 355 613 q 301 453 303 540 l 514 453 q 487 576 513 540 q 409 613 462 613 m 493 1122 l 676 1122 l 512 851 l 301 851 l 137 1122 l 321 1122 l 407 971 l 493 1122 z "},"ḝ":{"ha":790,"x_min":42,"x_max":756,"o":"m 407 858 q 215 922 284 858 q 138 1108 145 985 l 294 1108 q 326 1017 299 1047 q 407 987 354 987 q 487 1016 460 987 q 519 1108 515 1046 l 676 1108 q 599 921 669 985 q 407 858 530 858 m 756 307 l 302 307 q 327 232 306 259 q 393 192 347 204 q 519 180 438 180 q 712 202 602 180 l 712 9 q 481 -15 597 -15 l 476 -15 l 476 -57 q 561 -100 532 -68 q 590 -183 590 -133 q 543 -279 590 -244 q 401 -314 495 -314 q 273 -293 334 -314 l 273 -197 q 331 -212 299 -207 q 389 -217 363 -217 q 440 -207 423 -217 q 456 -172 456 -196 q 388 -124 456 -124 l 354 -124 l 354 -6 q 117 111 192 17 q 42 381 42 205 q 85 593 42 505 q 210 728 128 681 q 412 774 293 774 q 668 670 581 774 q 756 373 756 567 l 756 307 m 409 613 q 329 576 355 613 q 301 453 303 540 l 514 453 q 487 576 513 540 q 409 613 462 613 z "},"ê":{"ha":790,"x_min":42,"x_max":756,"o":"m 756 307 l 302 307 q 327 232 306 259 q 393 192 347 204 q 519 180 438 180 q 712 202 602 180 l 712 9 q 481 -15 597 -15 q 231 27 328 -15 q 89 155 135 68 q 42 381 42 242 q 85 593 42 505 q 210 728 128 681 q 412 774 293 774 q 668 670 581 774 q 756 373 756 567 l 756 307 m 409 613 q 329 576 355 613 q 301 453 303 540 l 514 453 q 487 576 513 540 q 409 613 462 613 m 676 851 l 492 851 l 407 1003 l 321 851 l 138 851 l 301 1122 l 512 1122 l 676 851 z "},"ế":{"ha":790,"x_min":42,"x_max":914,"o":"m 756 307 l 302 307 q 327 232 306 259 q 393 192 347 204 q 519 180 438 180 q 712 202 602 180 l 712 9 q 481 -15 597 -15 q 231 27 328 -15 q 89 155 135 68 q 42 381 42 242 q 85 593 42 505 q 210 728 128 681 q 412 774 293 774 q 668 670 581 774 q 756 373 756 567 l 756 307 m 409 613 q 329 576 355 613 q 301 453 303 540 l 514 453 q 487 576 513 540 q 409 613 462 613 m 695 1297 l 914 1297 l 749 1110 l 569 1110 l 695 1297 m 301 1122 l 512 1122 l 676 851 l 492 851 l 407 1003 l 321 851 l 138 851 l 301 1122 z "},"ệ":{"ha":790,"x_min":42,"x_max":756,"o":"m 756 307 l 302 307 q 327 232 306 259 q 393 192 347 204 q 519 180 438 180 q 712 202 602 180 l 712 9 q 481 -15 597 -15 q 231 27 328 -15 q 89 155 135 68 q 42 381 42 242 q 85 593 42 505 q 210 728 128 681 q 412 774 293 774 q 668 670 581 774 q 756 373 756 567 l 756 307 m 409 613 q 329 576 355 613 q 301 453 303 540 l 514 453 q 487 576 513 540 q 409 613 462 613 m 407 -329 q 305 -296 340 -329 q 269 -204 269 -262 q 305 -113 269 -146 q 407 -80 341 -80 q 508 -113 473 -80 q 544 -204 544 -146 q 508 -296 544 -262 q 407 -329 473 -329 m 676 851 l 492 851 l 407 1003 l 321 851 l 138 851 l 301 1122 l 512 1122 l 676 851 z "},"ề":{"ha":790,"x_min":42,"x_max":774,"o":"m 756 307 l 302 307 q 327 232 306 259 q 393 192 347 204 q 519 180 438 180 q 712 202 602 180 l 712 9 q 481 -15 597 -15 q 231 27 328 -15 q 89 155 135 68 q 42 381 42 242 q 85 593 42 505 q 210 728 128 681 q 412 774 293 774 q 668 670 581 774 q 756 373 756 567 l 756 307 m 409 613 q 329 576 355 613 q 301 453 303 540 l 514 453 q 487 576 513 540 q 409 613 462 613 m 774 1110 l 594 1110 l 430 1297 l 648 1297 l 774 1110 m 301 1122 l 512 1122 l 676 851 l 492 851 l 407 1003 l 321 851 l 138 851 l 301 1122 z "},"ể":{"ha":790,"x_min":42,"x_max":801,"o":"m 756 307 l 302 307 q 327 232 306 259 q 393 192 347 204 q 519 180 438 180 q 712 202 602 180 l 712 9 q 481 -15 597 -15 q 231 27 328 -15 q 89 155 135 68 q 42 381 42 242 q 85 593 42 505 q 210 728 128 681 q 412 774 293 774 q 668 670 581 774 q 756 373 756 567 l 756 307 m 409 613 q 329 576 355 613 q 301 453 303 540 l 514 453 q 487 576 513 540 q 409 613 462 613 m 625 1313 q 759 1292 717 1313 q 801 1227 801 1272 q 787 1191 801 1204 q 742 1163 772 1178 q 703 1138 717 1149 q 686 1110 690 1127 l 568 1110 q 589 1157 570 1140 q 641 1188 608 1173 q 665 1199 658 1194 q 672 1210 672 1204 q 656 1227 672 1222 q 605 1232 640 1232 q 481 1219 535 1232 l 481 1297 q 548 1308 506 1304 q 625 1313 590 1313 m 301 1122 l 512 1122 l 676 851 l 492 851 l 407 1003 l 321 851 l 138 851 l 301 1122 z "},"ễ":{"ha":790,"x_min":42,"x_max":756,"o":"m 756 307 l 302 307 q 327 232 306 259 q 393 192 347 204 q 519 180 438 180 q 712 202 602 180 l 712 9 q 481 -15 597 -15 q 231 27 328 -15 q 89 155 135 68 q 42 381 42 242 q 85 593 42 505 q 210 728 128 681 q 412 774 293 774 q 668 670 581 774 q 756 373 756 567 l 756 307 m 409 613 q 329 576 355 613 q 301 453 303 540 l 514 453 q 487 576 513 540 q 409 613 462 613 m 530 1116 q 466 1122 496 1116 q 394 1140 436 1128 q 333 1157 359 1151 q 279 1163 307 1163 q 203 1152 236 1163 q 134 1119 169 1142 l 134 1246 q 200 1281 164 1269 q 284 1292 235 1292 q 346 1286 318 1292 q 419 1267 374 1280 q 481 1249 456 1255 q 535 1244 507 1244 q 610 1254 577 1244 q 679 1287 644 1265 l 679 1160 q 614 1127 649 1138 q 530 1116 578 1116 m 694 853 l 501 853 l 407 981 l 312 853 l 119 853 l 297 1076 l 517 1076 l 694 853 z "},"ȅ":{"ha":790,"x_min":42,"x_max":756,"o":"m 756 307 l 302 307 q 327 232 306 259 q 393 192 347 204 q 519 180 438 180 q 712 202 602 180 l 712 9 q 481 -15 597 -15 q 231 27 328 -15 q 89 155 135 68 q 42 381 42 242 q 85 593 42 505 q 210 728 128 681 q 412 774 293 774 q 668 670 581 774 q 756 373 756 567 l 756 307 m 409 613 q 329 576 355 613 q 301 453 303 540 l 514 453 q 487 576 513 540 q 409 613 462 613 m 162 851 l 46 1122 l 250 1122 l 353 851 l 162 851 m 460 851 l 344 1122 l 548 1122 l 651 851 l 460 851 z "},"ë":{"ha":790,"x_min":42,"x_max":756,"o":"m 756 307 l 302 307 q 327 232 306 259 q 393 192 347 204 q 519 180 438 180 q 712 202 602 180 l 712 9 q 481 -15 597 -15 q 231 27 328 -15 q 89 155 135 68 q 42 381 42 242 q 85 593 42 505 q 210 728 128 681 q 412 774 293 774 q 668 670 581 774 q 756 373 756 567 l 756 307 m 409 613 q 329 576 355 613 q 301 453 303 540 l 514 453 q 487 576 513 540 q 409 613 462 613 m 230 858 q 128 891 163 858 q 92 985 92 925 q 128 1079 92 1045 q 230 1113 163 1113 q 331 1079 296 1113 q 367 985 367 1045 q 331 891 367 925 q 230 858 296 858 m 583 858 q 482 891 517 858 q 447 985 447 925 q 482 1079 447 1045 q 583 1113 517 1113 q 685 1079 650 1113 q 721 985 721 1045 q 685 891 721 925 q 583 858 650 858 z "},"ė":{"ha":790,"x_min":42,"x_max":756,"o":"m 756 307 l 302 307 q 327 232 306 259 q 393 192 347 204 q 519 180 438 180 q 712 202 602 180 l 712 9 q 481 -15 597 -15 q 231 27 328 -15 q 89 155 135 68 q 42 381 42 242 q 85 593 42 505 q 210 728 128 681 q 412 774 293 774 q 668 670 581 774 q 756 373 756 567 l 756 307 m 409 613 q 329 576 355 613 q 301 453 303 540 l 514 453 q 487 576 513 540 q 409 613 462 613 m 407 853 q 288 887 326 853 q 249 985 249 921 q 288 1083 249 1049 q 407 1117 326 1117 q 526 1083 487 1117 q 565 985 565 1049 q 526 887 565 921 q 407 853 487 853 z "},"ẹ":{"ha":790,"x_min":42,"x_max":756,"o":"m 756 307 l 302 307 q 327 232 306 259 q 393 192 347 204 q 519 180 438 180 q 712 202 602 180 l 712 9 q 481 -15 597 -15 q 231 27 328 -15 q 89 155 135 68 q 42 381 42 242 q 85 593 42 505 q 210 728 128 681 q 412 774 293 774 q 668 670 581 774 q 756 373 756 567 l 756 307 m 409 613 q 329 576 355 613 q 301 453 303 540 l 514 453 q 487 576 513 540 q 409 613 462 613 m 407 -329 q 305 -296 340 -329 q 269 -204 269 -262 q 305 -113 269 -146 q 407 -80 341 -80 q 508 -113 473 -80 q 544 -204 544 -146 q 508 -296 544 -262 q 407 -329 473 -329 z "},"è":{"ha":790,"x_min":42,"x_max":756,"o":"m 756 307 l 302 307 q 327 232 306 259 q 393 192 347 204 q 519 180 438 180 q 712 202 602 180 l 712 9 q 481 -15 597 -15 q 231 27 328 -15 q 89 155 135 68 q 42 381 42 242 q 85 593 42 505 q 210 728 128 681 q 412 774 293 774 q 668 670 581 774 q 756 373 756 567 l 756 307 m 409 613 q 329 576 355 613 q 301 453 303 540 l 514 453 q 487 576 513 540 q 409 613 462 613 m 288 851 l 91 1122 l 367 1122 l 526 851 l 288 851 z "},"ẻ":{"ha":790,"x_min":42,"x_max":756,"o":"m 756 307 l 302 307 q 327 232 306 259 q 393 192 347 204 q 519 180 438 180 q 712 202 602 180 l 712 9 q 481 -15 597 -15 q 231 27 328 -15 q 89 155 135 68 q 42 381 42 242 q 85 593 42 505 q 210 728 128 681 q 412 774 293 774 q 668 670 581 774 q 756 373 756 567 l 756 307 m 409 613 q 329 576 355 613 q 301 453 303 540 l 514 453 q 487 576 513 540 q 409 613 462 613 m 343 851 q 363 915 345 892 q 411 961 381 939 q 438 984 430 975 q 446 1004 446 992 q 431 1026 446 1019 q 383 1033 416 1033 q 266 1017 325 1033 l 266 1113 q 331 1126 293 1121 q 403 1131 369 1131 q 537 1104 494 1131 q 581 1021 581 1077 q 573 978 581 996 q 553 949 565 960 q 522 922 541 937 q 484 889 497 903 q 470 851 472 874 l 343 851 z "},"ȇ":{"ha":790,"x_min":42,"x_max":756,"o":"m 756 307 l 302 307 q 327 232 306 259 q 393 192 347 204 q 519 180 438 180 q 712 202 602 180 l 712 9 q 481 -15 597 -15 q 231 27 328 -15 q 89 155 135 68 q 42 381 42 242 q 85 593 42 505 q 210 728 128 681 q 412 774 293 774 q 668 670 581 774 q 756 373 756 567 l 756 307 m 409 613 q 329 576 355 613 q 301 453 303 540 l 514 453 q 487 576 513 540 q 409 613 462 613 m 138 871 q 214 1057 145 994 q 406 1121 283 1121 q 599 1057 528 1121 q 676 871 669 993 l 519 871 q 487 963 515 933 q 406 993 459 993 q 325 964 352 993 q 294 871 299 934 l 138 871 z "},"ē":{"ha":790,"x_min":42,"x_max":756,"o":"m 756 307 l 302 307 q 327 232 306 259 q 393 192 347 204 q 519 180 438 180 q 712 202 602 180 l 712 9 q 481 -15 597 -15 q 231 27 328 -15 q 89 155 135 68 q 42 381 42 242 q 85 593 42 505 q 210 728 128 681 q 412 774 293 774 q 668 670 581 774 q 756 373 756 567 l 756 307 m 409 613 q 329 576 355 613 q 301 453 303 540 l 514 453 q 487 576 513 540 q 409 613 462 613 m 149 909 l 149 1063 l 665 1063 l 665 909 l 149 909 z "},"ḗ":{"ha":790,"x_min":42,"x_max":756,"o":"m 756 307 l 302 307 q 327 232 306 259 q 393 192 347 204 q 519 180 438 180 q 712 202 602 180 l 712 9 q 481 -15 597 -15 q 231 27 328 -15 q 89 155 135 68 q 42 381 42 242 q 85 593 42 505 q 210 728 128 681 q 412 774 293 774 q 668 670 581 774 q 756 373 756 567 l 756 307 m 409 613 q 329 576 355 613 q 301 453 303 540 l 514 453 q 487 576 513 540 q 409 613 462 613 m 149 909 l 149 1063 l 665 1063 l 665 909 l 149 909 m 288 1160 l 414 1375 l 688 1375 l 523 1160 l 288 1160 z "},"ḕ":{"ha":790,"x_min":42,"x_max":756,"o":"m 756 307 l 302 307 q 327 232 306 259 q 393 192 347 204 q 519 180 438 180 q 712 202 602 180 l 712 9 q 481 -15 597 -15 q 231 27 328 -15 q 89 155 135 68 q 42 381 42 242 q 85 593 42 505 q 210 728 128 681 q 412 774 293 774 q 668 670 581 774 q 756 373 756 567 l 756 307 m 409 613 q 329 576 355 613 q 301 453 303 540 l 514 453 q 487 576 513 540 q 409 613 462 613 m 149 909 l 149 1063 l 665 1063 l 665 909 l 149 909 m 289 1160 l 124 1375 l 398 1375 l 524 1160 l 289 1160 z "},"ę":{"ha":790,"x_min":42,"x_max":756,"o":"m 756 307 l 302 307 q 327 232 306 259 q 393 192 347 204 q 519 180 438 180 q 712 202 602 180 l 712 9 q 581 -63 617 -24 q 544 -147 544 -101 q 565 -195 544 -178 q 626 -213 586 -213 q 712 -194 665 -213 l 712 -292 q 654 -308 683 -302 q 590 -314 626 -314 q 446 -274 496 -314 q 397 -163 397 -233 q 416 -82 397 -119 q 478 -15 435 -44 q 230 27 326 -14 q 88 156 134 69 q 42 381 42 243 q 85 593 42 505 q 210 728 128 681 q 412 774 293 774 q 668 670 581 774 q 756 373 756 567 l 756 307 m 409 606 q 329 570 355 606 q 301 447 303 535 l 514 447 q 488 570 513 535 q 409 606 463 606 z "},"ẽ":{"ha":790,"x_min":42,"x_max":756,"o":"m 756 307 l 302 307 q 327 232 306 259 q 393 192 347 204 q 519 180 438 180 q 712 202 602 180 l 712 9 q 481 -15 597 -15 q 231 27 328 -15 q 89 155 135 68 q 42 381 42 242 q 85 593 42 505 q 210 728 128 681 q 412 774 293 774 q 668 670 581 774 q 756 373 756 567 l 756 307 m 409 613 q 329 576 355 613 q 301 453 303 540 l 514 453 q 487 576 513 540 q 409 613 462 613 m 520 878 q 461 887 489 878 q 394 913 434 896 q 335 937 358 929 q 288 944 313 944 q 215 930 248 944 q 149 883 183 915 l 149 1042 q 213 1085 178 1072 q 293 1099 247 1099 q 352 1090 324 1099 q 419 1063 379 1081 q 478 1040 455 1047 q 525 1032 501 1032 q 598 1047 565 1032 q 665 1093 631 1061 l 665 934 q 601 891 635 905 q 520 878 566 878 z "},"ə":{"ha":790,"x_min":35,"x_max":748,"o":"m 309 776 q 559 735 463 776 q 702 607 656 694 q 748 381 748 519 q 705 169 748 257 q 580 34 663 81 q 378 -12 497 -12 q 122 91 210 -12 q 35 389 35 195 l 35 455 l 488 455 q 464 530 484 503 q 398 570 443 558 q 272 582 352 582 q 78 560 188 582 l 78 753 q 309 776 193 776 m 381 149 q 461 185 435 149 q 489 308 488 222 l 276 308 q 303 185 278 222 q 381 149 328 149 z "},"f":{"ha":578,"x_min":19,"x_max":615,"o":"m 543 931 q 430 901 465 931 q 395 808 395 871 l 395 762 l 582 762 l 582 558 l 395 558 l 395 0 l 136 0 l 136 558 l 19 558 l 19 762 l 136 762 l 136 795 q 178 978 136 901 q 302 1095 220 1055 q 501 1136 384 1136 q 615 1128 560 1136 l 615 926 q 543 931 569 931 z "},"g":{"ha":879,"x_min":42,"x_max":805,"o":"m 363 -319 q 97 -290 219 -319 l 97 -87 q 341 -121 224 -121 q 496 -83 449 -121 q 544 40 544 -45 l 544 82 l 532 82 q 450 19 499 41 q 340 -3 401 -3 q 191 38 258 -3 q 83 162 124 79 q 42 366 42 245 q 155 668 42 563 q 491 774 267 774 q 655 763 571 774 q 805 729 740 751 l 805 89 q 757 -144 805 -54 q 611 -277 709 -234 q 363 -319 514 -319 m 442 208 q 497 215 470 208 q 544 238 524 223 l 544 571 q 468 578 506 578 q 345 533 386 578 q 304 388 304 488 q 339 248 304 288 q 442 208 373 208 z "},"ǵ":{"ha":879,"x_min":42,"x_max":805,"o":"m 363 -319 q 97 -290 219 -319 l 97 -87 q 341 -121 224 -121 q 496 -83 449 -121 q 544 40 544 -45 l 544 82 l 532 82 q 450 19 499 41 q 340 -3 401 -3 q 191 38 258 -3 q 83 162 124 79 q 42 366 42 245 q 155 668 42 563 q 491 774 267 774 q 655 763 571 774 q 805 729 740 751 l 805 89 q 757 -144 805 -54 q 611 -277 709 -234 q 363 -319 514 -319 m 442 208 q 497 215 470 208 q 544 238 524 223 l 544 571 q 468 578 506 578 q 345 533 386 578 q 304 388 304 488 q 339 248 304 288 q 442 208 373 208 m 338 851 l 497 1122 l 773 1122 l 576 851 l 338 851 z "},"ğ":{"ha":879,"x_min":42,"x_max":805,"o":"m 363 -319 q 97 -290 219 -319 l 97 -87 q 341 -121 224 -121 q 496 -83 449 -121 q 544 40 544 -45 l 544 82 l 532 82 q 450 19 499 41 q 340 -3 401 -3 q 191 38 258 -3 q 83 162 124 79 q 42 366 42 245 q 155 668 42 563 q 491 774 267 774 q 655 763 571 774 q 805 729 740 751 l 805 89 q 757 -144 805 -54 q 611 -277 709 -234 q 363 -319 514 -319 m 442 208 q 497 215 470 208 q 544 238 524 223 l 544 571 q 468 578 506 578 q 345 533 386 578 q 304 388 304 488 q 339 248 304 288 q 442 208 373 208 m 458 858 q 265 922 335 858 q 189 1108 196 985 l 344 1108 q 377 1017 349 1047 q 458 987 405 987 q 538 1016 510 987 q 570 1108 565 1046 l 726 1108 q 650 921 719 985 q 458 858 581 858 z "},"ǧ":{"ha":879,"x_min":42,"x_max":805,"o":"m 363 -319 q 97 -290 219 -319 l 97 -87 q 341 -121 224 -121 q 496 -83 449 -121 q 544 40 544 -45 l 544 82 l 532 82 q 450 19 499 41 q 340 -3 401 -3 q 191 38 258 -3 q 83 162 124 79 q 42 366 42 245 q 155 668 42 563 q 491 774 267 774 q 655 763 571 774 q 805 729 740 751 l 805 89 q 757 -144 805 -54 q 611 -277 709 -234 q 363 -319 514 -319 m 442 208 q 497 215 470 208 q 544 238 524 223 l 544 571 q 468 578 506 578 q 345 533 386 578 q 304 388 304 488 q 339 248 304 288 q 442 208 373 208 m 544 1122 l 727 1122 l 563 851 l 352 851 l 188 1122 l 372 1122 l 458 971 l 544 1122 z "},"ĝ":{"ha":879,"x_min":42,"x_max":805,"o":"m 363 -319 q 97 -290 219 -319 l 97 -87 q 341 -121 224 -121 q 496 -83 449 -121 q 544 40 544 -45 l 544 82 l 532 82 q 450 19 499 41 q 340 -3 401 -3 q 191 38 258 -3 q 83 162 124 79 q 42 366 42 245 q 155 668 42 563 q 491 774 267 774 q 655 763 571 774 q 805 729 740 751 l 805 89 q 757 -144 805 -54 q 611 -277 709 -234 q 363 -319 514 -319 m 442 208 q 497 215 470 208 q 544 238 524 223 l 544 571 q 468 578 506 578 q 345 533 386 578 q 304 388 304 488 q 339 248 304 288 q 442 208 373 208 m 727 851 l 543 851 l 458 1003 l 372 851 l 188 851 l 352 1122 l 563 1122 l 727 851 z "},"ģ":{"ha":879,"x_min":42,"x_max":805,"o":"m 363 -319 q 97 -290 219 -319 l 97 -87 q 341 -121 224 -121 q 496 -83 449 -121 q 544 40 544 -45 l 544 82 l 532 82 q 450 19 499 41 q 340 -3 401 -3 q 191 38 258 -3 q 83 162 124 79 q 42 366 42 245 q 155 668 42 563 q 491 774 267 774 q 655 763 571 774 q 805 729 740 751 l 805 89 q 757 -144 805 -54 q 611 -277 709 -234 q 363 -319 514 -319 m 442 208 q 497 215 470 208 q 544 238 524 223 l 544 571 q 468 578 506 578 q 345 533 386 578 q 304 388 304 488 q 339 248 304 288 q 442 208 373 208 m 494 1027 q 600 942 600 1017 q 458 856 600 856 q 315 969 315 856 q 331 1053 315 1009 q 374 1129 348 1097 l 535 1129 q 494 1027 503 1069 z "},"ġ":{"ha":879,"x_min":42,"x_max":805,"o":"m 363 -319 q 97 -290 219 -319 l 97 -87 q 341 -121 224 -121 q 496 -83 449 -121 q 544 40 544 -45 l 544 82 l 532 82 q 450 19 499 41 q 340 -3 401 -3 q 191 38 258 -3 q 83 162 124 79 q 42 366 42 245 q 155 668 42 563 q 491 774 267 774 q 655 763 571 774 q 805 729 740 751 l 805 89 q 757 -144 805 -54 q 611 -277 709 -234 q 363 -319 514 -319 m 442 208 q 497 215 470 208 q 544 238 524 223 l 544 571 q 468 578 506 578 q 345 533 386 578 q 304 388 304 488 q 339 248 304 288 q 442 208 373 208 m 458 853 q 338 887 377 853 q 299 985 299 921 q 338 1083 299 1049 q 458 1117 377 1117 q 576 1083 538 1117 q 615 985 615 1049 q 576 887 615 921 q 458 853 538 853 z "},"ḡ":{"ha":879,"x_min":42,"x_max":805,"o":"m 363 -319 q 97 -290 219 -319 l 97 -87 q 341 -121 224 -121 q 496 -83 449 -121 q 544 40 544 -45 l 544 82 l 532 82 q 450 19 499 41 q 340 -3 401 -3 q 191 38 258 -3 q 83 162 124 79 q 42 366 42 245 q 155 668 42 563 q 491 774 267 774 q 655 763 571 774 q 805 729 740 751 l 805 89 q 757 -144 805 -54 q 611 -277 709 -234 q 363 -319 514 -319 m 442 208 q 497 215 470 208 q 544 238 524 223 l 544 571 q 468 578 506 578 q 345 533 386 578 q 304 388 304 488 q 339 248 304 288 q 442 208 373 208 m 199 909 l 199 1063 l 715 1063 l 715 909 l 199 909 z "},"h":{"ha":871,"x_min":74,"x_max":801,"o":"m 74 1122 l 335 1122 l 335 688 l 347 688 q 435 752 384 731 q 549 774 486 774 q 679 742 622 774 q 768 641 735 710 q 801 465 801 572 l 801 0 l 540 0 l 540 447 q 518 527 540 503 q 451 551 495 551 q 387 538 418 551 q 335 502 356 525 l 335 0 l 74 0 l 74 1122 z "},"ħ":{"ha":871,"x_min":2,"x_max":801,"o":"m 549 774 q 679 742 622 774 q 768 641 735 710 q 801 465 801 572 l 801 0 l 540 0 l 540 447 q 518 527 540 503 q 451 551 495 551 q 387 538 418 551 q 335 502 356 525 l 335 0 l 74 0 l 74 858 l 2 858 l 2 1019 l 74 1019 l 74 1122 l 335 1122 l 335 1019 l 566 1019 l 566 858 l 335 858 l 335 688 l 347 688 q 435 752 384 731 q 549 774 486 774 z "},"ḫ":{"ha":871,"x_min":74,"x_max":801,"o":"m 74 1122 l 335 1122 l 335 688 l 347 688 q 435 752 384 731 q 549 774 486 774 q 679 742 622 774 q 768 641 735 710 q 801 465 801 572 l 801 0 l 540 0 l 540 447 q 518 527 540 503 q 451 551 495 551 q 387 538 418 551 q 335 502 356 525 l 335 0 l 74 0 l 74 1122 m 438 -326 q 243 -266 313 -326 q 169 -99 173 -206 l 325 -99 q 438 -199 329 -199 q 520 -174 492 -199 q 551 -99 548 -149 l 707 -99 q 633 -266 703 -206 q 438 -326 563 -326 z "},"ĥ":{"ha":871,"x_min":74,"x_max":801,"o":"m 74 1122 l 335 1122 l 335 688 l 347 688 q 435 752 384 731 q 549 774 486 774 q 679 742 622 774 q 768 641 735 710 q 801 465 801 572 l 801 0 l 540 0 l 540 447 q 518 527 540 503 q 451 551 495 551 q 387 538 418 551 q 335 502 356 525 l 335 0 l 74 0 l 74 1122 m 728 1171 l 534 1171 l 438 1292 l 342 1171 l 148 1171 l 328 1386 l 548 1386 l 728 1171 z "},"ḥ":{"ha":871,"x_min":74,"x_max":801,"o":"m 74 1122 l 335 1122 l 335 688 l 347 688 q 435 752 384 731 q 549 774 486 774 q 679 742 622 774 q 768 641 735 710 q 801 465 801 572 l 801 0 l 540 0 l 540 447 q 518 527 540 503 q 451 551 495 551 q 387 538 418 551 q 335 502 356 525 l 335 0 l 74 0 l 74 1122 m 438 -329 q 336 -296 372 -329 q 301 -204 301 -262 q 336 -113 301 -146 q 438 -80 372 -80 q 540 -113 504 -80 q 575 -204 575 -146 q 540 -296 575 -262 q 438 -329 504 -329 z "},"i":{"ha":410,"x_min":47,"x_max":363,"o":"m 74 0 l 74 762 l 336 762 l 336 0 l 74 0 m 206 853 q 86 887 125 853 q 47 985 47 921 q 86 1083 47 1049 q 206 1117 125 1117 q 324 1083 285 1117 q 363 985 363 1049 q 324 887 363 921 q 206 853 285 853 z "},"ı":{"ha":410,"x_min":74,"x_max":336,"o":"m 74 0 l 74 762 l 336 762 l 336 0 l 74 0 z "},"í":{"ha":410,"x_min":74,"x_max":520,"o":"m 74 0 l 74 762 l 336 762 l 336 0 l 74 0 m 85 851 l 244 1122 l 520 1122 l 324 851 l 85 851 z "},"ĭ":{"ha":410,"x_min":-64,"x_max":474,"o":"m 74 0 l 74 762 l 336 762 l 336 0 l 74 0 m 205 858 q 13 922 82 858 q -64 1108 -57 985 l 92 1108 q 124 1017 97 1047 q 205 987 152 987 q 285 1016 258 987 q 317 1108 313 1046 l 474 1108 q 397 921 467 985 q 205 858 328 858 z "},"î":{"ha":410,"x_min":-65,"x_max":474,"o":"m 74 0 l 74 762 l 336 762 l 336 0 l 74 0 m 474 851 l 290 851 l 205 1003 l 119 851 l -65 851 l 99 1122 l 310 1122 l 474 851 z "},"ȉ":{"ha":410,"x_min":-156,"x_max":449,"o":"m 74 0 l 74 762 l 336 762 l 336 0 l 74 0 m -40 851 l -156 1122 l 48 1122 l 151 851 l -40 851 m 258 851 l 142 1122 l 346 1122 l 449 851 l 258 851 z "},"ï":{"ha":410,"x_min":-110,"x_max":519,"o":"m 74 0 l 74 762 l 336 762 l 336 0 l 74 0 m 28 858 q -74 891 -39 858 q -110 985 -110 925 q -74 1079 -110 1045 q 28 1113 -39 1113 q 129 1079 94 1113 q 165 985 165 1045 q 129 891 165 925 q 28 858 94 858 m 381 858 q 280 891 315 858 q 244 985 244 925 q 280 1079 244 1045 q 381 1113 315 1113 q 483 1079 448 1113 q 519 985 519 1045 q 483 891 519 925 q 381 858 448 858 z "},"ḯ":{"ha":410,"x_min":-110,"x_max":576,"o":"m 74 0 l 74 762 l 336 762 l 336 0 l 74 0 m 28 858 q -74 891 -39 858 q -110 985 -110 925 q -74 1079 -110 1045 q 28 1113 -39 1113 q 129 1079 94 1113 q 165 985 165 1045 q 129 891 165 925 q 28 858 94 858 m 381 858 q 280 891 315 858 q 244 985 244 925 q 280 1079 244 1045 q 381 1113 315 1113 q 483 1079 448 1113 q 519 985 519 1045 q 483 891 519 925 q 381 858 448 858 m 177 1391 l 303 1606 l 576 1606 l 412 1391 l 177 1391 z "},"ị":{"ha":410,"x_min":47,"x_max":363,"o":"m 74 0 l 74 762 l 336 762 l 336 0 l 74 0 m 206 853 q 86 887 125 853 q 47 985 47 921 q 86 1083 47 1049 q 206 1117 125 1117 q 324 1083 285 1117 q 363 985 363 1049 q 324 887 363 921 q 206 853 285 853 m 205 -329 q 103 -296 138 -329 q 67 -204 67 -262 q 103 -113 67 -146 q 205 -80 139 -80 q 306 -113 271 -80 q 342 -204 342 -146 q 306 -296 342 -262 q 205 -329 271 -329 z "},"ì":{"ha":410,"x_min":-111,"x_max":336,"o":"m 74 0 l 74 762 l 336 762 l 336 0 l 74 0 m 85 851 l -111 1122 l 165 1122 l 324 851 l 85 851 z "},"ỉ":{"ha":410,"x_min":64,"x_max":378,"o":"m 74 0 l 74 762 l 336 762 l 336 0 l 74 0 m 141 851 q 161 915 143 892 q 209 961 179 939 q 236 984 228 975 q 244 1004 244 992 q 229 1026 244 1019 q 181 1033 214 1033 q 64 1017 123 1033 l 64 1113 q 129 1126 91 1121 q 201 1131 167 1131 q 335 1104 292 1131 q 378 1021 378 1077 q 370 978 378 996 q 351 949 363 960 q 319 922 339 937 q 282 889 294 903 q 268 851 270 874 l 141 851 z "},"ȋ":{"ha":410,"x_min":-64,"x_max":474,"o":"m 74 0 l 74 762 l 336 762 l 336 0 l 74 0 m -64 871 q 12 1057 -57 994 q 204 1121 81 1121 q 397 1057 326 1121 q 474 871 467 993 l 317 871 q 285 963 313 933 q 204 993 257 993 q 123 964 150 993 q 92 871 97 934 l -64 871 z "},"ī":{"ha":410,"x_min":-53,"x_max":463,"o":"m 74 0 l 74 762 l 336 762 l 336 0 l 74 0 m -53 909 l -53 1063 l 463 1063 l 463 909 l -53 909 z "},"į":{"ha":410,"x_min":38,"x_max":363,"o":"m 205 853 q 85 887 124 853 q 47 985 47 921 q 85 1083 47 1049 q 205 1117 124 1117 q 324 1083 285 1117 q 363 985 363 1049 q 324 887 363 921 q 205 853 285 853 m 185 -147 q 206 -195 185 -178 q 267 -213 227 -213 q 353 -194 305 -213 l 353 -292 q 295 -308 324 -302 q 231 -314 267 -314 q 87 -274 137 -314 q 38 -163 38 -233 q 62 -74 38 -114 q 142 0 86 -33 l 74 0 l 74 762 l 336 762 l 336 0 q 218 -68 251 -33 q 185 -147 185 -103 z "},"ĩ":{"ha":410,"x_min":-53,"x_max":463,"o":"m 74 0 l 74 762 l 336 762 l 336 0 l 74 0 m 318 878 q 259 887 287 878 q 192 913 232 896 q 133 937 156 929 q 86 944 110 944 q 13 930 46 944 q -53 883 -19 915 l -53 1042 q 10 1085 -24 1072 q 91 1099 45 1099 q 150 1090 122 1099 q 217 1063 177 1081 q 276 1040 253 1047 q 323 1032 299 1032 q 396 1047 363 1032 q 463 1093 428 1061 l 463 934 q 399 891 433 905 q 318 878 364 878 z "},"j":{"ha":410,"x_min":-29,"x_max":360,"o":"m -29 -218 q 52 -65 29 -141 q 74 124 74 12 l 74 762 l 336 762 l 336 134 q 291 -110 336 -1 q 139 -329 246 -219 l -29 -218 m 202 854 q 83 888 122 854 q 44 986 44 922 q 83 1084 44 1050 q 202 1117 122 1117 q 321 1084 282 1117 q 360 986 360 1050 q 321 888 360 922 q 202 854 282 854 z "},"ȷ":{"ha":410,"x_min":-29,"x_max":336,"o":"m -29 -218 q 52 -65 29 -141 q 74 124 74 12 l 74 762 l 336 762 l 336 134 q 291 -110 336 -1 q 139 -329 246 -219 l -29 -218 z "},"ĵ":{"ha":410,"x_min":-67,"x_max":472,"o":"m -29 -218 q 52 -65 29 -141 q 74 124 74 12 l 74 762 l 336 762 l 336 134 q 291 -110 336 -1 q 139 -329 246 -219 l -29 -218 m 472 852 l 288 852 l 202 1003 l 116 852 l -67 852 l 97 1123 l 307 1123 l 472 852 z "},"k":{"ha":854,"x_min":74,"x_max":880,"o":"m 598 0 l 409 288 l 335 288 l 335 0 l 74 0 l 74 1122 l 335 1122 l 335 495 l 408 495 l 578 762 l 855 762 l 626 397 l 880 0 l 598 0 z "},"ķ":{"ha":854,"x_min":74,"x_max":880,"o":"m 598 0 l 409 288 l 335 288 l 335 0 l 74 0 l 74 1122 l 335 1122 l 335 495 l 408 495 l 578 762 l 855 762 l 626 397 l 880 0 l 598 0 m 449 -80 q 592 -194 592 -80 q 575 -277 592 -233 q 532 -353 558 -322 l 371 -353 q 413 -251 403 -293 q 306 -166 306 -240 q 449 -80 306 -80 z "},"ĸ":{"ha":854,"x_min":74,"x_max":880,"o":"m 598 0 l 409 288 l 335 288 l 335 0 l 74 0 l 74 762 l 335 762 l 335 495 l 408 495 l 578 762 l 855 762 l 626 397 l 880 0 l 598 0 z "},"l":{"ha":410,"x_min":74,"x_max":335,"o":"m 74 0 l 74 1122 l 335 1122 l 335 0 l 74 0 z "},"ĺ":{"ha":410,"x_min":74,"x_max":485,"o":"m 74 0 l 74 1122 l 335 1122 l 335 0 l 74 0 m 86 1171 l 212 1386 l 485 1386 l 321 1171 l 86 1171 z "},"ľ":{"ha":410,"x_min":74,"x_max":572,"o":"m 74 0 l 74 1122 l 335 1122 l 335 0 l 74 0 m 378 819 q 396 967 391 897 q 401 1122 401 1038 l 572 1122 q 557 958 572 1038 q 518 819 543 879 l 378 819 z "},"ļ":{"ha":410,"x_min":62,"x_max":347,"o":"m 74 0 l 74 1122 l 335 1122 l 335 0 l 74 0 m 204 -80 q 347 -194 347 -80 q 331 -277 347 -233 q 288 -353 314 -322 l 126 -353 q 168 -251 159 -293 q 62 -166 62 -240 q 204 -80 62 -80 z "},"ŀ":{"ha":671,"x_min":74,"x_max":697,"o":"m 74 0 l 74 1122 l 335 1122 l 335 0 l 74 0 m 539 419 q 419 453 458 419 q 381 551 381 487 q 419 649 381 615 q 539 683 458 683 q 658 649 619 683 q 697 551 697 615 q 658 453 697 487 q 539 419 619 419 z "},"ḷ":{"ha":410,"x_min":67,"x_max":342,"o":"m 74 0 l 74 1122 l 335 1122 l 335 0 l 74 0 m 205 -329 q 103 -296 138 -329 q 67 -204 67 -262 q 103 -113 67 -146 q 205 -80 139 -80 q 306 -113 271 -80 q 342 -204 342 -146 q 306 -296 342 -262 q 205 -329 271 -329 z "},"ǉ":{"ha":820,"x_min":74,"x_max":769,"o":"m 74 0 l 74 1122 l 335 1122 l 335 0 l 74 0 m 381 -218 q 461 -65 439 -141 q 484 124 484 12 l 484 762 l 746 762 l 746 134 q 701 -110 746 -1 q 549 -329 656 -219 l 381 -218 m 612 854 q 492 888 531 854 q 453 986 453 922 q 492 1084 453 1050 q 612 1117 531 1117 q 731 1084 692 1117 q 769 986 769 1050 q 731 888 769 922 q 612 854 692 854 z "},"ḻ":{"ha":410,"x_min":-51,"x_max":460,"o":"m 74 0 l 74 1122 l 335 1122 l 335 0 l 74 0 m -51 -278 l -51 -126 l 460 -126 l 460 -278 l -51 -278 z "},"ł":{"ha":410,"x_min":-52,"x_max":462,"o":"m 462 537 l 335 472 l 335 0 l 74 0 l 74 340 l 20 312 l -52 455 l 74 519 l 74 1122 l 335 1122 l 335 652 l 390 680 l 462 537 z "},"m":{"ha":1281,"x_min":74,"x_max":1211,"o":"m 950 774 q 1141 699 1071 774 q 1211 463 1211 624 l 1211 0 l 951 0 l 951 449 q 929 527 951 504 q 867 551 907 551 q 815 541 840 551 q 772 513 791 532 q 774 472 774 487 l 774 0 l 518 0 l 518 449 q 498 527 518 504 q 439 551 478 551 q 381 538 408 551 q 335 501 353 525 l 335 0 l 74 0 l 74 762 l 289 762 l 306 688 l 318 688 q 529 774 399 774 q 642 751 592 774 q 724 678 692 727 q 828 751 770 727 q 950 774 887 774 z "},"ṃ":{"ha":1281,"x_min":74,"x_max":1211,"o":"m 950 774 q 1141 699 1071 774 q 1211 463 1211 624 l 1211 0 l 951 0 l 951 449 q 929 527 951 504 q 867 551 907 551 q 815 541 840 551 q 772 513 791 532 q 774 472 774 487 l 774 0 l 518 0 l 518 449 q 498 527 518 504 q 439 551 478 551 q 381 538 408 551 q 335 501 353 525 l 335 0 l 74 0 l 74 762 l 289 762 l 306 688 l 318 688 q 529 774 399 774 q 642 751 592 774 q 724 678 692 727 q 828 751 770 727 q 950 774 887 774 m 647 -329 q 544 -296 580 -329 q 509 -204 509 -262 q 545 -113 509 -146 q 647 -80 581 -80 q 748 -113 713 -80 q 783 -204 783 -146 q 748 -296 783 -262 q 647 -329 713 -329 z "},"n":{"ha":871,"x_min":74,"x_max":801,"o":"m 74 762 l 289 762 l 306 688 l 318 688 q 414 752 358 730 q 536 774 470 774 q 730 699 658 774 q 801 465 801 624 l 801 0 l 540 0 l 540 448 q 518 527 540 504 q 451 551 495 551 q 387 538 418 551 q 335 502 356 525 l 335 0 l 74 0 l 74 762 z "},"ń":{"ha":871,"x_min":74,"x_max":801,"o":"m 74 762 l 289 762 l 306 688 l 318 688 q 414 752 358 730 q 536 774 470 774 q 730 699 658 774 q 801 465 801 624 l 801 0 l 540 0 l 540 448 q 518 527 540 504 q 451 551 495 551 q 387 538 418 551 q 335 502 356 525 l 335 0 l 74 0 l 74 762 m 319 851 l 478 1122 l 753 1122 l 557 851 l 319 851 z "},"ŉ":{"ha":871,"x_min":8,"x_max":801,"o":"m 74 762 l 289 762 l 306 688 l 318 688 q 414 752 358 730 q 536 774 470 774 q 730 699 658 774 q 801 465 801 624 l 801 0 l 540 0 l 540 448 q 518 527 540 504 q 451 551 495 551 q 387 538 418 551 q 335 502 356 525 l 335 0 l 74 0 l 74 762 m 149 1129 q 292 1015 292 1129 q 276 932 292 976 q 233 856 260 888 l 72 856 q 113 958 104 915 q 8 1043 8 968 q 42 1107 8 1085 q 149 1129 77 1129 z "},"ň":{"ha":871,"x_min":74,"x_max":801,"o":"m 74 762 l 289 762 l 306 688 l 318 688 q 414 752 358 730 q 536 774 470 774 q 730 699 658 774 q 801 465 801 624 l 801 0 l 540 0 l 540 448 q 518 527 540 504 q 451 551 495 551 q 387 538 418 551 q 335 502 356 525 l 335 0 l 74 0 l 74 762 m 524 1122 l 708 1122 l 543 851 l 333 851 l 168 1122 l 352 1122 l 438 971 l 524 1122 z "},"ņ":{"ha":871,"x_min":74,"x_max":801,"o":"m 74 762 l 289 762 l 306 688 l 318 688 q 414 752 358 730 q 536 774 470 774 q 730 699 658 774 q 801 465 801 624 l 801 0 l 540 0 l 540 448 q 518 527 540 504 q 451 551 495 551 q 387 538 418 551 q 335 502 356 525 l 335 0 l 74 0 l 74 762 m 438 -80 q 581 -194 581 -80 q 564 -277 581 -233 q 521 -353 547 -322 l 360 -353 q 401 -251 392 -293 q 295 -166 295 -240 q 438 -80 295 -80 z "},"ṅ":{"ha":871,"x_min":74,"x_max":801,"o":"m 74 762 l 289 762 l 306 688 l 318 688 q 414 752 358 730 q 536 774 470 774 q 730 699 658 774 q 801 465 801 624 l 801 0 l 540 0 l 540 448 q 518 527 540 504 q 451 551 495 551 q 387 538 418 551 q 335 502 356 525 l 335 0 l 74 0 l 74 762 m 438 853 q 319 887 358 853 q 280 985 280 921 q 319 1083 280 1049 q 438 1117 358 1117 q 557 1083 518 1117 q 596 985 596 1049 q 557 887 596 921 q 438 853 518 853 z "},"ṇ":{"ha":871,"x_min":74,"x_max":801,"o":"m 74 762 l 289 762 l 306 688 l 318 688 q 414 752 358 730 q 536 774 470 774 q 730 699 658 774 q 801 465 801 624 l 801 0 l 540 0 l 540 448 q 518 527 540 504 q 451 551 495 551 q 387 538 418 551 q 335 502 356 525 l 335 0 l 74 0 l 74 762 m 438 -329 q 336 -296 372 -329 q 301 -204 301 -262 q 336 -113 301 -146 q 438 -80 372 -80 q 540 -113 504 -80 q 575 -204 575 -146 q 540 -296 575 -262 q 438 -329 504 -329 z "},"ŋ":{"ha":871,"x_min":74,"x_max":801,"o":"m 437 -218 q 517 -64 494 -141 q 540 124 540 13 l 540 449 q 518 530 540 506 q 451 553 495 553 q 387 541 418 553 q 335 505 356 528 l 335 0 l 74 0 l 74 762 l 289 762 l 306 688 l 318 688 q 415 752 360 730 q 536 774 470 774 q 730 699 658 774 q 801 465 801 624 l 801 130 q 756 -112 800 -3 q 604 -329 711 -220 l 437 -218 z "},"ǌ":{"ha":1281,"x_min":74,"x_max":1231,"o":"m 74 762 l 289 762 l 306 688 l 318 688 q 414 752 358 730 q 536 774 470 774 q 730 699 658 774 q 801 465 801 624 l 801 0 l 540 0 l 540 448 q 518 527 540 504 q 451 551 495 551 q 387 538 418 551 q 335 502 356 525 l 335 0 l 74 0 l 74 762 m 842 -218 q 923 -65 900 -141 q 945 124 945 12 l 945 762 l 1207 762 l 1207 134 q 1162 -110 1207 -1 q 1010 -329 1117 -219 l 842 -218 m 1073 854 q 953 888 992 854 q 915 986 915 922 q 953 1084 915 1050 q 1073 1117 992 1117 q 1192 1084 1153 1117 q 1231 986 1231 1050 q 1192 888 1231 922 q 1073 854 1153 854 z "},"ṉ":{"ha":871,"x_min":74,"x_max":801,"o":"m 74 762 l 289 762 l 306 688 l 318 688 q 414 752 358 730 q 536 774 470 774 q 730 699 658 774 q 801 465 801 624 l 801 0 l 540 0 l 540 448 q 518 527 540 504 q 451 551 495 551 q 387 538 418 551 q 335 502 356 525 l 335 0 l 74 0 l 74 762 m 183 -278 l 183 -126 l 693 -126 l 693 -278 l 183 -278 z "},"ñ":{"ha":871,"x_min":74,"x_max":801,"o":"m 74 762 l 289 762 l 306 688 l 318 688 q 414 752 358 730 q 536 774 470 774 q 730 699 658 774 q 801 465 801 624 l 801 0 l 540 0 l 540 448 q 518 527 540 504 q 451 551 495 551 q 387 538 418 551 q 335 502 356 525 l 335 0 l 74 0 l 74 762 m 551 878 q 493 887 520 878 q 426 913 465 896 q 367 937 390 929 q 319 944 344 944 q 247 930 279 944 q 180 883 214 915 l 180 1042 q 244 1085 209 1072 q 324 1099 278 1099 q 383 1090 356 1099 q 450 1063 410 1081 q 509 1040 486 1047 q 556 1032 532 1032 q 629 1047 597 1032 q 696 1093 662 1061 l 696 934 q 632 891 667 905 q 551 878 597 878 z "},"o":{"ha":860,"x_min":42,"x_max":817,"o":"m 430 -15 q 223 30 310 -15 q 89 163 135 74 q 42 378 42 251 q 143 674 42 574 q 430 774 244 774 q 640 730 553 774 q 772 596 726 685 q 817 380 817 508 q 771 163 817 251 q 637 30 724 75 q 430 -15 550 -15 m 430 181 q 500 199 472 181 q 541 260 527 217 q 556 378 556 303 q 541 498 556 454 q 500 560 527 542 q 430 578 472 578 q 360 560 388 578 q 318 499 333 542 q 304 380 304 455 q 318 260 304 304 q 360 199 333 217 q 430 181 388 181 z "},"ó":{"ha":860,"x_min":42,"x_max":817,"o":"m 430 -15 q 223 30 310 -15 q 89 163 135 74 q 42 378 42 251 q 143 674 42 574 q 430 774 244 774 q 640 730 553 774 q 772 596 726 685 q 817 380 817 508 q 771 163 817 251 q 637 30 724 75 q 430 -15 550 -15 m 430 181 q 500 199 472 181 q 541 260 527 217 q 556 378 556 303 q 541 498 556 454 q 500 560 527 542 q 430 578 472 578 q 360 560 388 578 q 318 499 333 542 q 304 380 304 455 q 318 260 304 304 q 360 199 333 217 q 430 181 388 181 m 310 851 l 469 1122 l 745 1122 l 549 851 l 310 851 z "},"ŏ":{"ha":860,"x_min":42,"x_max":817,"o":"m 430 -15 q 223 30 310 -15 q 89 163 135 74 q 42 378 42 251 q 143 674 42 574 q 430 774 244 774 q 640 730 553 774 q 772 596 726 685 q 817 380 817 508 q 771 163 817 251 q 637 30 724 75 q 430 -15 550 -15 m 430 181 q 500 199 472 181 q 541 260 527 217 q 556 378 556 303 q 541 498 556 454 q 500 560 527 542 q 430 578 472 578 q 360 560 388 578 q 318 499 333 542 q 304 380 304 455 q 318 260 304 304 q 360 199 333 217 q 430 181 388 181 m 430 858 q 238 922 307 858 q 161 1108 168 985 l 317 1108 q 349 1017 322 1047 q 430 987 377 987 q 510 1016 483 987 q 542 1108 538 1046 l 699 1108 q 622 921 692 985 q 430 858 553 858 z "},"ô":{"ha":860,"x_min":42,"x_max":817,"o":"m 430 -15 q 223 30 310 -15 q 89 163 135 74 q 42 378 42 251 q 143 674 42 574 q 430 774 244 774 q 640 730 553 774 q 772 596 726 685 q 817 380 817 508 q 771 163 817 251 q 637 30 724 75 q 430 -15 550 -15 m 430 181 q 500 199 472 181 q 541 260 527 217 q 556 378 556 303 q 541 498 556 454 q 500 560 527 542 q 430 578 472 578 q 360 560 388 578 q 318 499 333 542 q 304 380 304 455 q 318 260 304 304 q 360 199 333 217 q 430 181 388 181 m 699 851 l 515 851 l 430 1003 l 344 851 l 160 851 l 324 1122 l 535 1122 l 699 851 z "},"ố":{"ha":860,"x_min":42,"x_max":937,"o":"m 430 -15 q 223 30 310 -15 q 89 163 135 74 q 42 378 42 251 q 143 674 42 574 q 430 774 244 774 q 640 730 553 774 q 772 596 726 685 q 817 380 817 508 q 771 163 817 251 q 637 30 724 75 q 430 -15 550 -15 m 430 181 q 500 199 472 181 q 541 260 527 217 q 556 378 556 303 q 541 498 556 454 q 500 560 527 542 q 430 578 472 578 q 360 560 388 578 q 318 499 333 542 q 304 380 304 455 q 318 260 304 304 q 360 199 333 217 q 430 181 388 181 m 718 1297 l 937 1297 l 772 1110 l 592 1110 l 718 1297 m 324 1122 l 535 1122 l 699 851 l 515 851 l 430 1003 l 344 851 l 160 851 l 324 1122 z "},"ộ":{"ha":860,"x_min":42,"x_max":817,"o":"m 430 -15 q 223 30 310 -15 q 89 163 135 74 q 42 378 42 251 q 143 674 42 574 q 430 774 244 774 q 640 730 553 774 q 772 596 726 685 q 817 380 817 508 q 771 163 817 251 q 637 30 724 75 q 430 -15 550 -15 m 430 181 q 500 199 472 181 q 541 260 527 217 q 556 378 556 303 q 541 498 556 454 q 500 560 527 542 q 430 578 472 578 q 360 560 388 578 q 318 499 333 542 q 304 380 304 455 q 318 260 304 304 q 360 199 333 217 q 430 181 388 181 m 430 -329 q 328 -296 363 -329 q 292 -204 292 -262 q 328 -113 292 -146 q 430 -80 364 -80 q 531 -113 496 -80 q 567 -204 567 -146 q 531 -296 567 -262 q 430 -329 496 -329 m 699 851 l 515 851 l 430 1003 l 344 851 l 160 851 l 324 1122 l 535 1122 l 699 851 z "},"ồ":{"ha":860,"x_min":42,"x_max":817,"o":"m 430 -15 q 223 30 310 -15 q 89 163 135 74 q 42 378 42 251 q 143 674 42 574 q 430 774 244 774 q 640 730 553 774 q 772 596 726 685 q 817 380 817 508 q 771 163 817 251 q 637 30 724 75 q 430 -15 550 -15 m 430 181 q 500 199 472 181 q 541 260 527 217 q 556 378 556 303 q 541 498 556 454 q 500 560 527 542 q 430 578 472 578 q 360 560 388 578 q 318 499 333 542 q 304 380 304 455 q 318 260 304 304 q 360 199 333 217 q 430 181 388 181 m 797 1110 l 617 1110 l 453 1297 l 671 1297 l 797 1110 m 324 1122 l 535 1122 l 699 851 l 515 851 l 430 1003 l 344 851 l 160 851 l 324 1122 z "},"ổ":{"ha":860,"x_min":42,"x_max":824,"o":"m 430 -15 q 223 30 310 -15 q 89 163 135 74 q 42 378 42 251 q 143 674 42 574 q 430 774 244 774 q 640 730 553 774 q 772 596 726 685 q 817 380 817 508 q 771 163 817 251 q 637 30 724 75 q 430 -15 550 -15 m 430 181 q 500 199 472 181 q 541 260 527 217 q 556 378 556 303 q 541 498 556 454 q 500 560 527 542 q 430 578 472 578 q 360 560 388 578 q 318 499 333 542 q 304 380 304 455 q 318 260 304 304 q 360 199 333 217 q 430 181 388 181 m 648 1313 q 782 1292 740 1313 q 824 1227 824 1272 q 810 1191 824 1204 q 765 1163 795 1178 q 726 1138 740 1149 q 709 1110 713 1127 l 591 1110 q 612 1157 593 1140 q 664 1188 631 1173 q 688 1199 681 1194 q 695 1210 695 1204 q 679 1227 695 1222 q 628 1232 663 1232 q 503 1219 558 1232 l 503 1297 q 571 1308 529 1304 q 648 1313 613 1313 m 324 1122 l 535 1122 l 699 851 l 515 851 l 430 1003 l 344 851 l 160 851 l 324 1122 z "},"ỗ":{"ha":860,"x_min":42,"x_max":817,"o":"m 430 -15 q 223 30 310 -15 q 89 163 135 74 q 42 378 42 251 q 143 674 42 574 q 430 774 244 774 q 640 730 553 774 q 772 596 726 685 q 817 380 817 508 q 771 163 817 251 q 637 30 724 75 q 430 -15 550 -15 m 430 181 q 500 199 472 181 q 541 260 527 217 q 556 378 556 303 q 541 498 556 454 q 500 560 527 542 q 430 578 472 578 q 360 560 388 578 q 318 499 333 542 q 304 380 304 455 q 318 260 304 304 q 360 199 333 217 q 430 181 388 181 m 553 1116 q 489 1122 519 1116 q 417 1140 459 1128 q 356 1157 382 1151 q 302 1163 330 1163 q 226 1152 259 1163 q 157 1119 192 1142 l 157 1246 q 223 1281 187 1269 q 307 1292 258 1292 q 369 1286 341 1292 q 442 1267 397 1280 q 504 1249 478 1255 q 558 1244 530 1244 q 633 1254 600 1244 q 702 1287 667 1265 l 702 1160 q 637 1127 672 1138 q 553 1116 601 1116 m 717 853 l 524 853 l 430 981 l 335 853 l 142 853 l 320 1076 l 540 1076 l 717 853 z "},"ȍ":{"ha":860,"x_min":42,"x_max":817,"o":"m 430 -15 q 223 30 310 -15 q 89 163 135 74 q 42 378 42 251 q 143 674 42 574 q 430 774 244 774 q 640 730 553 774 q 772 596 726 685 q 817 380 817 508 q 771 163 817 251 q 637 30 724 75 q 430 -15 550 -15 m 430 181 q 500 199 472 181 q 541 260 527 217 q 556 378 556 303 q 541 498 556 454 q 500 560 527 542 q 430 578 472 578 q 360 560 388 578 q 318 499 333 542 q 304 380 304 455 q 318 260 304 304 q 360 199 333 217 q 430 181 388 181 m 185 851 l 69 1122 l 273 1122 l 376 851 l 185 851 m 483 851 l 367 1122 l 571 1122 l 674 851 l 483 851 z "},"ö":{"ha":860,"x_min":42,"x_max":817,"o":"m 430 -15 q 223 30 310 -15 q 89 163 135 74 q 42 378 42 251 q 143 674 42 574 q 430 774 244 774 q 640 730 553 774 q 772 596 726 685 q 817 380 817 508 q 771 163 817 251 q 637 30 724 75 q 430 -15 550 -15 m 430 181 q 500 199 472 181 q 541 260 527 217 q 556 378 556 303 q 541 498 556 454 q 500 560 527 542 q 430 578 472 578 q 360 560 388 578 q 318 499 333 542 q 304 380 304 455 q 318 260 304 304 q 360 199 333 217 q 430 181 388 181 m 253 858 q 151 891 186 858 q 115 985 115 925 q 151 1079 115 1045 q 253 1113 186 1113 q 354 1079 319 1113 q 390 985 390 1045 q 354 891 390 925 q 253 858 319 858 m 606 858 q 505 891 540 858 q 469 985 469 925 q 505 1079 469 1045 q 606 1113 540 1113 q 708 1079 673 1113 q 744 985 744 1045 q 708 891 744 925 q 606 858 673 858 z "},"ȫ":{"ha":860,"x_min":42,"x_max":817,"o":"m 430 -15 q 223 30 310 -15 q 89 163 135 74 q 42 378 42 251 q 143 674 42 574 q 430 774 244 774 q 640 730 553 774 q 772 596 726 685 q 817 380 817 508 q 771 163 817 251 q 637 30 724 75 q 430 -15 550 -15 m 430 181 q 500 199 472 181 q 541 260 527 217 q 556 378 556 303 q 541 498 556 454 q 500 560 527 542 q 430 578 472 578 q 360 560 388 578 q 318 499 333 542 q 304 380 304 455 q 318 260 304 304 q 360 199 333 217 q 430 181 388 181 m 253 858 q 151 891 186 858 q 115 985 115 925 q 151 1079 115 1045 q 253 1113 186 1113 q 354 1079 319 1113 q 390 985 390 1045 q 354 891 390 925 q 253 858 319 858 m 606 858 q 505 891 540 858 q 469 985 469 925 q 505 1079 469 1045 q 606 1113 540 1113 q 708 1079 673 1113 q 744 985 744 1045 q 708 891 744 925 q 606 858 673 858 m 172 1183 l 172 1337 l 688 1337 l 688 1183 l 172 1183 z "},"ȱ":{"ha":860,"x_min":42,"x_max":817,"o":"m 430 -15 q 223 30 310 -15 q 89 163 135 74 q 42 378 42 251 q 143 674 42 574 q 430 774 244 774 q 640 730 553 774 q 772 596 726 685 q 817 380 817 508 q 771 163 817 251 q 637 30 724 75 q 430 -15 550 -15 m 430 181 q 500 199 472 181 q 541 260 527 217 q 556 378 556 303 q 541 498 556 454 q 500 560 527 542 q 430 578 472 578 q 360 560 388 578 q 318 499 333 542 q 304 380 304 455 q 318 260 304 304 q 360 199 333 217 q 430 181 388 181 m 430 853 q 310 887 349 853 q 272 985 272 921 q 310 1083 272 1049 q 430 1117 349 1117 q 549 1083 510 1117 q 588 985 588 1049 q 549 887 588 921 q 430 853 510 853 m 172 1185 l 172 1339 l 688 1339 l 688 1185 l 172 1185 z "},"ọ":{"ha":860,"x_min":42,"x_max":817,"o":"m 430 -15 q 223 30 310 -15 q 89 163 135 74 q 42 378 42 251 q 143 674 42 574 q 430 774 244 774 q 640 730 553 774 q 772 596 726 685 q 817 380 817 508 q 771 163 817 251 q 637 30 724 75 q 430 -15 550 -15 m 430 181 q 500 199 472 181 q 541 260 527 217 q 556 378 556 303 q 541 498 556 454 q 500 560 527 542 q 430 578 472 578 q 360 560 388 578 q 318 499 333 542 q 304 380 304 455 q 318 260 304 304 q 360 199 333 217 q 430 181 388 181 m 430 -329 q 328 -296 363 -329 q 292 -204 292 -262 q 328 -113 292 -146 q 430 -80 364 -80 q 531 -113 496 -80 q 567 -204 567 -146 q 531 -296 567 -262 q 430 -329 496 -329 z "},"ò":{"ha":860,"x_min":42,"x_max":817,"o":"m 430 -15 q 223 30 310 -15 q 89 163 135 74 q 42 378 42 251 q 143 674 42 574 q 430 774 244 774 q 640 730 553 774 q 772 596 726 685 q 817 380 817 508 q 771 163 817 251 q 637 30 724 75 q 430 -15 550 -15 m 430 181 q 500 199 472 181 q 541 260 527 217 q 556 378 556 303 q 541 498 556 454 q 500 560 527 542 q 430 578 472 578 q 360 560 388 578 q 318 499 333 542 q 304 380 304 455 q 318 260 304 304 q 360 199 333 217 q 430 181 388 181 m 310 851 l 114 1122 l 390 1122 l 549 851 l 310 851 z "},"ỏ":{"ha":860,"x_min":42,"x_max":817,"o":"m 430 -15 q 223 30 310 -15 q 89 163 135 74 q 42 378 42 251 q 143 674 42 574 q 430 774 244 774 q 640 730 553 774 q 772 596 726 685 q 817 380 817 508 q 771 163 817 251 q 637 30 724 75 q 430 -15 550 -15 m 430 181 q 500 199 472 181 q 541 260 527 217 q 556 378 556 303 q 541 498 556 454 q 500 560 527 542 q 430 578 472 578 q 360 560 388 578 q 318 499 333 542 q 304 380 304 455 q 318 260 304 304 q 360 199 333 217 q 430 181 388 181 m 366 851 q 386 915 368 892 q 434 961 404 939 q 461 984 453 975 q 469 1004 469 992 q 454 1026 469 1019 q 406 1033 439 1033 q 289 1017 348 1033 l 289 1113 q 354 1126 316 1121 q 426 1131 392 1131 q 560 1104 517 1131 q 603 1021 603 1077 q 595 978 603 996 q 576 949 588 960 q 544 922 564 937 q 507 889 519 903 q 493 851 495 874 l 366 851 z "},"ơ":{"ha":860,"x_min":42,"x_max":853,"o":"m 853 863 q 820 734 853 783 q 724 663 786 684 q 817 380 817 564 q 771 163 817 251 q 637 30 724 75 q 430 -15 550 -15 q 223 30 310 -15 q 89 163 135 74 q 42 378 42 251 q 144 674 42 574 q 436 774 245 774 q 521 769 466 774 q 567 767 557 767 q 659 791 628 767 q 690 873 690 816 q 678 969 690 917 l 840 969 q 851 917 848 942 q 853 863 853 892 m 430 181 q 500 199 472 181 q 541 260 527 217 q 556 378 556 303 q 541 498 556 454 q 500 560 527 542 q 430 578 472 578 q 360 560 388 578 q 318 499 333 542 q 304 380 304 455 q 318 260 304 304 q 360 199 333 217 q 430 181 388 181 z "},"ớ":{"ha":860,"x_min":42,"x_max":853,"o":"m 719 1122 l 535 851 l 312 851 l 460 1122 l 719 1122 m 853 863 q 820 734 853 783 q 724 663 786 684 q 817 380 817 564 q 771 163 817 251 q 637 30 724 75 q 430 -15 550 -15 q 223 30 310 -15 q 89 163 135 74 q 42 378 42 251 q 144 674 42 574 q 436 774 245 774 q 521 769 466 774 q 567 767 557 767 q 659 791 628 767 q 690 873 690 816 q 678 969 690 917 l 840 969 q 851 917 848 942 q 853 863 853 892 m 430 181 q 500 199 472 181 q 541 260 527 217 q 556 378 556 303 q 541 498 556 454 q 500 560 527 542 q 430 578 472 578 q 360 560 388 578 q 318 499 333 542 q 304 380 304 455 q 318 260 304 304 q 360 199 333 217 q 430 181 388 181 z "},"ợ":{"ha":860,"x_min":42,"x_max":853,"o":"m 853 863 q 820 734 853 783 q 724 663 786 684 q 817 380 817 564 q 771 163 817 251 q 637 30 724 75 q 430 -15 550 -15 q 223 30 310 -15 q 89 163 135 74 q 42 378 42 251 q 144 674 42 574 q 436 774 245 774 q 521 769 466 774 q 567 767 557 767 q 659 791 628 767 q 690 873 690 816 q 678 969 690 917 l 840 969 q 851 917 848 942 q 853 863 853 892 m 430 181 q 500 199 472 181 q 541 260 527 217 q 556 378 556 303 q 541 498 556 454 q 500 560 527 542 q 430 578 472 578 q 360 560 388 578 q 318 499 333 542 q 304 380 304 455 q 318 260 304 304 q 360 199 333 217 q 430 181 388 181 m 430 -329 q 328 -296 363 -329 q 292 -204 292 -262 q 328 -113 292 -146 q 430 -80 364 -80 q 531 -113 496 -80 q 567 -204 567 -146 q 531 -296 567 -262 q 430 -329 496 -329 z "},"ờ":{"ha":860,"x_min":42,"x_max":853,"o":"m 853 863 q 820 734 853 783 q 724 663 786 684 q 817 380 817 564 q 771 163 817 251 q 637 30 724 75 q 430 -15 550 -15 q 223 30 310 -15 q 89 163 135 74 q 42 378 42 251 q 144 674 42 574 q 436 774 245 774 q 521 769 466 774 q 567 767 557 767 q 659 791 628 767 q 690 873 690 816 q 678 969 690 917 l 840 969 q 851 917 848 942 q 853 863 853 892 m 430 181 q 500 199 472 181 q 541 260 527 217 q 556 378 556 303 q 541 498 556 454 q 500 560 527 542 q 430 578 472 578 q 360 560 388 578 q 318 499 333 542 q 304 380 304 455 q 318 260 304 304 q 360 199 333 217 q 430 181 388 181 m 304 851 l 108 1122 l 383 1122 l 542 851 l 304 851 z "},"ở":{"ha":860,"x_min":42,"x_max":853,"o":"m 853 863 q 820 734 853 783 q 724 663 786 684 q 817 380 817 564 q 771 163 817 251 q 637 30 724 75 q 430 -15 550 -15 q 223 30 310 -15 q 89 163 135 74 q 42 378 42 251 q 144 674 42 574 q 436 774 245 774 q 521 769 466 774 q 567 767 557 767 q 659 791 628 767 q 690 873 690 816 q 678 969 690 917 l 840 969 q 851 917 848 942 q 853 863 853 892 m 430 181 q 500 199 472 181 q 541 260 527 217 q 556 378 556 303 q 541 498 556 454 q 500 560 527 542 q 430 578 472 578 q 360 560 388 578 q 318 499 333 542 q 304 380 304 455 q 318 260 304 304 q 360 199 333 217 q 430 181 388 181 m 360 851 q 380 915 362 892 q 428 961 398 939 q 455 984 447 975 q 463 1004 463 992 q 448 1026 463 1019 q 399 1033 433 1033 q 283 1017 342 1033 l 283 1113 q 348 1126 310 1121 q 419 1131 386 1131 q 554 1104 510 1131 q 597 1021 597 1077 q 589 978 597 996 q 569 949 581 960 q 538 922 558 937 q 501 889 513 903 q 487 851 489 874 l 360 851 z "},"ỡ":{"ha":860,"x_min":42,"x_max":853,"o":"m 517 878 q 460 887 486 878 q 400 913 435 896 q 348 936 369 928 q 303 944 326 944 q 236 930 267 944 q 172 883 206 915 l 172 1042 q 234 1085 201 1072 q 307 1099 267 1099 q 363 1090 338 1099 q 424 1063 388 1081 q 476 1040 454 1048 q 521 1032 497 1032 q 588 1047 556 1032 q 652 1093 619 1061 l 652 934 q 591 891 624 905 q 517 878 558 878 m 853 863 q 820 734 853 783 q 724 663 786 684 q 817 380 817 564 q 771 163 817 251 q 637 30 724 75 q 430 -15 550 -15 q 223 30 310 -15 q 89 163 135 74 q 42 378 42 251 q 144 674 42 574 q 436 774 245 774 q 521 769 466 774 q 567 767 557 767 q 659 791 628 767 q 690 873 690 816 q 678 969 690 917 l 840 969 q 851 917 848 942 q 853 863 853 892 m 430 181 q 500 199 472 181 q 541 260 527 217 q 556 378 556 303 q 541 498 556 454 q 500 560 527 542 q 430 578 472 578 q 360 560 388 578 q 318 499 333 542 q 304 380 304 455 q 318 260 304 304 q 360 199 333 217 q 430 181 388 181 z "},"ő":{"ha":860,"x_min":42,"x_max":817,"o":"m 430 -15 q 223 30 310 -15 q 89 163 135 74 q 42 378 42 251 q 143 674 42 574 q 430 774 244 774 q 640 730 553 774 q 772 596 726 685 q 817 380 817 508 q 771 163 817 251 q 637 30 724 75 q 430 -15 550 -15 m 430 181 q 500 199 472 181 q 541 260 527 217 q 556 378 556 303 q 541 498 556 454 q 500 560 527 542 q 430 578 472 578 q 360 560 388 578 q 318 499 333 542 q 304 380 304 455 q 318 260 304 304 q 360 199 333 217 q 430 181 388 181 m 185 851 l 288 1122 l 492 1122 l 376 851 l 185 851 m 483 851 l 587 1122 l 790 1122 l 674 851 l 483 851 z "},"ȏ":{"ha":860,"x_min":42,"x_max":817,"o":"m 430 -15 q 223 30 310 -15 q 89 163 135 74 q 42 378 42 251 q 143 674 42 574 q 430 774 244 774 q 640 730 553 774 q 772 596 726 685 q 817 380 817 508 q 771 163 817 251 q 637 30 724 75 q 430 -15 550 -15 m 430 181 q 500 199 472 181 q 541 260 527 217 q 556 378 556 303 q 541 498 556 454 q 500 560 527 542 q 430 578 472 578 q 360 560 388 578 q 318 499 333 542 q 304 380 304 455 q 318 260 304 304 q 360 199 333 217 q 430 181 388 181 m 161 871 q 237 1057 168 994 q 429 1121 306 1121 q 622 1057 551 1121 q 699 871 692 993 l 542 871 q 510 963 538 933 q 429 993 482 993 q 348 964 375 993 q 317 871 322 934 l 161 871 z "},"ō":{"ha":860,"x_min":42,"x_max":817,"o":"m 430 -15 q 223 30 310 -15 q 89 163 135 74 q 42 378 42 251 q 143 674 42 574 q 430 774 244 774 q 640 730 553 774 q 772 596 726 685 q 817 380 817 508 q 771 163 817 251 q 637 30 724 75 q 430 -15 550 -15 m 430 181 q 500 199 472 181 q 541 260 527 217 q 556 378 556 303 q 541 498 556 454 q 500 560 527 542 q 430 578 472 578 q 360 560 388 578 q 318 499 333 542 q 304 380 304 455 q 318 260 304 304 q 360 199 333 217 q 430 181 388 181 m 172 909 l 172 1063 l 688 1063 l 688 909 l 172 909 z "},"ṓ":{"ha":860,"x_min":42,"x_max":817,"o":"m 430 -15 q 223 30 310 -15 q 89 163 135 74 q 42 378 42 251 q 143 674 42 574 q 430 774 244 774 q 640 730 553 774 q 772 596 726 685 q 817 380 817 508 q 771 163 817 251 q 637 30 724 75 q 430 -15 550 -15 m 430 181 q 500 199 472 181 q 541 260 527 217 q 556 378 556 303 q 541 498 556 454 q 500 560 527 542 q 430 578 472 578 q 360 560 388 578 q 318 499 333 542 q 304 380 304 455 q 318 260 304 304 q 360 199 333 217 q 430 181 388 181 m 172 909 l 172 1063 l 688 1063 l 688 909 l 172 909 m 311 1160 l 437 1375 l 710 1375 l 546 1160 l 311 1160 z "},"ṑ":{"ha":860,"x_min":42,"x_max":817,"o":"m 430 -15 q 223 30 310 -15 q 89 163 135 74 q 42 378 42 251 q 143 674 42 574 q 430 774 244 774 q 640 730 553 774 q 772 596 726 685 q 817 380 817 508 q 771 163 817 251 q 637 30 724 75 q 430 -15 550 -15 m 430 181 q 500 199 472 181 q 541 260 527 217 q 556 378 556 303 q 541 498 556 454 q 500 560 527 542 q 430 578 472 578 q 360 560 388 578 q 318 499 333 542 q 304 380 304 455 q 318 260 304 304 q 360 199 333 217 q 430 181 388 181 m 172 909 l 172 1063 l 688 1063 l 688 909 l 172 909 m 312 1160 l 147 1375 l 421 1375 l 547 1160 l 312 1160 z "},"ǫ":{"ha":860,"x_min":42,"x_max":817,"o":"m 430 774 q 640 730 553 774 q 772 596 726 685 q 817 380 817 508 q 759 142 817 235 q 592 10 701 49 q 458 -62 494 -26 q 422 -142 422 -99 q 444 -194 422 -175 q 506 -213 465 -213 q 589 -194 544 -213 l 590 -292 q 534 -308 562 -303 q 469 -314 506 -314 q 325 -274 375 -314 q 276 -163 276 -233 q 297 -78 276 -116 q 363 -11 317 -41 q 127 106 211 7 q 42 378 42 206 q 143 674 42 574 q 430 774 244 774 m 430 181 q 500 199 472 181 q 541 260 527 217 q 556 378 556 303 q 541 498 556 454 q 500 560 527 542 q 430 578 472 578 q 360 560 388 578 q 318 499 333 542 q 304 380 304 455 q 318 260 304 304 q 360 199 333 217 q 430 181 388 181 z "},"ø":{"ha":860,"x_min":42,"x_max":817,"o":"m 718 672 q 792 548 767 622 q 817 380 817 475 q 771 163 817 251 q 637 30 724 75 q 430 -15 550 -15 q 246 19 325 -15 l 197 -47 l 94 29 l 140 91 q 42 378 42 193 q 143 674 42 574 q 430 774 244 774 q 612 742 535 774 l 660 809 l 763 733 l 718 672 m 430 582 q 356 564 385 582 q 312 501 327 545 q 297 380 297 456 q 303 295 297 331 l 499 567 q 430 582 472 582 m 430 177 q 504 195 475 177 q 548 258 533 214 q 563 378 563 302 q 556 468 563 428 l 358 194 q 430 177 386 177 z "},"ǿ":{"ha":860,"x_min":42,"x_max":817,"o":"m 718 672 q 792 548 767 622 q 817 380 817 475 q 771 163 817 251 q 637 30 724 75 q 430 -15 550 -15 q 246 19 325 -15 l 197 -47 l 94 29 l 140 91 q 42 378 42 193 q 143 674 42 574 q 430 774 244 774 q 612 742 535 774 l 660 809 l 763 733 l 718 672 m 430 582 q 356 564 385 582 q 312 501 327 545 q 297 380 297 456 q 303 295 297 331 l 499 567 q 430 582 472 582 m 430 177 q 504 195 475 177 q 548 258 533 214 q 563 378 563 302 q 556 468 563 428 l 358 194 q 430 177 386 177 m 308 851 l 467 1122 l 743 1122 l 547 851 l 308 851 z "},"õ":{"ha":860,"x_min":42,"x_max":817,"o":"m 430 -15 q 223 30 310 -15 q 89 163 135 74 q 42 378 42 251 q 143 674 42 574 q 430 774 244 774 q 640 730 553 774 q 772 596 726 685 q 817 380 817 508 q 771 163 817 251 q 637 30 724 75 q 430 -15 550 -15 m 430 181 q 500 199 472 181 q 541 260 527 217 q 556 378 556 303 q 541 498 556 454 q 500 560 527 542 q 430 578 472 578 q 360 560 388 578 q 318 499 333 542 q 304 380 304 455 q 318 260 304 304 q 360 199 333 217 q 430 181 388 181 m 543 878 q 484 887 512 878 q 417 913 457 896 q 358 937 381 929 q 311 944 335 944 q 238 930 271 944 q 172 883 206 915 l 172 1042 q 235 1085 201 1072 q 316 1099 270 1099 q 375 1090 347 1099 q 442 1063 402 1081 q 501 1040 478 1047 q 548 1032 524 1032 q 621 1047 588 1032 q 688 1093 653 1061 l 688 934 q 624 891 658 905 q 543 878 589 878 z "},"ṍ":{"ha":860,"x_min":42,"x_max":817,"o":"m 430 -15 q 223 30 310 -15 q 89 163 135 74 q 42 378 42 251 q 143 674 42 574 q 430 774 244 774 q 640 730 553 774 q 772 596 726 685 q 817 380 817 508 q 771 163 817 251 q 637 30 724 75 q 430 -15 550 -15 m 430 181 q 500 199 472 181 q 541 260 527 217 q 556 378 556 303 q 541 498 556 454 q 500 560 527 542 q 430 578 472 578 q 360 560 388 578 q 318 499 333 542 q 304 380 304 455 q 318 260 304 304 q 360 199 333 217 q 430 181 388 181 m 543 878 q 484 887 512 878 q 417 913 457 896 q 358 937 381 929 q 311 944 335 944 q 238 930 271 944 q 172 883 206 915 l 172 1042 q 235 1085 201 1072 q 316 1099 270 1099 q 375 1090 347 1099 q 442 1063 402 1081 q 501 1040 478 1047 q 548 1032 524 1032 q 621 1047 588 1032 q 688 1093 653 1061 l 688 934 q 624 891 658 905 q 543 878 589 878 m 402 1391 l 528 1606 l 801 1606 l 637 1391 l 402 1391 z "},"ṏ":{"ha":860,"x_min":42,"x_max":817,"o":"m 430 -15 q 223 30 310 -15 q 89 163 135 74 q 42 378 42 251 q 143 674 42 574 q 430 774 244 774 q 640 730 553 774 q 772 596 726 685 q 817 380 817 508 q 771 163 817 251 q 637 30 724 75 q 430 -15 550 -15 m 430 181 q 500 199 472 181 q 541 260 527 217 q 556 378 556 303 q 541 498 556 454 q 500 560 527 542 q 430 578 472 578 q 360 560 388 578 q 318 499 333 542 q 304 380 304 455 q 318 260 304 304 q 360 199 333 217 q 430 181 388 181 m 543 878 q 484 887 512 878 q 417 913 457 896 q 358 937 381 929 q 311 944 335 944 q 238 930 271 944 q 172 883 206 915 l 172 1042 q 235 1085 201 1072 q 316 1099 270 1099 q 375 1090 347 1099 q 442 1063 402 1081 q 501 1040 478 1047 q 548 1032 524 1032 q 621 1047 588 1032 q 688 1093 653 1061 l 688 934 q 624 891 658 905 q 543 878 589 878 m 253 1132 q 151 1166 186 1132 q 115 1260 115 1199 q 151 1353 115 1319 q 253 1387 186 1387 q 354 1353 319 1387 q 390 1260 390 1319 q 354 1166 390 1199 q 253 1132 319 1132 m 606 1132 q 505 1166 540 1132 q 469 1260 469 1199 q 505 1353 469 1319 q 606 1387 540 1387 q 708 1353 673 1387 q 744 1260 744 1319 q 708 1166 744 1199 q 606 1132 673 1132 z "},"ȭ":{"ha":860,"x_min":42,"x_max":817,"o":"m 430 -15 q 223 30 310 -15 q 89 163 135 74 q 42 378 42 251 q 143 674 42 574 q 430 774 244 774 q 640 730 553 774 q 772 596 726 685 q 817 380 817 508 q 771 163 817 251 q 637 30 724 75 q 430 -15 550 -15 m 430 181 q 500 199 472 181 q 541 260 527 217 q 556 378 556 303 q 541 498 556 454 q 500 560 527 542 q 430 578 472 578 q 360 560 388 578 q 318 499 333 542 q 304 380 304 455 q 318 260 304 304 q 360 199 333 217 q 430 181 388 181 m 543 878 q 484 887 512 878 q 417 913 457 896 q 358 937 381 929 q 311 944 335 944 q 238 930 271 944 q 172 883 206 915 l 172 1042 q 235 1085 201 1072 q 316 1099 270 1099 q 375 1090 347 1099 q 442 1063 402 1081 q 501 1040 478 1047 q 548 1032 524 1032 q 621 1047 588 1032 q 688 1093 653 1061 l 688 934 q 624 891 658 905 q 543 878 589 878 m 172 1183 l 172 1337 l 688 1337 l 688 1183 l 172 1183 z "},"œ":{"ha":1299,"x_min":42,"x_max":1265,"o":"m 1265 307 l 817 307 q 841 232 821 259 q 906 192 861 204 q 1028 180 950 180 q 1221 202 1112 180 l 1221 9 q 992 -15 1106 -15 q 801 10 879 -15 q 673 83 722 34 q 417 -15 583 -15 q 219 30 303 -15 q 89 163 135 74 q 42 378 42 251 q 87 597 42 508 q 216 730 132 685 q 417 774 300 774 q 575 746 508 774 q 686 663 642 717 q 793 745 730 717 q 935 774 856 774 q 1113 728 1039 774 q 1226 592 1187 682 q 1265 374 1265 502 l 1265 307 m 921 613 q 843 576 869 613 q 816 453 817 540 l 1023 453 q 997 577 1022 541 q 921 613 972 613 m 429 181 q 499 199 472 181 q 541 260 526 217 q 555 378 555 303 q 540 498 555 454 q 498 560 526 542 q 429 578 471 578 q 360 560 388 578 q 318 499 333 542 q 304 380 304 455 q 318 261 304 304 q 360 199 333 217 q 429 181 387 181 z "},"p":{"ha":879,"x_min":74,"x_max":838,"o":"m 74 762 l 293 762 l 309 682 l 320 682 q 404 750 353 725 q 520 774 455 774 q 681 734 609 774 q 795 609 752 694 q 838 396 838 524 q 728 91 838 197 q 411 -15 619 -15 q 335 -10 381 -15 l 335 -306 l 74 -306 l 74 762 m 410 182 q 535 227 495 182 q 575 376 575 272 q 541 521 575 479 q 441 563 506 563 q 383 553 411 563 q 335 526 355 544 l 335 189 q 410 182 377 182 z "},"þ":{"ha":879,"x_min":74,"x_max":838,"o":"m 74 1122 l 335 1122 l 335 690 l 347 690 q 429 752 381 731 q 540 774 478 774 q 690 733 623 774 q 798 607 758 692 q 838 396 838 522 q 728 91 838 197 q 411 -15 619 -15 q 335 -10 381 -15 l 335 -306 l 74 -306 l 74 1122 m 410 182 q 535 227 495 182 q 575 376 575 272 q 540 520 575 479 q 438 562 506 562 q 382 553 409 562 q 335 528 355 544 l 335 189 q 410 182 377 182 z "},"q":{"ha":879,"x_min":42,"x_max":805,"o":"m 544 70 l 532 70 q 450 7 499 29 q 340 -15 401 -15 q 189 27 256 -15 q 82 153 122 68 q 42 363 42 238 q 154 669 42 565 q 490 774 265 774 q 655 763 570 774 q 805 729 740 751 l 805 -306 l 544 -306 l 544 70 m 442 198 q 497 206 470 198 q 544 228 524 213 l 544 571 q 467 578 506 578 q 345 533 386 578 q 304 384 304 488 q 339 239 304 281 q 442 198 374 198 z "},"r":{"ha":584,"x_min":74,"x_max":576,"o":"m 74 762 l 288 762 l 308 665 l 319 665 q 398 747 348 720 q 514 774 448 774 q 576 768 542 774 l 576 533 q 497 540 545 540 q 405 523 449 540 q 335 478 360 507 l 335 0 l 74 0 l 74 762 z "},"ŕ":{"ha":584,"x_min":74,"x_max":640,"o":"m 74 762 l 288 762 l 308 665 l 319 665 q 398 747 348 720 q 514 774 448 774 q 576 768 542 774 l 576 533 q 497 540 545 540 q 405 523 449 540 q 335 478 360 507 l 335 0 l 74 0 l 74 762 m 205 851 l 364 1122 l 640 1122 l 443 851 l 205 851 z "},"ř":{"ha":584,"x_min":54,"x_max":594,"o":"m 74 762 l 288 762 l 308 665 l 319 665 q 398 747 348 720 q 514 774 448 774 q 576 768 542 774 l 576 533 q 497 540 545 540 q 405 523 449 540 q 335 478 360 507 l 335 0 l 74 0 l 74 762 m 410 1122 l 594 1122 l 429 851 l 219 851 l 54 1122 l 238 1122 l 324 971 l 410 1122 z "},"ŗ":{"ha":584,"x_min":62,"x_max":576,"o":"m 74 762 l 288 762 l 308 665 l 319 665 q 398 747 348 720 q 514 774 448 774 q 576 768 542 774 l 576 533 q 497 540 545 540 q 405 523 449 540 q 335 478 360 507 l 335 0 l 74 0 l 74 762 m 204 -80 q 347 -194 347 -80 q 331 -277 347 -233 q 288 -353 314 -322 l 126 -353 q 168 -251 159 -293 q 62 -166 62 -240 q 204 -80 62 -80 z "},"ȑ":{"ha":584,"x_min":-37,"x_max":576,"o":"m 74 762 l 288 762 l 308 665 l 319 665 q 398 747 348 720 q 514 774 448 774 q 576 768 542 774 l 576 533 q 497 540 545 540 q 405 523 449 540 q 335 478 360 507 l 335 0 l 74 0 l 74 762 m 79 851 l -37 1122 l 167 1122 l 270 851 l 79 851 m 378 851 l 261 1122 l 465 1122 l 569 851 l 378 851 z "},"ṛ":{"ha":584,"x_min":67,"x_max":576,"o":"m 74 762 l 288 762 l 308 665 l 319 665 q 398 747 348 720 q 514 774 448 774 q 576 768 542 774 l 576 533 q 497 540 545 540 q 405 523 449 540 q 335 478 360 507 l 335 0 l 74 0 l 74 762 m 205 -329 q 103 -296 138 -329 q 67 -204 67 -262 q 103 -113 67 -146 q 205 -80 139 -80 q 306 -113 271 -80 q 342 -204 342 -146 q 306 -296 342 -262 q 205 -329 271 -329 z "},"ȓ":{"ha":584,"x_min":56,"x_max":593,"o":"m 74 762 l 288 762 l 308 665 l 319 665 q 398 747 348 720 q 514 774 448 774 q 576 768 542 774 l 576 533 q 497 540 545 540 q 405 523 449 540 q 335 478 360 507 l 335 0 l 74 0 l 74 762 m 56 871 q 131 1057 63 994 q 324 1121 200 1121 q 516 1057 446 1121 q 593 871 586 993 l 437 871 q 404 963 432 933 q 324 993 376 993 q 243 964 269 993 q 211 871 216 934 l 56 871 z "},"ṟ":{"ha":584,"x_min":-51,"x_max":576,"o":"m 74 762 l 288 762 l 308 665 l 319 665 q 398 747 348 720 q 514 774 448 774 q 576 768 542 774 l 576 533 q 497 540 545 540 q 405 523 449 540 q 335 478 360 507 l 335 0 l 74 0 l 74 762 m -51 -278 l -51 -126 l 460 -126 l 460 -278 l -51 -278 z "},"s":{"ha":699,"x_min":36,"x_max":669,"o":"m 314 -15 q 58 19 169 -15 l 58 208 q 178 182 114 191 q 309 173 243 173 q 401 187 374 173 q 428 229 428 201 q 416 260 428 249 q 376 275 405 270 l 246 298 q 87 372 138 317 q 36 522 36 427 q 78 656 36 600 q 205 743 119 713 q 415 774 290 774 q 528 768 472 774 q 627 749 584 761 l 627 561 q 530 580 583 573 q 423 587 477 587 q 309 571 341 587 q 278 528 278 555 q 290 500 278 510 q 330 485 301 490 l 460 462 q 617 391 565 443 q 669 238 669 339 q 627 103 669 160 q 506 16 585 47 q 314 -15 426 -15 z "},"ś":{"ha":699,"x_min":36,"x_max":669,"o":"m 314 -15 q 58 19 169 -15 l 58 208 q 178 182 114 191 q 309 173 243 173 q 401 187 374 173 q 428 229 428 201 q 416 260 428 249 q 376 275 405 270 l 246 298 q 87 372 138 317 q 36 522 36 427 q 78 656 36 600 q 205 743 119 713 q 415 774 290 774 q 528 768 472 774 q 627 749 584 761 l 627 561 q 530 580 583 573 q 423 587 477 587 q 309 571 341 587 q 278 528 278 555 q 290 500 278 510 q 330 485 301 490 l 460 462 q 617 391 565 443 q 669 238 669 339 q 627 103 669 160 q 506 16 585 47 q 314 -15 426 -15 m 233 851 l 392 1122 l 668 1122 l 472 851 l 233 851 z "},"ṥ":{"ha":699,"x_min":36,"x_max":669,"o":"m 314 -15 q 58 19 169 -15 l 58 208 q 178 182 114 191 q 309 173 243 173 q 401 187 374 173 q 428 229 428 201 q 416 260 428 249 q 376 275 405 270 l 246 298 q 87 372 138 317 q 36 522 36 427 q 78 656 36 600 q 205 743 119 713 q 415 774 290 774 q 528 768 472 774 q 627 749 584 761 l 627 561 q 530 580 583 573 q 423 587 477 587 q 309 571 341 587 q 278 528 278 555 q 290 500 278 510 q 330 485 301 490 l 460 462 q 617 391 565 443 q 669 238 669 339 q 627 103 669 160 q 506 16 585 47 q 314 -15 426 -15 m 217 1094 q 122 1118 154 1094 q 90 1187 90 1142 q 122 1255 90 1231 q 217 1278 154 1278 q 311 1255 279 1278 q 343 1187 343 1231 q 311 1118 343 1142 q 217 1094 279 1094 m 233 851 l 392 1122 l 668 1122 l 472 851 l 233 851 z "}}}
